M48
; DRILL file {KiCad 5.1.6} date Fri Jul 10 01:20:48 2020
; FORMAT={-:-/ absolute / inch / decimal}
; #@! TF.CreationDate,2020-07-10T01:20:48+02:00
; #@! TF.GenerationSoftware,Kicad,Pcbnew,5.1.6
; #@! TF.FileFunction,Plated,1,2,PTH
FMAT,2
INCH
T1C0.0157
T2C0.0315
T3C0.0394
T4C0.0433
%
G90
G05
T1
X4.0395Y-4.6117
X4.0645Y-4.0967
X4.0995Y-4.0667
X4.1845Y-4.1317
X4.2195Y-4.0967
X4.2745Y-4.4517
X4.3336Y-4.0508
X4.3845Y-4.4117
X4.4195Y-4.3017
X4.4295Y-4.9567
X4.4795Y-4.9567
X4.5795Y-4.9167
X4.5795Y-4.9567
X4.5845Y-4.4567
X4.6795Y-4.3703
X4.8465Y-4.4067
X4.9646Y-4.3988
X5.0988Y-4.3979
X5.1395Y-4.1267
X5.2295Y-4.5817
X5.2545Y-4.6317
X5.2545Y-4.6817
X5.2595Y-4.1267
X5.3395Y-4.1267
X5.387Y-4.5317
X5.4095Y-4.5817
X5.5545Y-4.6567
X5.5795Y-4.2817
X5.6045Y-4.6567
X5.6245Y-4.2817
X5.65Y-4.675
X5.65Y-4.775
X5.7795Y-4.1067
X5.8795Y-4.1067
X5.9795Y-4.1067
X6.0795Y-4.1067
X6.1795Y-4.1067
X6.2083Y-4.7667
X6.2645Y-4.8167
X6.2795Y-4.1067
X6.4345Y-4.6517
T2
X4.4295Y-4.2067
X4.5295Y-4.2067
X4.6295Y-4.2067
T3
X4.8295Y-5.8567
X4.4295Y-5.0567
X4.4295Y-4.0567
X4.5295Y-4.0567
X4.6295Y-4.0567
X6.2295Y-5.5567
X6.3295Y-5.2567
X6.0295Y-5.7567
X5.3295Y-5.0567
X6.2295Y-5.2567
X4.9295Y-5.6567
X5.0295Y-5.7567
X5.1295Y-5.1567
X4.8295Y-5.2567
X5.2295Y-5.3567
X5.6295Y-5.2567
X5.5295Y-5.0567
X6.1295Y-5.7567
X4.9295Y-5.8567
X4.8295Y-5.0567
X4.4295Y-5.7567
X6.0295Y-5.6567
X6.1295Y-5.6567
X5.8295Y-5.0567
X6.0295Y-5.5567
X6.4295Y-5.4567
X5.9295Y-5.4567
X4.2295Y-5.1567
X4.6295Y-5.7567
X5.5295Y-5.7567
X5.0295Y-5.4567
X5.9295Y-5.8567
X4.9295Y-5.3567
X6.4295Y-5.5567
X5.6295Y-5.6567
X6.4295Y-5.3567
X4.4295Y-5.4567
X5.1295Y-5.4567
X5.7295Y-5.0567
X5.2295Y-5.6567
X5.2295Y-5.4567
X5.2295Y-5.0567
X4.2295Y-5.2567
X5.1295Y-5.8567
X4.6295Y-5.2567
X4.8295Y-5.3567
X5.2295Y-5.8567
X5.6295Y-5.5567
X6.4295Y-5.1567
X5.6295Y-5.7567
X5.9295Y-5.0567
X5.3295Y-5.7567
X5.6295Y-5.1567
X5.3295Y-5.5567
X4.9295Y-5.7567
X6.0295Y-5.2567
X5.9295Y-5.2567
X6.4295Y-5.6567
X6.2295Y-5.0567
X5.4295Y-5.5567
X5.7295Y-4.2567
X5.7295Y-4.3567
X5.8295Y-4.2567
X5.8295Y-4.3567
X5.9295Y-4.2567
X5.9295Y-4.3567
X6.0295Y-4.2567
X6.0295Y-4.3567
X6.1295Y-4.2567
X6.1295Y-4.3567
X6.2295Y-4.2567
X6.2295Y-4.3567
X6.0295Y-5.3567
X4.4295Y-5.8567
X6.1295Y-5.4567
X5.0295Y-5.0567
X4.9295Y-5.1567
X6.3295Y-5.4567
X5.0295Y-5.6567
X4.4295Y-5.3567
X4.9295Y-5.4567
X5.4295Y-5.6567
X5.0295Y-5.1567
X5.2295Y-5.2567
X5.5295Y-5.6567
X6.3295Y-5.1567
X6.0295Y-5.1567
X6.3295Y-5.0567
X5.3295Y-5.2567
X6.2295Y-5.6567
X4.9295Y-5.0567
X6.0295Y-5.4567
X5.9295Y-5.6567
X4.4295Y-5.5567
X4.2295Y-5.3567
X4.2295Y-5.5567
X6.2295Y-5.8567
X6.1295Y-5.0567
X6.4295Y-4.2567
X6.4295Y-4.3567
X6.4295Y-4.4567
X6.4295Y-4.5567
X4.6295Y-5.4567
X6.2295Y-5.1567
X5.3295Y-5.4567
X5.1295Y-5.0567
X4.2295Y-5.4567
X5.2295Y-5.1567
X5.3295Y-5.1567
X5.5295Y-5.2567
X5.9295Y-5.7567
X4.4295Y-5.1567
X4.6295Y-5.6567
X6.1295Y-5.2567
X6.1295Y-5.3567
X4.8295Y-5.7567
X5.2295Y-5.7567
X5.4295Y-5.8567
X6.0295Y-5.0567
X5.4295Y-5.1567
X5.1295Y-5.2567
X5.4295Y-5.7567
X5.4295Y-5.3567
X5.0295Y-5.5567
X5.0295Y-5.8567
X5.1295Y-5.6567
X4.9295Y-5.2567
X6.3295Y-5.5567
X5.6295Y-5.3567
X4.9295Y-5.5567
X5.9295Y-5.1567
X6.2295Y-5.4567
X6.3295Y-5.6567
X5.7295Y-4.4567
X5.7295Y-4.5567
X5.8295Y-4.4567
X5.8295Y-4.5567
X5.9295Y-4.4567
X5.9295Y-4.5567
X6.0295Y-4.4567
X6.0295Y-4.5567
X6.1295Y-4.4567
X6.1295Y-4.5567
X6.2295Y-4.4567
X6.2295Y-4.5567
X6.1295Y-5.8567
X5.5295Y-5.3567
X4.8295Y-5.6567
X6.1295Y-5.5567
X4.8295Y-5.1567
X6.1295Y-5.1567
X4.6295Y-5.0567
X5.5295Y-5.1567
X5.1295Y-5.5567
X4.3295Y-3.8567
X4.3295Y-3.9567
X4.4295Y-3.8567
X4.4295Y-3.9567
X4.5295Y-3.8567
X4.5295Y-3.9567
X4.6295Y-3.8567
X4.6295Y-3.9567
X4.7295Y-3.8567
X4.7295Y-3.9567
X4.8295Y-3.8567
X4.8295Y-3.9567
X4.9295Y-3.8567
X4.9295Y-3.9567
X5.0295Y-3.8567
X5.0295Y-3.9567
X5.1295Y-3.8567
X5.1295Y-3.9567
X5.2295Y-3.8567
X5.2295Y-3.9567
X5.3295Y-3.8567
X5.3295Y-3.9567
X5.4295Y-3.8567
X5.4295Y-3.9567
X5.5295Y-3.8567
X5.5295Y-3.9567
X5.6295Y-3.8567
X5.6295Y-3.9567
X5.7295Y-3.8567
X5.7295Y-3.9567
X5.8295Y-3.8567
X5.8295Y-3.9567
X5.9295Y-3.8567
X5.9295Y-3.9567
X6.0295Y-3.8567
X6.0295Y-3.9567
X6.1295Y-3.8567
X6.1295Y-3.9567
X6.2295Y-3.8567
X6.2295Y-3.9567
X5.0295Y-5.2567
X5.3295Y-5.3567
X6.4295Y-5.0567
X5.5295Y-5.5567
X5.6295Y-5.8567
X5.3295Y-5.8567
X5.4295Y-5.0567
X4.6295Y-5.5567
X4.6295Y-5.1567
X4.4295Y-5.6567
X4.8295Y-5.5567
X6.2295Y-5.7567
X5.0295Y-5.3567
X5.1295Y-5.7567
X4.1295Y-4.2567
X4.1295Y-4.3567
X4.1295Y-4.4567
X4.1295Y-4.5567
X5.9295Y-5.3567
X6.2295Y-5.3567
X5.4295Y-5.2567
X5.3295Y-5.6567
X6.3295Y-5.3567
X5.9295Y-5.5567
X5.5295Y-5.8567
X5.4295Y-5.4567
X4.6295Y-5.8567
X4.6295Y-5.3567
X5.5295Y-5.4567
X4.4295Y-5.2567
X5.6295Y-5.4567
X6.0295Y-5.8567
X5.6295Y-5.0567
X6.4295Y-5.2567
X4.8295Y-5.4567
X5.2295Y-5.5567
X5.1295Y-5.3567
T4
X4.9524Y-4.5508
X4.9524Y-4.8067
X5.1295Y-4.5508
X5.1295Y-4.8067
X4.6524Y-4.5508
X4.6524Y-4.8067
X4.8295Y-4.5508
X4.8295Y-4.8067
X4.3524Y-4.5508
X4.3524Y-4.8067
X4.5295Y-4.5508
X4.5295Y-4.8067
T0
M30
