G04 #@! TF.GenerationSoftware,KiCad,Pcbnew,5.0.1+dfsg1-3~bpo9+1*
G04 #@! TF.CreationDate,2018-12-04T00:42:53+01:00*
G04 #@! TF.ProjectId,wuhat,77756861742E6B696361645F70636200,rev?*
G04 #@! TF.SameCoordinates,Original*
G04 #@! TF.FileFunction,Copper,L2,Bot,Signal*
G04 #@! TF.FilePolarity,Positive*
%FSLAX46Y46*%
G04 Gerber Fmt 4.6, Leading zero omitted, Abs format (unit mm)*
G04 Created by KiCad (PCBNEW 5.0.1+dfsg1-3~bpo9+1) date Tue 04 Dec 2018 12:42:53 AM CET*
%MOMM*%
%LPD*%
G01*
G04 APERTURE LIST*
G04 #@! TA.AperFunction,ComponentPad*
%ADD10O,1.700000X1.700000*%
G04 #@! TD*
G04 #@! TA.AperFunction,ComponentPad*
%ADD11R,1.700000X1.700000*%
G04 #@! TD*
G04 #@! TA.AperFunction,ComponentPad*
%ADD12R,1.050000X1.500000*%
G04 #@! TD*
G04 #@! TA.AperFunction,ComponentPad*
%ADD13O,1.050000X1.500000*%
G04 #@! TD*
G04 #@! TA.AperFunction,ComponentPad*
%ADD14C,2.000000*%
G04 #@! TD*
G04 #@! TA.AperFunction,WasherPad*
%ADD15C,6.200000*%
G04 #@! TD*
G04 #@! TA.AperFunction,ViaPad*
%ADD16C,0.800000*%
G04 #@! TD*
G04 #@! TA.AperFunction,Conductor*
%ADD17C,0.400000*%
G04 #@! TD*
G04 #@! TA.AperFunction,Conductor*
%ADD18C,0.250000*%
G04 #@! TD*
G04 #@! TA.AperFunction,Conductor*
%ADD19C,0.254000*%
G04 #@! TD*
G04 APERTURE END LIST*
D10*
G04 #@! TO.P,J1,40*
G04 #@! TO.N,/GPIO21*
X158230000Y-97960000D03*
G04 #@! TO.P,J1,39*
G04 #@! TO.N,GND*
X158230000Y-100500000D03*
G04 #@! TO.P,J1,38*
G04 #@! TO.N,/GPIO20*
X155690000Y-97960000D03*
G04 #@! TO.P,J1,37*
G04 #@! TO.N,/GPIO26*
X155690000Y-100500000D03*
G04 #@! TO.P,J1,36*
G04 #@! TO.N,/GPIO16*
X153150000Y-97960000D03*
G04 #@! TO.P,J1,35*
G04 #@! TO.N,/GPIO19*
X153150000Y-100500000D03*
G04 #@! TO.P,J1,34*
G04 #@! TO.N,GND*
X150610000Y-97960000D03*
G04 #@! TO.P,J1,33*
G04 #@! TO.N,/GPIO13*
X150610000Y-100500000D03*
G04 #@! TO.P,J1,32*
G04 #@! TO.N,N/C*
X148070000Y-97960000D03*
G04 #@! TO.P,J1,31*
X148070000Y-100500000D03*
G04 #@! TO.P,J1,30*
G04 #@! TO.N,GND*
X145530000Y-97960000D03*
G04 #@! TO.P,J1,29*
G04 #@! TO.N,N/C*
X145530000Y-100500000D03*
G04 #@! TO.P,J1,28*
G04 #@! TO.N,/ID_SC*
X142990000Y-97960000D03*
G04 #@! TO.P,J1,27*
G04 #@! TO.N,/ID_SD*
X142990000Y-100500000D03*
G04 #@! TO.P,J1,26*
G04 #@! TO.N,N/C*
X140450000Y-97960000D03*
G04 #@! TO.P,J1,25*
G04 #@! TO.N,GND*
X140450000Y-100500000D03*
G04 #@! TO.P,J1,24*
G04 #@! TO.N,/CE0_N*
X137910000Y-97960000D03*
G04 #@! TO.P,J1,23*
G04 #@! TO.N,/SCLK0*
X137910000Y-100500000D03*
G04 #@! TO.P,J1,22*
G04 #@! TO.N,/GPIO25*
X135370000Y-97960000D03*
G04 #@! TO.P,J1,21*
G04 #@! TO.N,/MISO0*
X135370000Y-100500000D03*
G04 #@! TO.P,J1,20*
G04 #@! TO.N,GND*
X132830000Y-97960000D03*
G04 #@! TO.P,J1,19*
G04 #@! TO.N,/MOSI0*
X132830000Y-100500000D03*
G04 #@! TO.P,J1,18*
G04 #@! TO.N,/GPIO24*
X130290000Y-97960000D03*
G04 #@! TO.P,J1,17*
G04 #@! TO.N,+3V3*
X130290000Y-100500000D03*
G04 #@! TO.P,J1,16*
G04 #@! TO.N,/GPIO23*
X127750000Y-97960000D03*
G04 #@! TO.P,J1,15*
G04 #@! TO.N,/GPIO22*
X127750000Y-100500000D03*
G04 #@! TO.P,J1,14*
G04 #@! TO.N,GND*
X125210000Y-97960000D03*
G04 #@! TO.P,J1,13*
G04 #@! TO.N,/GPIO27*
X125210000Y-100500000D03*
G04 #@! TO.P,J1,12*
G04 #@! TO.N,/GPIO18*
X122670000Y-97960000D03*
G04 #@! TO.P,J1,11*
G04 #@! TO.N,/GPIO17*
X122670000Y-100500000D03*
G04 #@! TO.P,J1,10*
G04 #@! TO.N,N/C*
X120130000Y-97960000D03*
G04 #@! TO.P,J1,9*
G04 #@! TO.N,GND*
X120130000Y-100500000D03*
G04 #@! TO.P,J1,8*
G04 #@! TO.N,N/C*
X117590000Y-97960000D03*
G04 #@! TO.P,J1,7*
G04 #@! TO.N,/GPIO4_1WIRE*
X117590000Y-100500000D03*
G04 #@! TO.P,J1,6*
G04 #@! TO.N,GND*
X115050000Y-97960000D03*
G04 #@! TO.P,J1,5*
G04 #@! TO.N,/SCL*
X115050000Y-100500000D03*
G04 #@! TO.P,J1,4*
G04 #@! TO.N,+5V*
X112510000Y-97960000D03*
G04 #@! TO.P,J1,3*
G04 #@! TO.N,/SDA*
X112510000Y-100500000D03*
G04 #@! TO.P,J1,2*
G04 #@! TO.N,+5V*
X109970000Y-97960000D03*
D11*
G04 #@! TO.P,J1,1*
G04 #@! TO.N,+3V3*
X109970000Y-100500000D03*
G04 #@! TD*
G04 #@! TO.P,JGPIOA1,1*
G04 #@! TO.N,+5V*
X158230000Y-113200000D03*
D10*
G04 #@! TO.P,JGPIOA1,2*
G04 #@! TO.N,GND*
X158230000Y-115740000D03*
G04 #@! TO.P,JGPIOA1,3*
G04 #@! TO.N,+5V*
X155690000Y-113200000D03*
G04 #@! TO.P,JGPIOA1,4*
G04 #@! TO.N,GND*
X155690000Y-115740000D03*
G04 #@! TO.P,JGPIOA1,5*
G04 #@! TO.N,+5V*
X153150000Y-113200000D03*
G04 #@! TO.P,JGPIOA1,6*
G04 #@! TO.N,GND*
X153150000Y-115740000D03*
G04 #@! TO.P,JGPIOA1,7*
G04 #@! TO.N,+5V*
X150610000Y-113200000D03*
G04 #@! TO.P,JGPIOA1,8*
G04 #@! TO.N,GND*
X150610000Y-115740000D03*
G04 #@! TO.P,JGPIOA1,9*
G04 #@! TO.N,+5V*
X148070000Y-113200000D03*
G04 #@! TO.P,JGPIOA1,10*
G04 #@! TO.N,GND*
X148070000Y-115740000D03*
G04 #@! TO.P,JGPIOA1,11*
G04 #@! TO.N,+5V*
X145530000Y-113200000D03*
G04 #@! TO.P,JGPIOA1,12*
G04 #@! TO.N,GND*
X145530000Y-115740000D03*
G04 #@! TD*
G04 #@! TO.P,JGPIOB1,12*
G04 #@! TO.N,/_GPIO13*
X145530000Y-110660000D03*
G04 #@! TO.P,JGPIOB1,11*
G04 #@! TO.N,+3V3*
X145530000Y-108120000D03*
G04 #@! TO.P,JGPIOB1,10*
G04 #@! TO.N,/_GPIO16*
X148070000Y-110660000D03*
G04 #@! TO.P,JGPIOB1,9*
G04 #@! TO.N,+3V3*
X148070000Y-108120000D03*
G04 #@! TO.P,JGPIOB1,8*
G04 #@! TO.N,/_GPIO19*
X150610000Y-110660000D03*
G04 #@! TO.P,JGPIOB1,7*
G04 #@! TO.N,+3V3*
X150610000Y-108120000D03*
G04 #@! TO.P,JGPIOB1,6*
G04 #@! TO.N,/_GPIO20*
X153150000Y-110660000D03*
G04 #@! TO.P,JGPIOB1,5*
G04 #@! TO.N,+3V3*
X153150000Y-108120000D03*
G04 #@! TO.P,JGPIOB1,4*
G04 #@! TO.N,/_GPIO21*
X155690000Y-110660000D03*
G04 #@! TO.P,JGPIOB1,3*
G04 #@! TO.N,+3V3*
X155690000Y-108120000D03*
G04 #@! TO.P,JGPIOB1,2*
G04 #@! TO.N,/_GIPO26*
X158230000Y-110660000D03*
D11*
G04 #@! TO.P,JGPIOB1,1*
G04 #@! TO.N,+3V3*
X158230000Y-108120000D03*
G04 #@! TD*
G04 #@! TO.P,I2C1,1*
G04 #@! TO.N,+3V3*
X104890000Y-108120000D03*
D10*
G04 #@! TO.P,I2C1,2*
G04 #@! TO.N,/SDA*
X104890000Y-110660000D03*
G04 #@! TO.P,I2C1,3*
G04 #@! TO.N,/SCL*
X104890000Y-113200000D03*
G04 #@! TO.P,I2C1,4*
G04 #@! TO.N,GND*
X104890000Y-115740000D03*
G04 #@! TD*
D11*
G04 #@! TO.P,AI1,1*
G04 #@! TO.N,/CH0*
X163310000Y-115740000D03*
D10*
G04 #@! TO.P,AI1,2*
G04 #@! TO.N,GND*
X163310000Y-113200000D03*
G04 #@! TO.P,AI1,3*
G04 #@! TO.N,/CH1*
X163310000Y-110660000D03*
G04 #@! TO.P,AI1,4*
G04 #@! TO.N,GND*
X163310000Y-108120000D03*
G04 #@! TD*
D12*
G04 #@! TO.P,DS1820,1*
G04 #@! TO.N,GND*
X115685000Y-106850000D03*
D13*
G04 #@! TO.P,DS1820,3*
G04 #@! TO.N,+3V3*
X113145000Y-106850000D03*
G04 #@! TO.P,DS1820,2*
G04 #@! TO.N,/GPIO4_1WIRE*
X114415000Y-106850000D03*
G04 #@! TD*
D14*
G04 #@! TO.P,GPIO17,2*
G04 #@! TO.N,Net-(GPIO17-Pad2)*
X115050000Y-122090000D03*
G04 #@! TO.P,GPIO17,1*
G04 #@! TO.N,GND*
X110550000Y-122090000D03*
G04 #@! TO.P,GPIO17,2*
G04 #@! TO.N,Net-(GPIO17-Pad2)*
X115050000Y-115590000D03*
G04 #@! TO.P,GPIO17,1*
G04 #@! TO.N,GND*
X110550000Y-115590000D03*
G04 #@! TD*
G04 #@! TO.P,GPIO22,1*
G04 #@! TO.N,GND*
X125790000Y-115590000D03*
G04 #@! TO.P,GPIO22,2*
G04 #@! TO.N,Net-(GPIO22-Pad2)*
X130290000Y-115590000D03*
G04 #@! TO.P,GPIO22,1*
G04 #@! TO.N,GND*
X125790000Y-122090000D03*
G04 #@! TO.P,GPIO22,2*
G04 #@! TO.N,Net-(GPIO22-Pad2)*
X130290000Y-122090000D03*
G04 #@! TD*
G04 #@! TO.P,GPIO27,2*
G04 #@! TO.N,Net-(GPIO27-Pad2)*
X122670000Y-122090000D03*
G04 #@! TO.P,GPIO27,1*
G04 #@! TO.N,GND*
X118170000Y-122090000D03*
G04 #@! TO.P,GPIO27,2*
G04 #@! TO.N,Net-(GPIO27-Pad2)*
X122670000Y-115590000D03*
G04 #@! TO.P,GPIO27,1*
G04 #@! TO.N,GND*
X118170000Y-115590000D03*
G04 #@! TD*
D11*
G04 #@! TO.P,1W1,1*
G04 #@! TO.N,+3V3*
X112510000Y-103040000D03*
D10*
G04 #@! TO.P,1W1,2*
G04 #@! TO.N,/GPIO4_1WIRE*
X115050000Y-103040000D03*
G04 #@! TO.P,1W1,3*
G04 #@! TO.N,GND*
X117590000Y-103040000D03*
G04 #@! TD*
D15*
G04 #@! TO.P,REF\002A\002A,*
G04 #@! TO.N,*
X163100000Y-99230000D03*
G04 #@! TD*
G04 #@! TO.P,REF\002A\002A,*
G04 #@! TO.N,*
X163100000Y-122230000D03*
G04 #@! TD*
G04 #@! TO.P,REF\002A\002A,*
G04 #@! TO.N,*
X105100000Y-122230000D03*
G04 #@! TD*
G04 #@! TO.P,REF\002A\002A,*
G04 #@! TO.N,*
X105100000Y-99230000D03*
G04 #@! TD*
D16*
G04 #@! TO.N,GND*
X143510000Y-118745000D03*
X118860000Y-111004990D03*
X126100000Y-111730000D03*
X123100000Y-111930000D03*
X141720000Y-108755000D03*
X142355000Y-118280000D03*
X133465000Y-118915000D03*
X133465000Y-117645000D03*
X141085000Y-118280000D03*
X129508722Y-111705533D03*
X143510000Y-121285000D03*
X107176000Y-104056000D03*
X104128000Y-103294000D03*
X106287000Y-104945000D03*
X103239000Y-104056000D03*
X108573000Y-113073000D03*
X102604000Y-117137000D03*
X112256000Y-109263000D03*
X111367000Y-112057000D03*
X116447000Y-113200000D03*
X135624000Y-104818000D03*
X146800000Y-104310000D03*
X149340000Y-104310000D03*
X151880000Y-104310000D03*
X154420000Y-104310000D03*
X156960000Y-104310000D03*
X159500000Y-104310000D03*
X163437000Y-118153000D03*
X159119000Y-122344000D03*
X157691000Y-121074000D03*
X142863000Y-108755000D03*
X136830500Y-115105000D03*
G04 #@! TO.N,+3V3*
X133592000Y-104818000D03*
X130544000Y-104818000D03*
G04 #@! TO.N,/CE0_N*
X132830000Y-116375000D03*
X137402004Y-116375000D03*
G04 #@! TO.N,/SDA*
X110074072Y-102889074D03*
G04 #@! TD*
D17*
G04 #@! TO.N,GND*
X125790000Y-113145000D02*
X124575000Y-111930000D01*
X125790000Y-115590000D02*
X125790000Y-113145000D01*
X116769999Y-116990001D02*
X118170000Y-115590000D01*
X111950001Y-116990001D02*
X116769999Y-116990001D01*
X110550000Y-115590000D02*
X111950001Y-116990001D01*
X124389999Y-116990001D02*
X125790000Y-115590000D01*
X119570001Y-116990001D02*
X124389999Y-116990001D01*
X118170000Y-115590000D02*
X119570001Y-116990001D01*
X159079999Y-114890001D02*
X158230000Y-115740000D01*
X162059999Y-111910001D02*
X159079999Y-114890001D01*
X162059999Y-109370001D02*
X162059999Y-111910001D01*
X163310000Y-108120000D02*
X162059999Y-109370001D01*
X151459999Y-98809999D02*
X150610000Y-97960000D01*
X151899999Y-99249999D02*
X151459999Y-98809999D01*
X156979999Y-99249999D02*
X151899999Y-99249999D01*
X158230000Y-100500000D02*
X156979999Y-99249999D01*
X141299999Y-99650001D02*
X140450000Y-100500000D01*
X141739999Y-99210001D02*
X141299999Y-99650001D01*
X144279999Y-99210001D02*
X141739999Y-99210001D01*
X144279999Y-99210001D02*
X144680001Y-98809999D01*
X144279999Y-114489999D02*
X144279999Y-99210001D01*
X144680001Y-98809999D02*
X145530000Y-97960000D01*
X145530000Y-115740000D02*
X144279999Y-114489999D01*
X124360001Y-98809999D02*
X125210000Y-97960000D01*
X123920001Y-99249999D02*
X124360001Y-98809999D01*
X121380001Y-99249999D02*
X123920001Y-99249999D01*
X120130000Y-100500000D02*
X121380001Y-99249999D01*
X119785010Y-111930000D02*
X119259999Y-111404989D01*
X119259999Y-111404989D02*
X118860000Y-111004990D01*
X124775000Y-111730000D02*
X124575000Y-111930000D01*
X126100000Y-111730000D02*
X124775000Y-111730000D01*
X124575000Y-111930000D02*
X123100000Y-111930000D01*
X123100000Y-111930000D02*
X119785010Y-111930000D01*
X144279999Y-114489999D02*
X144279999Y-113869668D01*
X141720000Y-111309669D02*
X142340331Y-111930000D01*
X141720000Y-108755000D02*
X141720000Y-111309669D01*
X142340331Y-111930000D02*
X141845321Y-111434990D01*
X144279999Y-113869668D02*
X142340331Y-111930000D01*
X141720000Y-118915000D02*
X133465000Y-118915000D01*
X142355000Y-118280000D02*
X141720000Y-118915000D01*
X140450000Y-117645000D02*
X141085000Y-118280000D01*
X133465000Y-117645000D02*
X140450000Y-117645000D01*
X129484255Y-111730000D02*
X129508722Y-111705533D01*
X126100000Y-111730000D02*
X129484255Y-111730000D01*
X143510000Y-121285000D02*
X143510000Y-118745000D01*
X146780001Y-96709999D02*
X146379999Y-97110001D01*
X146379999Y-97110001D02*
X145530000Y-97960000D01*
X149359999Y-96709999D02*
X146780001Y-96709999D01*
X150610000Y-97960000D02*
X149359999Y-96709999D01*
X133679999Y-97110001D02*
X132830000Y-97960000D01*
X134080001Y-96709999D02*
X133679999Y-97110001D01*
X135970001Y-96709999D02*
X134080001Y-96709999D01*
X136620001Y-97359999D02*
X135970001Y-96709999D01*
X136620001Y-98520003D02*
X136620001Y-97359999D01*
X137309999Y-99210001D02*
X136620001Y-98520003D01*
X139160001Y-99210001D02*
X137309999Y-99210001D01*
X140450000Y-100500000D02*
X139160001Y-99210001D01*
X126460001Y-96709999D02*
X126059999Y-97110001D01*
X126059999Y-97110001D02*
X125210000Y-97960000D01*
X131579999Y-96709999D02*
X126460001Y-96709999D01*
X132830000Y-97960000D02*
X131579999Y-96709999D01*
X115899999Y-97110001D02*
X115050000Y-97960000D01*
X116300001Y-96709999D02*
X115899999Y-97110001D01*
X118190001Y-96709999D02*
X116300001Y-96709999D01*
X118879999Y-97399997D02*
X118190001Y-96709999D01*
X118879999Y-99249999D02*
X118879999Y-97399997D01*
X120130000Y-100500000D02*
X118879999Y-99249999D01*
X117590000Y-103040000D02*
X120130000Y-100500000D01*
G04 #@! TO.N,+3V3*
X133592000Y-104818000D02*
X130544000Y-104818000D01*
G04 #@! TO.N,+5V*
X112510000Y-97960000D02*
X109970000Y-97960000D01*
X104600000Y-117230000D02*
X108100000Y-117230000D01*
X163379999Y-114450001D02*
X163910001Y-114450001D01*
X162709999Y-106869999D02*
X159480001Y-110099997D01*
X109970000Y-97960000D02*
X109970000Y-99249999D01*
X103639999Y-116269999D02*
X104600000Y-117230000D01*
X108719999Y-100610001D02*
X107306000Y-102024000D01*
X108799999Y-99249999D02*
X108719999Y-99329999D01*
X109970000Y-99249999D02*
X108799999Y-99249999D01*
X163340001Y-114489999D02*
X163379999Y-114450001D01*
X108719999Y-99329999D02*
X108719999Y-100610001D01*
X153005000Y-123825000D02*
X162059999Y-114770001D01*
X162059999Y-114770001D02*
X162059999Y-114569999D01*
X159480000Y-113200000D02*
X158230000Y-113200000D01*
X159480001Y-110099997D02*
X159480000Y-113200000D01*
X103639999Y-105690001D02*
X103639999Y-116269999D01*
X162139999Y-114489999D02*
X163340001Y-114489999D01*
X164560001Y-107519999D02*
X163910001Y-106869999D01*
X108100000Y-117230000D02*
X114695000Y-123825000D01*
X163910001Y-106869999D02*
X162709999Y-106869999D01*
X114695000Y-123825000D02*
X153005000Y-123825000D01*
X162059999Y-114569999D02*
X162139999Y-114489999D01*
X163910001Y-114450001D02*
X164560001Y-113800001D01*
X164560001Y-113800001D02*
X164560001Y-107519999D01*
X107306000Y-102024000D02*
X103639999Y-105690001D01*
D18*
G04 #@! TO.N,/CE0_N*
X132830000Y-116375000D02*
X133395685Y-116375000D01*
X133395685Y-116375000D02*
X137402004Y-116375000D01*
G04 #@! TO.N,/SDA*
X110120926Y-102889074D02*
X110074072Y-102889074D01*
X112510000Y-100500000D02*
X110120926Y-102889074D01*
G04 #@! TD*
D19*
G04 #@! TO.N,GND*
G36*
X161158760Y-96324730D02*
X160194730Y-97288760D01*
X159673000Y-98548327D01*
X159673000Y-99911673D01*
X160194730Y-101171240D01*
X161158760Y-102135270D01*
X162418327Y-102657000D01*
X163781673Y-102657000D01*
X165041240Y-102135270D01*
X166005270Y-101171240D01*
X166272501Y-100526088D01*
X166272500Y-120933910D01*
X166005270Y-120288760D01*
X165041240Y-119324730D01*
X163781673Y-118803000D01*
X162418327Y-118803000D01*
X161158760Y-119324730D01*
X160194730Y-120288760D01*
X159673000Y-121548327D01*
X159673000Y-122911673D01*
X160194730Y-124171240D01*
X161158760Y-125135270D01*
X161803910Y-125402500D01*
X106396090Y-125402500D01*
X107041240Y-125135270D01*
X108005270Y-124171240D01*
X108389953Y-123242532D01*
X109577073Y-123242532D01*
X109675736Y-123509387D01*
X110285461Y-123735908D01*
X110935460Y-123711856D01*
X111424264Y-123509387D01*
X111522927Y-123242532D01*
X110550000Y-122269605D01*
X109577073Y-123242532D01*
X108389953Y-123242532D01*
X108527000Y-122911673D01*
X108527000Y-121825461D01*
X108904092Y-121825461D01*
X108928144Y-122475460D01*
X109130613Y-122964264D01*
X109397468Y-123062927D01*
X110370395Y-122090000D01*
X109397468Y-121117073D01*
X109130613Y-121215736D01*
X108904092Y-121825461D01*
X108527000Y-121825461D01*
X108527000Y-121548327D01*
X108005270Y-120288760D01*
X107041240Y-119324730D01*
X105781673Y-118803000D01*
X104418327Y-118803000D01*
X103158760Y-119324730D01*
X102194730Y-120288760D01*
X101927500Y-120933910D01*
X101927500Y-100526090D01*
X102194730Y-101171240D01*
X103158760Y-102135270D01*
X104418327Y-102657000D01*
X105781673Y-102657000D01*
X106030973Y-102553737D01*
X103304054Y-105280656D01*
X103260054Y-105310056D01*
X103143576Y-105484377D01*
X103112999Y-105638099D01*
X103112999Y-105638103D01*
X103102676Y-105690001D01*
X103112999Y-105741899D01*
X103113000Y-116218096D01*
X103102676Y-116269999D01*
X103143577Y-116475624D01*
X103230653Y-116605943D01*
X103230657Y-116605947D01*
X103260055Y-116649944D01*
X103304052Y-116679342D01*
X104190654Y-117565944D01*
X104220055Y-117609945D01*
X104394375Y-117726423D01*
X104548097Y-117757000D01*
X104548101Y-117757000D01*
X104599999Y-117767323D01*
X104651897Y-117757000D01*
X107881710Y-117757000D01*
X110577571Y-120452861D01*
X110164540Y-120468144D01*
X109675736Y-120670613D01*
X109577073Y-120937468D01*
X110550000Y-121910395D01*
X110564143Y-121896253D01*
X110743748Y-122075858D01*
X110729605Y-122090000D01*
X111702532Y-123062927D01*
X111969387Y-122964264D01*
X112195908Y-122354539D01*
X112185021Y-122060311D01*
X114285655Y-124160945D01*
X114315055Y-124204945D01*
X114489375Y-124321423D01*
X114643097Y-124352000D01*
X114643101Y-124352000D01*
X114694999Y-124362323D01*
X114746897Y-124352000D01*
X152953102Y-124352000D01*
X153005000Y-124362323D01*
X153056898Y-124352000D01*
X153056903Y-124352000D01*
X153210625Y-124321423D01*
X153384945Y-124204945D01*
X153414345Y-124160945D01*
X162126594Y-115448696D01*
X162126594Y-116590000D01*
X162151973Y-116717589D01*
X162224246Y-116825754D01*
X162332411Y-116898027D01*
X162460000Y-116923406D01*
X164160000Y-116923406D01*
X164287589Y-116898027D01*
X164395754Y-116825754D01*
X164468027Y-116717589D01*
X164493406Y-116590000D01*
X164493406Y-114890000D01*
X164468027Y-114762411D01*
X164417901Y-114687391D01*
X164895949Y-114209344D01*
X164939946Y-114179946D01*
X164969344Y-114135949D01*
X164969347Y-114135946D01*
X165056424Y-114005627D01*
X165074912Y-113912678D01*
X165087001Y-113851904D01*
X165087001Y-113851900D01*
X165097324Y-113800001D01*
X165087001Y-113748102D01*
X165087001Y-107571898D01*
X165097324Y-107519999D01*
X165087001Y-107468100D01*
X165087001Y-107468096D01*
X165056424Y-107314374D01*
X165056424Y-107314373D01*
X164969347Y-107184054D01*
X164969344Y-107184051D01*
X164939946Y-107140054D01*
X164895948Y-107110655D01*
X164319346Y-106534054D01*
X164289946Y-106490054D01*
X164115626Y-106373576D01*
X163961904Y-106342999D01*
X163961899Y-106342999D01*
X163910001Y-106332676D01*
X163858103Y-106342999D01*
X162761897Y-106342999D01*
X162709999Y-106332676D01*
X162658101Y-106342999D01*
X162658096Y-106342999D01*
X162504374Y-106373576D01*
X162504372Y-106373577D01*
X162504373Y-106373577D01*
X162374054Y-106460653D01*
X162374051Y-106460656D01*
X162330054Y-106490054D01*
X162300656Y-106534051D01*
X159144054Y-109690654D01*
X159100057Y-109720052D01*
X159070659Y-109764049D01*
X159070655Y-109764053D01*
X159051212Y-109793152D01*
X158689242Y-109551291D01*
X158345920Y-109483000D01*
X158114080Y-109483000D01*
X157770758Y-109551291D01*
X157381431Y-109811431D01*
X157121291Y-110200758D01*
X157029942Y-110660000D01*
X157121291Y-111119242D01*
X157381431Y-111508569D01*
X157770758Y-111768709D01*
X158114080Y-111837000D01*
X158345920Y-111837000D01*
X158689242Y-111768709D01*
X158953001Y-111592471D01*
X158953001Y-112016594D01*
X157380000Y-112016594D01*
X157252411Y-112041973D01*
X157144246Y-112114246D01*
X157071973Y-112222411D01*
X157046594Y-112350000D01*
X157046594Y-114050000D01*
X157071973Y-114177589D01*
X157144246Y-114285754D01*
X157252411Y-114358027D01*
X157380000Y-114383406D01*
X157668174Y-114383406D01*
X157463076Y-114468355D01*
X157034817Y-114858642D01*
X156960000Y-115017954D01*
X156885183Y-114858642D01*
X156456924Y-114468355D01*
X156096709Y-114319158D01*
X156149242Y-114308709D01*
X156538569Y-114048569D01*
X156798709Y-113659242D01*
X156890058Y-113200000D01*
X156798709Y-112740758D01*
X156538569Y-112351431D01*
X156149242Y-112091291D01*
X155805920Y-112023000D01*
X155574080Y-112023000D01*
X155230758Y-112091291D01*
X154841431Y-112351431D01*
X154581291Y-112740758D01*
X154489942Y-113200000D01*
X154581291Y-113659242D01*
X154841431Y-114048569D01*
X155230758Y-114308709D01*
X155283291Y-114319158D01*
X154923076Y-114468355D01*
X154494817Y-114858642D01*
X154420000Y-115017954D01*
X154345183Y-114858642D01*
X153916924Y-114468355D01*
X153556709Y-114319158D01*
X153609242Y-114308709D01*
X153998569Y-114048569D01*
X154258709Y-113659242D01*
X154350058Y-113200000D01*
X154258709Y-112740758D01*
X153998569Y-112351431D01*
X153609242Y-112091291D01*
X153265920Y-112023000D01*
X153034080Y-112023000D01*
X152690758Y-112091291D01*
X152301431Y-112351431D01*
X152041291Y-112740758D01*
X151949942Y-113200000D01*
X152041291Y-113659242D01*
X152301431Y-114048569D01*
X152690758Y-114308709D01*
X152743291Y-114319158D01*
X152383076Y-114468355D01*
X151954817Y-114858642D01*
X151880000Y-115017954D01*
X151805183Y-114858642D01*
X151376924Y-114468355D01*
X151016709Y-114319158D01*
X151069242Y-114308709D01*
X151458569Y-114048569D01*
X151718709Y-113659242D01*
X151810058Y-113200000D01*
X151718709Y-112740758D01*
X151458569Y-112351431D01*
X151069242Y-112091291D01*
X150725920Y-112023000D01*
X150494080Y-112023000D01*
X150150758Y-112091291D01*
X149761431Y-112351431D01*
X149501291Y-112740758D01*
X149409942Y-113200000D01*
X149501291Y-113659242D01*
X149761431Y-114048569D01*
X150150758Y-114308709D01*
X150203291Y-114319158D01*
X149843076Y-114468355D01*
X149414817Y-114858642D01*
X149340000Y-115017954D01*
X149265183Y-114858642D01*
X148836924Y-114468355D01*
X148476709Y-114319158D01*
X148529242Y-114308709D01*
X148918569Y-114048569D01*
X149178709Y-113659242D01*
X149270058Y-113200000D01*
X149178709Y-112740758D01*
X148918569Y-112351431D01*
X148529242Y-112091291D01*
X148185920Y-112023000D01*
X147954080Y-112023000D01*
X147610758Y-112091291D01*
X147221431Y-112351431D01*
X146961291Y-112740758D01*
X146869942Y-113200000D01*
X146961291Y-113659242D01*
X147221431Y-114048569D01*
X147610758Y-114308709D01*
X147663291Y-114319158D01*
X147303076Y-114468355D01*
X146874817Y-114858642D01*
X146800000Y-115017954D01*
X146725183Y-114858642D01*
X146296924Y-114468355D01*
X145936709Y-114319158D01*
X145989242Y-114308709D01*
X146378569Y-114048569D01*
X146638709Y-113659242D01*
X146730058Y-113200000D01*
X146638709Y-112740758D01*
X146378569Y-112351431D01*
X145989242Y-112091291D01*
X145645920Y-112023000D01*
X145414080Y-112023000D01*
X145070758Y-112091291D01*
X144681431Y-112351431D01*
X144421291Y-112740758D01*
X144329942Y-113200000D01*
X144421291Y-113659242D01*
X144681431Y-114048569D01*
X145070758Y-114308709D01*
X145123291Y-114319158D01*
X144763076Y-114468355D01*
X144334817Y-114858642D01*
X144088514Y-115383108D01*
X144209181Y-115613000D01*
X145403000Y-115613000D01*
X145403000Y-115593000D01*
X145657000Y-115593000D01*
X145657000Y-115613000D01*
X147943000Y-115613000D01*
X147943000Y-115593000D01*
X148197000Y-115593000D01*
X148197000Y-115613000D01*
X150483000Y-115613000D01*
X150483000Y-115593000D01*
X150737000Y-115593000D01*
X150737000Y-115613000D01*
X153023000Y-115613000D01*
X153023000Y-115593000D01*
X153277000Y-115593000D01*
X153277000Y-115613000D01*
X155563000Y-115613000D01*
X155563000Y-115593000D01*
X155817000Y-115593000D01*
X155817000Y-115613000D01*
X158103000Y-115613000D01*
X158103000Y-115593000D01*
X158357000Y-115593000D01*
X158357000Y-115613000D01*
X159550819Y-115613000D01*
X159671486Y-115383108D01*
X159425183Y-114858642D01*
X158996924Y-114468355D01*
X158791826Y-114383406D01*
X159080000Y-114383406D01*
X159207589Y-114358027D01*
X159315754Y-114285754D01*
X159388027Y-114177589D01*
X159413406Y-114050000D01*
X159413406Y-113727000D01*
X159428102Y-113727000D01*
X159480000Y-113737323D01*
X159531899Y-113727000D01*
X159531903Y-113727000D01*
X159685625Y-113696423D01*
X159859945Y-113579945D01*
X159976423Y-113405625D01*
X160017324Y-113200000D01*
X160006999Y-113148093D01*
X160007001Y-110318287D01*
X161891013Y-108434275D01*
X161868524Y-108476890D01*
X162038355Y-108886924D01*
X162428642Y-109315183D01*
X162907406Y-109540023D01*
X162850758Y-109551291D01*
X162461431Y-109811431D01*
X162201291Y-110200758D01*
X162109942Y-110660000D01*
X162201291Y-111119242D01*
X162461431Y-111508569D01*
X162850758Y-111768709D01*
X162907406Y-111779977D01*
X162428642Y-112004817D01*
X162038355Y-112433076D01*
X161868524Y-112843110D01*
X161989845Y-113073000D01*
X163183000Y-113073000D01*
X163183000Y-113053000D01*
X163437000Y-113053000D01*
X163437000Y-113073000D01*
X163457000Y-113073000D01*
X163457000Y-113327000D01*
X163437000Y-113327000D01*
X163437000Y-113347000D01*
X163183000Y-113347000D01*
X163183000Y-113327000D01*
X161989845Y-113327000D01*
X161868524Y-113556890D01*
X162038355Y-113966924D01*
X162042960Y-113971977D01*
X161934374Y-113993576D01*
X161760054Y-114110054D01*
X161730654Y-114154054D01*
X161724052Y-114160656D01*
X161680055Y-114190054D01*
X161650656Y-114234052D01*
X161650653Y-114234055D01*
X161631313Y-114263000D01*
X161563576Y-114364374D01*
X161532999Y-114518096D01*
X161532999Y-114518101D01*
X161524654Y-114560056D01*
X152786710Y-123298000D01*
X130841248Y-123298000D01*
X131041685Y-123214976D01*
X131414976Y-122841685D01*
X131617000Y-122353957D01*
X131617000Y-121826043D01*
X131414976Y-121338315D01*
X131041685Y-120965024D01*
X130553957Y-120763000D01*
X130026043Y-120763000D01*
X129538315Y-120965024D01*
X129165024Y-121338315D01*
X128963000Y-121826043D01*
X128963000Y-122353957D01*
X129165024Y-122841685D01*
X129538315Y-123214976D01*
X129738752Y-123298000D01*
X126742419Y-123298000D01*
X126762927Y-123242532D01*
X125790000Y-122269605D01*
X124817073Y-123242532D01*
X124837581Y-123298000D01*
X123221248Y-123298000D01*
X123421685Y-123214976D01*
X123794976Y-122841685D01*
X123997000Y-122353957D01*
X123997000Y-121826043D01*
X123996759Y-121825461D01*
X124144092Y-121825461D01*
X124168144Y-122475460D01*
X124370613Y-122964264D01*
X124637468Y-123062927D01*
X125610395Y-122090000D01*
X125969605Y-122090000D01*
X126942532Y-123062927D01*
X127209387Y-122964264D01*
X127435908Y-122354539D01*
X127411856Y-121704540D01*
X127209387Y-121215736D01*
X126942532Y-121117073D01*
X125969605Y-122090000D01*
X125610395Y-122090000D01*
X124637468Y-121117073D01*
X124370613Y-121215736D01*
X124144092Y-121825461D01*
X123996759Y-121825461D01*
X123794976Y-121338315D01*
X123421685Y-120965024D01*
X123355160Y-120937468D01*
X124817073Y-120937468D01*
X125790000Y-121910395D01*
X126762927Y-120937468D01*
X126664264Y-120670613D01*
X126054539Y-120444092D01*
X125404540Y-120468144D01*
X124915736Y-120670613D01*
X124817073Y-120937468D01*
X123355160Y-120937468D01*
X122933957Y-120763000D01*
X122406043Y-120763000D01*
X121918315Y-120965024D01*
X121545024Y-121338315D01*
X121343000Y-121826043D01*
X121343000Y-122353957D01*
X121545024Y-122841685D01*
X121918315Y-123214976D01*
X122118752Y-123298000D01*
X119122419Y-123298000D01*
X119142927Y-123242532D01*
X118170000Y-122269605D01*
X117197073Y-123242532D01*
X117217581Y-123298000D01*
X115601248Y-123298000D01*
X115801685Y-123214976D01*
X116174976Y-122841685D01*
X116377000Y-122353957D01*
X116377000Y-121826043D01*
X116376759Y-121825461D01*
X116524092Y-121825461D01*
X116548144Y-122475460D01*
X116750613Y-122964264D01*
X117017468Y-123062927D01*
X117990395Y-122090000D01*
X118349605Y-122090000D01*
X119322532Y-123062927D01*
X119589387Y-122964264D01*
X119815908Y-122354539D01*
X119791856Y-121704540D01*
X119589387Y-121215736D01*
X119322532Y-121117073D01*
X118349605Y-122090000D01*
X117990395Y-122090000D01*
X117017468Y-121117073D01*
X116750613Y-121215736D01*
X116524092Y-121825461D01*
X116376759Y-121825461D01*
X116174976Y-121338315D01*
X115801685Y-120965024D01*
X115735160Y-120937468D01*
X117197073Y-120937468D01*
X118170000Y-121910395D01*
X119142927Y-120937468D01*
X119044264Y-120670613D01*
X118434539Y-120444092D01*
X117784540Y-120468144D01*
X117295736Y-120670613D01*
X117197073Y-120937468D01*
X115735160Y-120937468D01*
X115313957Y-120763000D01*
X114786043Y-120763000D01*
X114298315Y-120965024D01*
X113925024Y-121338315D01*
X113723000Y-121826043D01*
X113723000Y-122107710D01*
X108509345Y-116894055D01*
X108479945Y-116850055D01*
X108319027Y-116742532D01*
X109577073Y-116742532D01*
X109675736Y-117009387D01*
X110285461Y-117235908D01*
X110935460Y-117211856D01*
X111424264Y-117009387D01*
X111522927Y-116742532D01*
X110550000Y-115769605D01*
X109577073Y-116742532D01*
X108319027Y-116742532D01*
X108305625Y-116733577D01*
X108151903Y-116703000D01*
X108151898Y-116703000D01*
X108100000Y-116692677D01*
X108048102Y-116703000D01*
X105982954Y-116703000D01*
X106161645Y-116506924D01*
X106331476Y-116096890D01*
X106210155Y-115867000D01*
X105017000Y-115867000D01*
X105017000Y-115887000D01*
X104763000Y-115887000D01*
X104763000Y-115867000D01*
X104743000Y-115867000D01*
X104743000Y-115613000D01*
X104763000Y-115613000D01*
X104763000Y-115593000D01*
X105017000Y-115593000D01*
X105017000Y-115613000D01*
X106210155Y-115613000D01*
X106331476Y-115383110D01*
X106307599Y-115325461D01*
X108904092Y-115325461D01*
X108928144Y-115975460D01*
X109130613Y-116464264D01*
X109397468Y-116562927D01*
X110370395Y-115590000D01*
X110729605Y-115590000D01*
X111702532Y-116562927D01*
X111969387Y-116464264D01*
X112195908Y-115854539D01*
X112176352Y-115326043D01*
X113723000Y-115326043D01*
X113723000Y-115853957D01*
X113925024Y-116341685D01*
X114298315Y-116714976D01*
X114786043Y-116917000D01*
X115313957Y-116917000D01*
X115735159Y-116742532D01*
X117197073Y-116742532D01*
X117295736Y-117009387D01*
X117905461Y-117235908D01*
X118555460Y-117211856D01*
X119044264Y-117009387D01*
X119142927Y-116742532D01*
X118170000Y-115769605D01*
X117197073Y-116742532D01*
X115735159Y-116742532D01*
X115801685Y-116714976D01*
X116174976Y-116341685D01*
X116377000Y-115853957D01*
X116377000Y-115326043D01*
X116376759Y-115325461D01*
X116524092Y-115325461D01*
X116548144Y-115975460D01*
X116750613Y-116464264D01*
X117017468Y-116562927D01*
X117990395Y-115590000D01*
X118349605Y-115590000D01*
X119322532Y-116562927D01*
X119589387Y-116464264D01*
X119815908Y-115854539D01*
X119796352Y-115326043D01*
X121343000Y-115326043D01*
X121343000Y-115853957D01*
X121545024Y-116341685D01*
X121918315Y-116714976D01*
X122406043Y-116917000D01*
X122933957Y-116917000D01*
X123355159Y-116742532D01*
X124817073Y-116742532D01*
X124915736Y-117009387D01*
X125525461Y-117235908D01*
X126175460Y-117211856D01*
X126664264Y-117009387D01*
X126762927Y-116742532D01*
X125790000Y-115769605D01*
X124817073Y-116742532D01*
X123355159Y-116742532D01*
X123421685Y-116714976D01*
X123794976Y-116341685D01*
X123997000Y-115853957D01*
X123997000Y-115326043D01*
X123996759Y-115325461D01*
X124144092Y-115325461D01*
X124168144Y-115975460D01*
X124370613Y-116464264D01*
X124637468Y-116562927D01*
X125610395Y-115590000D01*
X125969605Y-115590000D01*
X126942532Y-116562927D01*
X127209387Y-116464264D01*
X127435908Y-115854539D01*
X127416352Y-115326043D01*
X128963000Y-115326043D01*
X128963000Y-115853957D01*
X129165024Y-116341685D01*
X129538315Y-116714976D01*
X130026043Y-116917000D01*
X130553957Y-116917000D01*
X131041685Y-116714976D01*
X131414976Y-116341685D01*
X131461075Y-116230391D01*
X132103000Y-116230391D01*
X132103000Y-116519609D01*
X132213679Y-116786813D01*
X132418187Y-116991321D01*
X132685391Y-117102000D01*
X132974609Y-117102000D01*
X133241813Y-116991321D01*
X133406134Y-116827000D01*
X136825870Y-116827000D01*
X136990191Y-116991321D01*
X137257395Y-117102000D01*
X137546613Y-117102000D01*
X137813817Y-116991321D01*
X138018325Y-116786813D01*
X138129004Y-116519609D01*
X138129004Y-116230391D01*
X138073708Y-116096892D01*
X144088514Y-116096892D01*
X144334817Y-116621358D01*
X144763076Y-117011645D01*
X145173110Y-117181476D01*
X145403000Y-117060155D01*
X145403000Y-115867000D01*
X145657000Y-115867000D01*
X145657000Y-117060155D01*
X145886890Y-117181476D01*
X146296924Y-117011645D01*
X146725183Y-116621358D01*
X146800000Y-116462046D01*
X146874817Y-116621358D01*
X147303076Y-117011645D01*
X147713110Y-117181476D01*
X147943000Y-117060155D01*
X147943000Y-115867000D01*
X148197000Y-115867000D01*
X148197000Y-117060155D01*
X148426890Y-117181476D01*
X148836924Y-117011645D01*
X149265183Y-116621358D01*
X149340000Y-116462046D01*
X149414817Y-116621358D01*
X149843076Y-117011645D01*
X150253110Y-117181476D01*
X150483000Y-117060155D01*
X150483000Y-115867000D01*
X150737000Y-115867000D01*
X150737000Y-117060155D01*
X150966890Y-117181476D01*
X151376924Y-117011645D01*
X151805183Y-116621358D01*
X151880000Y-116462046D01*
X151954817Y-116621358D01*
X152383076Y-117011645D01*
X152793110Y-117181476D01*
X153023000Y-117060155D01*
X153023000Y-115867000D01*
X153277000Y-115867000D01*
X153277000Y-117060155D01*
X153506890Y-117181476D01*
X153916924Y-117011645D01*
X154345183Y-116621358D01*
X154420000Y-116462046D01*
X154494817Y-116621358D01*
X154923076Y-117011645D01*
X155333110Y-117181476D01*
X155563000Y-117060155D01*
X155563000Y-115867000D01*
X155817000Y-115867000D01*
X155817000Y-117060155D01*
X156046890Y-117181476D01*
X156456924Y-117011645D01*
X156885183Y-116621358D01*
X156960000Y-116462046D01*
X157034817Y-116621358D01*
X157463076Y-117011645D01*
X157873110Y-117181476D01*
X158103000Y-117060155D01*
X158103000Y-115867000D01*
X158357000Y-115867000D01*
X158357000Y-117060155D01*
X158586890Y-117181476D01*
X158996924Y-117011645D01*
X159425183Y-116621358D01*
X159671486Y-116096892D01*
X159550819Y-115867000D01*
X158357000Y-115867000D01*
X158103000Y-115867000D01*
X155817000Y-115867000D01*
X155563000Y-115867000D01*
X153277000Y-115867000D01*
X153023000Y-115867000D01*
X150737000Y-115867000D01*
X150483000Y-115867000D01*
X148197000Y-115867000D01*
X147943000Y-115867000D01*
X145657000Y-115867000D01*
X145403000Y-115867000D01*
X144209181Y-115867000D01*
X144088514Y-116096892D01*
X138073708Y-116096892D01*
X138018325Y-115963187D01*
X137813817Y-115758679D01*
X137546613Y-115648000D01*
X137257395Y-115648000D01*
X136990191Y-115758679D01*
X136825870Y-115923000D01*
X133406134Y-115923000D01*
X133241813Y-115758679D01*
X132974609Y-115648000D01*
X132685391Y-115648000D01*
X132418187Y-115758679D01*
X132213679Y-115963187D01*
X132103000Y-116230391D01*
X131461075Y-116230391D01*
X131617000Y-115853957D01*
X131617000Y-115326043D01*
X131414976Y-114838315D01*
X131041685Y-114465024D01*
X130553957Y-114263000D01*
X130026043Y-114263000D01*
X129538315Y-114465024D01*
X129165024Y-114838315D01*
X128963000Y-115326043D01*
X127416352Y-115326043D01*
X127411856Y-115204540D01*
X127209387Y-114715736D01*
X126942532Y-114617073D01*
X125969605Y-115590000D01*
X125610395Y-115590000D01*
X124637468Y-114617073D01*
X124370613Y-114715736D01*
X124144092Y-115325461D01*
X123996759Y-115325461D01*
X123794976Y-114838315D01*
X123421685Y-114465024D01*
X123355160Y-114437468D01*
X124817073Y-114437468D01*
X125790000Y-115410395D01*
X126762927Y-114437468D01*
X126664264Y-114170613D01*
X126054539Y-113944092D01*
X125404540Y-113968144D01*
X124915736Y-114170613D01*
X124817073Y-114437468D01*
X123355160Y-114437468D01*
X122933957Y-114263000D01*
X122406043Y-114263000D01*
X121918315Y-114465024D01*
X121545024Y-114838315D01*
X121343000Y-115326043D01*
X119796352Y-115326043D01*
X119791856Y-115204540D01*
X119589387Y-114715736D01*
X119322532Y-114617073D01*
X118349605Y-115590000D01*
X117990395Y-115590000D01*
X117017468Y-114617073D01*
X116750613Y-114715736D01*
X116524092Y-115325461D01*
X116376759Y-115325461D01*
X116174976Y-114838315D01*
X115801685Y-114465024D01*
X115735160Y-114437468D01*
X117197073Y-114437468D01*
X118170000Y-115410395D01*
X119142927Y-114437468D01*
X119044264Y-114170613D01*
X118434539Y-113944092D01*
X117784540Y-113968144D01*
X117295736Y-114170613D01*
X117197073Y-114437468D01*
X115735160Y-114437468D01*
X115313957Y-114263000D01*
X114786043Y-114263000D01*
X114298315Y-114465024D01*
X113925024Y-114838315D01*
X113723000Y-115326043D01*
X112176352Y-115326043D01*
X112171856Y-115204540D01*
X111969387Y-114715736D01*
X111702532Y-114617073D01*
X110729605Y-115590000D01*
X110370395Y-115590000D01*
X109397468Y-114617073D01*
X109130613Y-114715736D01*
X108904092Y-115325461D01*
X106307599Y-115325461D01*
X106161645Y-114973076D01*
X105771358Y-114544817D01*
X105542774Y-114437468D01*
X109577073Y-114437468D01*
X110550000Y-115410395D01*
X111522927Y-114437468D01*
X111424264Y-114170613D01*
X110814539Y-113944092D01*
X110164540Y-113968144D01*
X109675736Y-114170613D01*
X109577073Y-114437468D01*
X105542774Y-114437468D01*
X105292594Y-114319977D01*
X105349242Y-114308709D01*
X105738569Y-114048569D01*
X105998709Y-113659242D01*
X106090058Y-113200000D01*
X105998709Y-112740758D01*
X105738569Y-112351431D01*
X105349242Y-112091291D01*
X105005920Y-112023000D01*
X104774080Y-112023000D01*
X104430758Y-112091291D01*
X104166999Y-112267529D01*
X104166999Y-111592471D01*
X104430758Y-111768709D01*
X104774080Y-111837000D01*
X105005920Y-111837000D01*
X105349242Y-111768709D01*
X105738569Y-111508569D01*
X105998709Y-111119242D01*
X106090058Y-110660000D01*
X144329942Y-110660000D01*
X144421291Y-111119242D01*
X144681431Y-111508569D01*
X145070758Y-111768709D01*
X145414080Y-111837000D01*
X145645920Y-111837000D01*
X145989242Y-111768709D01*
X146378569Y-111508569D01*
X146638709Y-111119242D01*
X146730058Y-110660000D01*
X146869942Y-110660000D01*
X146961291Y-111119242D01*
X147221431Y-111508569D01*
X147610758Y-111768709D01*
X147954080Y-111837000D01*
X148185920Y-111837000D01*
X148529242Y-111768709D01*
X148918569Y-111508569D01*
X149178709Y-111119242D01*
X149270058Y-110660000D01*
X149409942Y-110660000D01*
X149501291Y-111119242D01*
X149761431Y-111508569D01*
X150150758Y-111768709D01*
X150494080Y-111837000D01*
X150725920Y-111837000D01*
X151069242Y-111768709D01*
X151458569Y-111508569D01*
X151718709Y-111119242D01*
X151810058Y-110660000D01*
X151949942Y-110660000D01*
X152041291Y-111119242D01*
X152301431Y-111508569D01*
X152690758Y-111768709D01*
X153034080Y-111837000D01*
X153265920Y-111837000D01*
X153609242Y-111768709D01*
X153998569Y-111508569D01*
X154258709Y-111119242D01*
X154350058Y-110660000D01*
X154489942Y-110660000D01*
X154581291Y-111119242D01*
X154841431Y-111508569D01*
X155230758Y-111768709D01*
X155574080Y-111837000D01*
X155805920Y-111837000D01*
X156149242Y-111768709D01*
X156538569Y-111508569D01*
X156798709Y-111119242D01*
X156890058Y-110660000D01*
X156798709Y-110200758D01*
X156538569Y-109811431D01*
X156149242Y-109551291D01*
X155805920Y-109483000D01*
X155574080Y-109483000D01*
X155230758Y-109551291D01*
X154841431Y-109811431D01*
X154581291Y-110200758D01*
X154489942Y-110660000D01*
X154350058Y-110660000D01*
X154258709Y-110200758D01*
X153998569Y-109811431D01*
X153609242Y-109551291D01*
X153265920Y-109483000D01*
X153034080Y-109483000D01*
X152690758Y-109551291D01*
X152301431Y-109811431D01*
X152041291Y-110200758D01*
X151949942Y-110660000D01*
X151810058Y-110660000D01*
X151718709Y-110200758D01*
X151458569Y-109811431D01*
X151069242Y-109551291D01*
X150725920Y-109483000D01*
X150494080Y-109483000D01*
X150150758Y-109551291D01*
X149761431Y-109811431D01*
X149501291Y-110200758D01*
X149409942Y-110660000D01*
X149270058Y-110660000D01*
X149178709Y-110200758D01*
X148918569Y-109811431D01*
X148529242Y-109551291D01*
X148185920Y-109483000D01*
X147954080Y-109483000D01*
X147610758Y-109551291D01*
X147221431Y-109811431D01*
X146961291Y-110200758D01*
X146869942Y-110660000D01*
X146730058Y-110660000D01*
X146638709Y-110200758D01*
X146378569Y-109811431D01*
X145989242Y-109551291D01*
X145645920Y-109483000D01*
X145414080Y-109483000D01*
X145070758Y-109551291D01*
X144681431Y-109811431D01*
X144421291Y-110200758D01*
X144329942Y-110660000D01*
X106090058Y-110660000D01*
X105998709Y-110200758D01*
X105738569Y-109811431D01*
X105349242Y-109551291D01*
X105005920Y-109483000D01*
X104774080Y-109483000D01*
X104430758Y-109551291D01*
X104166999Y-109727529D01*
X104166999Y-109303406D01*
X105740000Y-109303406D01*
X105867589Y-109278027D01*
X105975754Y-109205754D01*
X106048027Y-109097589D01*
X106073406Y-108970000D01*
X106073406Y-107270000D01*
X106048027Y-107142411D01*
X105975754Y-107034246D01*
X105867589Y-106961973D01*
X105740000Y-106936594D01*
X104166999Y-106936594D01*
X104166999Y-106541088D01*
X112293000Y-106541088D01*
X112293000Y-107158911D01*
X112342434Y-107407433D01*
X112530743Y-107689257D01*
X112812566Y-107877566D01*
X113145000Y-107943691D01*
X113477433Y-107877566D01*
X113759257Y-107689257D01*
X113780000Y-107658213D01*
X113800743Y-107689257D01*
X114082566Y-107877566D01*
X114415000Y-107943691D01*
X114599815Y-107906929D01*
X114621673Y-107959699D01*
X114800302Y-108138327D01*
X115033691Y-108235000D01*
X115399250Y-108235000D01*
X115558000Y-108076250D01*
X115558000Y-106977000D01*
X115812000Y-106977000D01*
X115812000Y-108076250D01*
X115970750Y-108235000D01*
X116336309Y-108235000D01*
X116569698Y-108138327D01*
X116588025Y-108120000D01*
X144329942Y-108120000D01*
X144421291Y-108579242D01*
X144681431Y-108968569D01*
X145070758Y-109228709D01*
X145414080Y-109297000D01*
X145645920Y-109297000D01*
X145989242Y-109228709D01*
X146378569Y-108968569D01*
X146638709Y-108579242D01*
X146730058Y-108120000D01*
X146869942Y-108120000D01*
X146961291Y-108579242D01*
X147221431Y-108968569D01*
X147610758Y-109228709D01*
X147954080Y-109297000D01*
X148185920Y-109297000D01*
X148529242Y-109228709D01*
X148918569Y-108968569D01*
X149178709Y-108579242D01*
X149270058Y-108120000D01*
X149409942Y-108120000D01*
X149501291Y-108579242D01*
X149761431Y-108968569D01*
X150150758Y-109228709D01*
X150494080Y-109297000D01*
X150725920Y-109297000D01*
X151069242Y-109228709D01*
X151458569Y-108968569D01*
X151718709Y-108579242D01*
X151810058Y-108120000D01*
X151949942Y-108120000D01*
X152041291Y-108579242D01*
X152301431Y-108968569D01*
X152690758Y-109228709D01*
X153034080Y-109297000D01*
X153265920Y-109297000D01*
X153609242Y-109228709D01*
X153998569Y-108968569D01*
X154258709Y-108579242D01*
X154350058Y-108120000D01*
X154489942Y-108120000D01*
X154581291Y-108579242D01*
X154841431Y-108968569D01*
X155230758Y-109228709D01*
X155574080Y-109297000D01*
X155805920Y-109297000D01*
X156149242Y-109228709D01*
X156538569Y-108968569D01*
X156798709Y-108579242D01*
X156890058Y-108120000D01*
X156798709Y-107660758D01*
X156538569Y-107271431D01*
X156536428Y-107270000D01*
X157046594Y-107270000D01*
X157046594Y-108970000D01*
X157071973Y-109097589D01*
X157144246Y-109205754D01*
X157252411Y-109278027D01*
X157380000Y-109303406D01*
X159080000Y-109303406D01*
X159207589Y-109278027D01*
X159315754Y-109205754D01*
X159388027Y-109097589D01*
X159413406Y-108970000D01*
X159413406Y-107270000D01*
X159388027Y-107142411D01*
X159315754Y-107034246D01*
X159207589Y-106961973D01*
X159080000Y-106936594D01*
X157380000Y-106936594D01*
X157252411Y-106961973D01*
X157144246Y-107034246D01*
X157071973Y-107142411D01*
X157046594Y-107270000D01*
X156536428Y-107270000D01*
X156149242Y-107011291D01*
X155805920Y-106943000D01*
X155574080Y-106943000D01*
X155230758Y-107011291D01*
X154841431Y-107271431D01*
X154581291Y-107660758D01*
X154489942Y-108120000D01*
X154350058Y-108120000D01*
X154258709Y-107660758D01*
X153998569Y-107271431D01*
X153609242Y-107011291D01*
X153265920Y-106943000D01*
X153034080Y-106943000D01*
X152690758Y-107011291D01*
X152301431Y-107271431D01*
X152041291Y-107660758D01*
X151949942Y-108120000D01*
X151810058Y-108120000D01*
X151718709Y-107660758D01*
X151458569Y-107271431D01*
X151069242Y-107011291D01*
X150725920Y-106943000D01*
X150494080Y-106943000D01*
X150150758Y-107011291D01*
X149761431Y-107271431D01*
X149501291Y-107660758D01*
X149409942Y-108120000D01*
X149270058Y-108120000D01*
X149178709Y-107660758D01*
X148918569Y-107271431D01*
X148529242Y-107011291D01*
X148185920Y-106943000D01*
X147954080Y-106943000D01*
X147610758Y-107011291D01*
X147221431Y-107271431D01*
X146961291Y-107660758D01*
X146869942Y-108120000D01*
X146730058Y-108120000D01*
X146638709Y-107660758D01*
X146378569Y-107271431D01*
X145989242Y-107011291D01*
X145645920Y-106943000D01*
X145414080Y-106943000D01*
X145070758Y-107011291D01*
X144681431Y-107271431D01*
X144421291Y-107660758D01*
X144329942Y-108120000D01*
X116588025Y-108120000D01*
X116748327Y-107959699D01*
X116845000Y-107726310D01*
X116845000Y-107135750D01*
X116686250Y-106977000D01*
X115812000Y-106977000D01*
X115558000Y-106977000D01*
X115538000Y-106977000D01*
X115538000Y-106723000D01*
X115558000Y-106723000D01*
X115558000Y-105623750D01*
X115812000Y-105623750D01*
X115812000Y-106723000D01*
X116686250Y-106723000D01*
X116845000Y-106564250D01*
X116845000Y-105973690D01*
X116748327Y-105740301D01*
X116569698Y-105561673D01*
X116336309Y-105465000D01*
X115970750Y-105465000D01*
X115812000Y-105623750D01*
X115558000Y-105623750D01*
X115399250Y-105465000D01*
X115033691Y-105465000D01*
X114800302Y-105561673D01*
X114621673Y-105740301D01*
X114599815Y-105793071D01*
X114415000Y-105756309D01*
X114082567Y-105822434D01*
X113800744Y-106010743D01*
X113780000Y-106041788D01*
X113759257Y-106010743D01*
X113477434Y-105822434D01*
X113145000Y-105756309D01*
X112812567Y-105822434D01*
X112530744Y-106010743D01*
X112342434Y-106292566D01*
X112293000Y-106541088D01*
X104166999Y-106541088D01*
X104166999Y-105908291D01*
X105401899Y-104673391D01*
X129817000Y-104673391D01*
X129817000Y-104962609D01*
X129927679Y-105229813D01*
X130132187Y-105434321D01*
X130399391Y-105545000D01*
X130688609Y-105545000D01*
X130955813Y-105434321D01*
X131045134Y-105345000D01*
X133090866Y-105345000D01*
X133180187Y-105434321D01*
X133447391Y-105545000D01*
X133736609Y-105545000D01*
X134003813Y-105434321D01*
X134208321Y-105229813D01*
X134319000Y-104962609D01*
X134319000Y-104673391D01*
X134208321Y-104406187D01*
X134003813Y-104201679D01*
X133736609Y-104091000D01*
X133447391Y-104091000D01*
X133180187Y-104201679D01*
X133090866Y-104291000D01*
X131045134Y-104291000D01*
X130955813Y-104201679D01*
X130688609Y-104091000D01*
X130399391Y-104091000D01*
X130132187Y-104201679D01*
X129927679Y-104406187D01*
X129817000Y-104673391D01*
X105401899Y-104673391D01*
X107715346Y-102359945D01*
X107715348Y-102359942D01*
X108786594Y-101288697D01*
X108786594Y-101350000D01*
X108811973Y-101477589D01*
X108884246Y-101585754D01*
X108992411Y-101658027D01*
X109120000Y-101683406D01*
X110687370Y-101683406D01*
X110208702Y-102162074D01*
X109929463Y-102162074D01*
X109662259Y-102272753D01*
X109457751Y-102477261D01*
X109347072Y-102744465D01*
X109347072Y-103033683D01*
X109457751Y-103300887D01*
X109662259Y-103505395D01*
X109929463Y-103616074D01*
X110218681Y-103616074D01*
X110485885Y-103505395D01*
X110690393Y-103300887D01*
X110801072Y-103033683D01*
X110801072Y-102848152D01*
X111326594Y-102322630D01*
X111326594Y-103890000D01*
X111351973Y-104017589D01*
X111424246Y-104125754D01*
X111532411Y-104198027D01*
X111660000Y-104223406D01*
X113360000Y-104223406D01*
X113487589Y-104198027D01*
X113595754Y-104125754D01*
X113668027Y-104017589D01*
X113693406Y-103890000D01*
X113693406Y-103040000D01*
X113849942Y-103040000D01*
X113941291Y-103499242D01*
X114201431Y-103888569D01*
X114590758Y-104148709D01*
X114934080Y-104217000D01*
X115165920Y-104217000D01*
X115509242Y-104148709D01*
X115898569Y-103888569D01*
X116158709Y-103499242D01*
X116169977Y-103442594D01*
X116394817Y-103921358D01*
X116823076Y-104311645D01*
X117233110Y-104481476D01*
X117463000Y-104360155D01*
X117463000Y-103167000D01*
X117717000Y-103167000D01*
X117717000Y-104360155D01*
X117946890Y-104481476D01*
X118356924Y-104311645D01*
X118785183Y-103921358D01*
X119031486Y-103396892D01*
X118910819Y-103167000D01*
X117717000Y-103167000D01*
X117463000Y-103167000D01*
X117443000Y-103167000D01*
X117443000Y-102913000D01*
X117463000Y-102913000D01*
X117463000Y-102893000D01*
X117717000Y-102893000D01*
X117717000Y-102913000D01*
X118910819Y-102913000D01*
X119031486Y-102683108D01*
X118785183Y-102158642D01*
X118356924Y-101768355D01*
X117996709Y-101619158D01*
X118049242Y-101608709D01*
X118438569Y-101348569D01*
X118698709Y-100959242D01*
X118709977Y-100902594D01*
X118934817Y-101381358D01*
X119363076Y-101771645D01*
X119773110Y-101941476D01*
X120003000Y-101820155D01*
X120003000Y-100627000D01*
X119983000Y-100627000D01*
X119983000Y-100373000D01*
X120003000Y-100373000D01*
X120003000Y-100353000D01*
X120257000Y-100353000D01*
X120257000Y-100373000D01*
X120277000Y-100373000D01*
X120277000Y-100627000D01*
X120257000Y-100627000D01*
X120257000Y-101820155D01*
X120486890Y-101941476D01*
X120896924Y-101771645D01*
X121325183Y-101381358D01*
X121550023Y-100902594D01*
X121561291Y-100959242D01*
X121821431Y-101348569D01*
X122210758Y-101608709D01*
X122554080Y-101677000D01*
X122785920Y-101677000D01*
X123129242Y-101608709D01*
X123518569Y-101348569D01*
X123778709Y-100959242D01*
X123870058Y-100500000D01*
X123778709Y-100040758D01*
X123518569Y-99651431D01*
X123129242Y-99391291D01*
X122785920Y-99323000D01*
X122554080Y-99323000D01*
X122210758Y-99391291D01*
X121821431Y-99651431D01*
X121561291Y-100040758D01*
X121550023Y-100097406D01*
X121325183Y-99618642D01*
X120896924Y-99228355D01*
X120536709Y-99079158D01*
X120589242Y-99068709D01*
X120978569Y-98808569D01*
X121238709Y-98419242D01*
X121330058Y-97960000D01*
X121469942Y-97960000D01*
X121561291Y-98419242D01*
X121821431Y-98808569D01*
X122210758Y-99068709D01*
X122554080Y-99137000D01*
X122785920Y-99137000D01*
X123129242Y-99068709D01*
X123518569Y-98808569D01*
X123778709Y-98419242D01*
X123789977Y-98362594D01*
X124014817Y-98841358D01*
X124443076Y-99231645D01*
X124803291Y-99380842D01*
X124750758Y-99391291D01*
X124361431Y-99651431D01*
X124101291Y-100040758D01*
X124009942Y-100500000D01*
X124101291Y-100959242D01*
X124361431Y-101348569D01*
X124750758Y-101608709D01*
X125094080Y-101677000D01*
X125325920Y-101677000D01*
X125669242Y-101608709D01*
X126058569Y-101348569D01*
X126318709Y-100959242D01*
X126410058Y-100500000D01*
X126549942Y-100500000D01*
X126641291Y-100959242D01*
X126901431Y-101348569D01*
X127290758Y-101608709D01*
X127634080Y-101677000D01*
X127865920Y-101677000D01*
X128209242Y-101608709D01*
X128598569Y-101348569D01*
X128858709Y-100959242D01*
X128950058Y-100500000D01*
X129089942Y-100500000D01*
X129181291Y-100959242D01*
X129441431Y-101348569D01*
X129830758Y-101608709D01*
X130174080Y-101677000D01*
X130405920Y-101677000D01*
X130749242Y-101608709D01*
X131138569Y-101348569D01*
X131398709Y-100959242D01*
X131490058Y-100500000D01*
X131398709Y-100040758D01*
X131138569Y-99651431D01*
X130749242Y-99391291D01*
X130405920Y-99323000D01*
X130174080Y-99323000D01*
X129830758Y-99391291D01*
X129441431Y-99651431D01*
X129181291Y-100040758D01*
X129089942Y-100500000D01*
X128950058Y-100500000D01*
X128858709Y-100040758D01*
X128598569Y-99651431D01*
X128209242Y-99391291D01*
X127865920Y-99323000D01*
X127634080Y-99323000D01*
X127290758Y-99391291D01*
X126901431Y-99651431D01*
X126641291Y-100040758D01*
X126549942Y-100500000D01*
X126410058Y-100500000D01*
X126318709Y-100040758D01*
X126058569Y-99651431D01*
X125669242Y-99391291D01*
X125616709Y-99380842D01*
X125976924Y-99231645D01*
X126405183Y-98841358D01*
X126630023Y-98362594D01*
X126641291Y-98419242D01*
X126901431Y-98808569D01*
X127290758Y-99068709D01*
X127634080Y-99137000D01*
X127865920Y-99137000D01*
X128209242Y-99068709D01*
X128598569Y-98808569D01*
X128858709Y-98419242D01*
X128950058Y-97960000D01*
X129089942Y-97960000D01*
X129181291Y-98419242D01*
X129441431Y-98808569D01*
X129830758Y-99068709D01*
X130174080Y-99137000D01*
X130405920Y-99137000D01*
X130749242Y-99068709D01*
X131138569Y-98808569D01*
X131398709Y-98419242D01*
X131409977Y-98362594D01*
X131634817Y-98841358D01*
X132063076Y-99231645D01*
X132423291Y-99380842D01*
X132370758Y-99391291D01*
X131981431Y-99651431D01*
X131721291Y-100040758D01*
X131629942Y-100500000D01*
X131721291Y-100959242D01*
X131981431Y-101348569D01*
X132370758Y-101608709D01*
X132714080Y-101677000D01*
X132945920Y-101677000D01*
X133289242Y-101608709D01*
X133678569Y-101348569D01*
X133938709Y-100959242D01*
X134030058Y-100500000D01*
X134169942Y-100500000D01*
X134261291Y-100959242D01*
X134521431Y-101348569D01*
X134910758Y-101608709D01*
X135254080Y-101677000D01*
X135485920Y-101677000D01*
X135829242Y-101608709D01*
X136218569Y-101348569D01*
X136478709Y-100959242D01*
X136570058Y-100500000D01*
X136709942Y-100500000D01*
X136801291Y-100959242D01*
X137061431Y-101348569D01*
X137450758Y-101608709D01*
X137794080Y-101677000D01*
X138025920Y-101677000D01*
X138369242Y-101608709D01*
X138758569Y-101348569D01*
X139018709Y-100959242D01*
X139029977Y-100902594D01*
X139254817Y-101381358D01*
X139683076Y-101771645D01*
X140093110Y-101941476D01*
X140323000Y-101820155D01*
X140323000Y-100627000D01*
X140303000Y-100627000D01*
X140303000Y-100373000D01*
X140323000Y-100373000D01*
X140323000Y-100353000D01*
X140577000Y-100353000D01*
X140577000Y-100373000D01*
X140597000Y-100373000D01*
X140597000Y-100627000D01*
X140577000Y-100627000D01*
X140577000Y-101820155D01*
X140806890Y-101941476D01*
X141216924Y-101771645D01*
X141645183Y-101381358D01*
X141870023Y-100902594D01*
X141881291Y-100959242D01*
X142141431Y-101348569D01*
X142530758Y-101608709D01*
X142874080Y-101677000D01*
X143105920Y-101677000D01*
X143449242Y-101608709D01*
X143838569Y-101348569D01*
X144098709Y-100959242D01*
X144190058Y-100500000D01*
X144098709Y-100040758D01*
X143838569Y-99651431D01*
X143449242Y-99391291D01*
X143105920Y-99323000D01*
X142874080Y-99323000D01*
X142530758Y-99391291D01*
X142141431Y-99651431D01*
X141881291Y-100040758D01*
X141870023Y-100097406D01*
X141645183Y-99618642D01*
X141216924Y-99228355D01*
X140856709Y-99079158D01*
X140909242Y-99068709D01*
X141298569Y-98808569D01*
X141558709Y-98419242D01*
X141650058Y-97960000D01*
X141789942Y-97960000D01*
X141881291Y-98419242D01*
X142141431Y-98808569D01*
X142530758Y-99068709D01*
X142874080Y-99137000D01*
X143105920Y-99137000D01*
X143449242Y-99068709D01*
X143838569Y-98808569D01*
X144098709Y-98419242D01*
X144109977Y-98362594D01*
X144334817Y-98841358D01*
X144763076Y-99231645D01*
X145123291Y-99380842D01*
X145070758Y-99391291D01*
X144681431Y-99651431D01*
X144421291Y-100040758D01*
X144329942Y-100500000D01*
X144421291Y-100959242D01*
X144681431Y-101348569D01*
X145070758Y-101608709D01*
X145414080Y-101677000D01*
X145645920Y-101677000D01*
X145989242Y-101608709D01*
X146378569Y-101348569D01*
X146638709Y-100959242D01*
X146730058Y-100500000D01*
X146869942Y-100500000D01*
X146961291Y-100959242D01*
X147221431Y-101348569D01*
X147610758Y-101608709D01*
X147954080Y-101677000D01*
X148185920Y-101677000D01*
X148529242Y-101608709D01*
X148918569Y-101348569D01*
X149178709Y-100959242D01*
X149270058Y-100500000D01*
X149178709Y-100040758D01*
X148918569Y-99651431D01*
X148529242Y-99391291D01*
X148185920Y-99323000D01*
X147954080Y-99323000D01*
X147610758Y-99391291D01*
X147221431Y-99651431D01*
X146961291Y-100040758D01*
X146869942Y-100500000D01*
X146730058Y-100500000D01*
X146638709Y-100040758D01*
X146378569Y-99651431D01*
X145989242Y-99391291D01*
X145936709Y-99380842D01*
X146296924Y-99231645D01*
X146725183Y-98841358D01*
X146950023Y-98362594D01*
X146961291Y-98419242D01*
X147221431Y-98808569D01*
X147610758Y-99068709D01*
X147954080Y-99137000D01*
X148185920Y-99137000D01*
X148529242Y-99068709D01*
X148918569Y-98808569D01*
X149178709Y-98419242D01*
X149189977Y-98362594D01*
X149414817Y-98841358D01*
X149843076Y-99231645D01*
X150203291Y-99380842D01*
X150150758Y-99391291D01*
X149761431Y-99651431D01*
X149501291Y-100040758D01*
X149409942Y-100500000D01*
X149501291Y-100959242D01*
X149761431Y-101348569D01*
X150150758Y-101608709D01*
X150494080Y-101677000D01*
X150725920Y-101677000D01*
X151069242Y-101608709D01*
X151458569Y-101348569D01*
X151718709Y-100959242D01*
X151810058Y-100500000D01*
X151949942Y-100500000D01*
X152041291Y-100959242D01*
X152301431Y-101348569D01*
X152690758Y-101608709D01*
X153034080Y-101677000D01*
X153265920Y-101677000D01*
X153609242Y-101608709D01*
X153998569Y-101348569D01*
X154258709Y-100959242D01*
X154350058Y-100500000D01*
X154489942Y-100500000D01*
X154581291Y-100959242D01*
X154841431Y-101348569D01*
X155230758Y-101608709D01*
X155574080Y-101677000D01*
X155805920Y-101677000D01*
X156149242Y-101608709D01*
X156538569Y-101348569D01*
X156798709Y-100959242D01*
X156809977Y-100902594D01*
X157034817Y-101381358D01*
X157463076Y-101771645D01*
X157873110Y-101941476D01*
X158103000Y-101820155D01*
X158103000Y-100627000D01*
X158357000Y-100627000D01*
X158357000Y-101820155D01*
X158586890Y-101941476D01*
X158996924Y-101771645D01*
X159425183Y-101381358D01*
X159671486Y-100856892D01*
X159550819Y-100627000D01*
X158357000Y-100627000D01*
X158103000Y-100627000D01*
X158083000Y-100627000D01*
X158083000Y-100373000D01*
X158103000Y-100373000D01*
X158103000Y-100353000D01*
X158357000Y-100353000D01*
X158357000Y-100373000D01*
X159550819Y-100373000D01*
X159671486Y-100143108D01*
X159425183Y-99618642D01*
X158996924Y-99228355D01*
X158636709Y-99079158D01*
X158689242Y-99068709D01*
X159078569Y-98808569D01*
X159338709Y-98419242D01*
X159430058Y-97960000D01*
X159338709Y-97500758D01*
X159078569Y-97111431D01*
X158689242Y-96851291D01*
X158345920Y-96783000D01*
X158114080Y-96783000D01*
X157770758Y-96851291D01*
X157381431Y-97111431D01*
X157121291Y-97500758D01*
X157029942Y-97960000D01*
X157121291Y-98419242D01*
X157381431Y-98808569D01*
X157770758Y-99068709D01*
X157823291Y-99079158D01*
X157463076Y-99228355D01*
X157034817Y-99618642D01*
X156809977Y-100097406D01*
X156798709Y-100040758D01*
X156538569Y-99651431D01*
X156149242Y-99391291D01*
X155805920Y-99323000D01*
X155574080Y-99323000D01*
X155230758Y-99391291D01*
X154841431Y-99651431D01*
X154581291Y-100040758D01*
X154489942Y-100500000D01*
X154350058Y-100500000D01*
X154258709Y-100040758D01*
X153998569Y-99651431D01*
X153609242Y-99391291D01*
X153265920Y-99323000D01*
X153034080Y-99323000D01*
X152690758Y-99391291D01*
X152301431Y-99651431D01*
X152041291Y-100040758D01*
X151949942Y-100500000D01*
X151810058Y-100500000D01*
X151718709Y-100040758D01*
X151458569Y-99651431D01*
X151069242Y-99391291D01*
X151016709Y-99380842D01*
X151376924Y-99231645D01*
X151805183Y-98841358D01*
X152030023Y-98362594D01*
X152041291Y-98419242D01*
X152301431Y-98808569D01*
X152690758Y-99068709D01*
X153034080Y-99137000D01*
X153265920Y-99137000D01*
X153609242Y-99068709D01*
X153998569Y-98808569D01*
X154258709Y-98419242D01*
X154350058Y-97960000D01*
X154489942Y-97960000D01*
X154581291Y-98419242D01*
X154841431Y-98808569D01*
X155230758Y-99068709D01*
X155574080Y-99137000D01*
X155805920Y-99137000D01*
X156149242Y-99068709D01*
X156538569Y-98808569D01*
X156798709Y-98419242D01*
X156890058Y-97960000D01*
X156798709Y-97500758D01*
X156538569Y-97111431D01*
X156149242Y-96851291D01*
X155805920Y-96783000D01*
X155574080Y-96783000D01*
X155230758Y-96851291D01*
X154841431Y-97111431D01*
X154581291Y-97500758D01*
X154489942Y-97960000D01*
X154350058Y-97960000D01*
X154258709Y-97500758D01*
X153998569Y-97111431D01*
X153609242Y-96851291D01*
X153265920Y-96783000D01*
X153034080Y-96783000D01*
X152690758Y-96851291D01*
X152301431Y-97111431D01*
X152041291Y-97500758D01*
X152030023Y-97557406D01*
X151805183Y-97078642D01*
X151376924Y-96688355D01*
X150966890Y-96518524D01*
X150737000Y-96639845D01*
X150737000Y-97833000D01*
X150757000Y-97833000D01*
X150757000Y-98087000D01*
X150737000Y-98087000D01*
X150737000Y-98107000D01*
X150483000Y-98107000D01*
X150483000Y-98087000D01*
X150463000Y-98087000D01*
X150463000Y-97833000D01*
X150483000Y-97833000D01*
X150483000Y-96639845D01*
X150253110Y-96518524D01*
X149843076Y-96688355D01*
X149414817Y-97078642D01*
X149189977Y-97557406D01*
X149178709Y-97500758D01*
X148918569Y-97111431D01*
X148529242Y-96851291D01*
X148185920Y-96783000D01*
X147954080Y-96783000D01*
X147610758Y-96851291D01*
X147221431Y-97111431D01*
X146961291Y-97500758D01*
X146950023Y-97557406D01*
X146725183Y-97078642D01*
X146296924Y-96688355D01*
X145886890Y-96518524D01*
X145657000Y-96639845D01*
X145657000Y-97833000D01*
X145677000Y-97833000D01*
X145677000Y-98087000D01*
X145657000Y-98087000D01*
X145657000Y-98107000D01*
X145403000Y-98107000D01*
X145403000Y-98087000D01*
X145383000Y-98087000D01*
X145383000Y-97833000D01*
X145403000Y-97833000D01*
X145403000Y-96639845D01*
X145173110Y-96518524D01*
X144763076Y-96688355D01*
X144334817Y-97078642D01*
X144109977Y-97557406D01*
X144098709Y-97500758D01*
X143838569Y-97111431D01*
X143449242Y-96851291D01*
X143105920Y-96783000D01*
X142874080Y-96783000D01*
X142530758Y-96851291D01*
X142141431Y-97111431D01*
X141881291Y-97500758D01*
X141789942Y-97960000D01*
X141650058Y-97960000D01*
X141558709Y-97500758D01*
X141298569Y-97111431D01*
X140909242Y-96851291D01*
X140565920Y-96783000D01*
X140334080Y-96783000D01*
X139990758Y-96851291D01*
X139601431Y-97111431D01*
X139341291Y-97500758D01*
X139249942Y-97960000D01*
X139341291Y-98419242D01*
X139601431Y-98808569D01*
X139990758Y-99068709D01*
X140043291Y-99079158D01*
X139683076Y-99228355D01*
X139254817Y-99618642D01*
X139029977Y-100097406D01*
X139018709Y-100040758D01*
X138758569Y-99651431D01*
X138369242Y-99391291D01*
X138025920Y-99323000D01*
X137794080Y-99323000D01*
X137450758Y-99391291D01*
X137061431Y-99651431D01*
X136801291Y-100040758D01*
X136709942Y-100500000D01*
X136570058Y-100500000D01*
X136478709Y-100040758D01*
X136218569Y-99651431D01*
X135829242Y-99391291D01*
X135485920Y-99323000D01*
X135254080Y-99323000D01*
X134910758Y-99391291D01*
X134521431Y-99651431D01*
X134261291Y-100040758D01*
X134169942Y-100500000D01*
X134030058Y-100500000D01*
X133938709Y-100040758D01*
X133678569Y-99651431D01*
X133289242Y-99391291D01*
X133236709Y-99380842D01*
X133596924Y-99231645D01*
X134025183Y-98841358D01*
X134250023Y-98362594D01*
X134261291Y-98419242D01*
X134521431Y-98808569D01*
X134910758Y-99068709D01*
X135254080Y-99137000D01*
X135485920Y-99137000D01*
X135829242Y-99068709D01*
X136218569Y-98808569D01*
X136478709Y-98419242D01*
X136570058Y-97960000D01*
X136709942Y-97960000D01*
X136801291Y-98419242D01*
X137061431Y-98808569D01*
X137450758Y-99068709D01*
X137794080Y-99137000D01*
X138025920Y-99137000D01*
X138369242Y-99068709D01*
X138758569Y-98808569D01*
X139018709Y-98419242D01*
X139110058Y-97960000D01*
X139018709Y-97500758D01*
X138758569Y-97111431D01*
X138369242Y-96851291D01*
X138025920Y-96783000D01*
X137794080Y-96783000D01*
X137450758Y-96851291D01*
X137061431Y-97111431D01*
X136801291Y-97500758D01*
X136709942Y-97960000D01*
X136570058Y-97960000D01*
X136478709Y-97500758D01*
X136218569Y-97111431D01*
X135829242Y-96851291D01*
X135485920Y-96783000D01*
X135254080Y-96783000D01*
X134910758Y-96851291D01*
X134521431Y-97111431D01*
X134261291Y-97500758D01*
X134250023Y-97557406D01*
X134025183Y-97078642D01*
X133596924Y-96688355D01*
X133186890Y-96518524D01*
X132957000Y-96639845D01*
X132957000Y-97833000D01*
X132977000Y-97833000D01*
X132977000Y-98087000D01*
X132957000Y-98087000D01*
X132957000Y-98107000D01*
X132703000Y-98107000D01*
X132703000Y-98087000D01*
X132683000Y-98087000D01*
X132683000Y-97833000D01*
X132703000Y-97833000D01*
X132703000Y-96639845D01*
X132473110Y-96518524D01*
X132063076Y-96688355D01*
X131634817Y-97078642D01*
X131409977Y-97557406D01*
X131398709Y-97500758D01*
X131138569Y-97111431D01*
X130749242Y-96851291D01*
X130405920Y-96783000D01*
X130174080Y-96783000D01*
X129830758Y-96851291D01*
X129441431Y-97111431D01*
X129181291Y-97500758D01*
X129089942Y-97960000D01*
X128950058Y-97960000D01*
X128858709Y-97500758D01*
X128598569Y-97111431D01*
X128209242Y-96851291D01*
X127865920Y-96783000D01*
X127634080Y-96783000D01*
X127290758Y-96851291D01*
X126901431Y-97111431D01*
X126641291Y-97500758D01*
X126630023Y-97557406D01*
X126405183Y-97078642D01*
X125976924Y-96688355D01*
X125566890Y-96518524D01*
X125337000Y-96639845D01*
X125337000Y-97833000D01*
X125357000Y-97833000D01*
X125357000Y-98087000D01*
X125337000Y-98087000D01*
X125337000Y-98107000D01*
X125083000Y-98107000D01*
X125083000Y-98087000D01*
X125063000Y-98087000D01*
X125063000Y-97833000D01*
X125083000Y-97833000D01*
X125083000Y-96639845D01*
X124853110Y-96518524D01*
X124443076Y-96688355D01*
X124014817Y-97078642D01*
X123789977Y-97557406D01*
X123778709Y-97500758D01*
X123518569Y-97111431D01*
X123129242Y-96851291D01*
X122785920Y-96783000D01*
X122554080Y-96783000D01*
X122210758Y-96851291D01*
X121821431Y-97111431D01*
X121561291Y-97500758D01*
X121469942Y-97960000D01*
X121330058Y-97960000D01*
X121238709Y-97500758D01*
X120978569Y-97111431D01*
X120589242Y-96851291D01*
X120245920Y-96783000D01*
X120014080Y-96783000D01*
X119670758Y-96851291D01*
X119281431Y-97111431D01*
X119021291Y-97500758D01*
X118929942Y-97960000D01*
X119021291Y-98419242D01*
X119281431Y-98808569D01*
X119670758Y-99068709D01*
X119723291Y-99079158D01*
X119363076Y-99228355D01*
X118934817Y-99618642D01*
X118709977Y-100097406D01*
X118698709Y-100040758D01*
X118438569Y-99651431D01*
X118049242Y-99391291D01*
X117705920Y-99323000D01*
X117474080Y-99323000D01*
X117130758Y-99391291D01*
X116741431Y-99651431D01*
X116481291Y-100040758D01*
X116389942Y-100500000D01*
X116481291Y-100959242D01*
X116741431Y-101348569D01*
X117130758Y-101608709D01*
X117183291Y-101619158D01*
X116823076Y-101768355D01*
X116394817Y-102158642D01*
X116169977Y-102637406D01*
X116158709Y-102580758D01*
X115898569Y-102191431D01*
X115509242Y-101931291D01*
X115165920Y-101863000D01*
X114934080Y-101863000D01*
X114590758Y-101931291D01*
X114201431Y-102191431D01*
X113941291Y-102580758D01*
X113849942Y-103040000D01*
X113693406Y-103040000D01*
X113693406Y-102190000D01*
X113668027Y-102062411D01*
X113595754Y-101954246D01*
X113487589Y-101881973D01*
X113360000Y-101856594D01*
X111792631Y-101856594D01*
X112044618Y-101604606D01*
X112050758Y-101608709D01*
X112394080Y-101677000D01*
X112625920Y-101677000D01*
X112969242Y-101608709D01*
X113358569Y-101348569D01*
X113618709Y-100959242D01*
X113710058Y-100500000D01*
X113618709Y-100040758D01*
X113358569Y-99651431D01*
X112969242Y-99391291D01*
X112625920Y-99323000D01*
X112394080Y-99323000D01*
X112050758Y-99391291D01*
X111661431Y-99651431D01*
X111401291Y-100040758D01*
X111309942Y-100500000D01*
X111401291Y-100959242D01*
X111405394Y-100965382D01*
X111153406Y-101217369D01*
X111153406Y-99650000D01*
X111128027Y-99522411D01*
X111055754Y-99414246D01*
X110947589Y-99341973D01*
X110820000Y-99316594D01*
X110494078Y-99316594D01*
X110497000Y-99301902D01*
X110507324Y-99249999D01*
X110497000Y-99198096D01*
X110497000Y-99023435D01*
X110818569Y-98808569D01*
X111033435Y-98487000D01*
X111446565Y-98487000D01*
X111661431Y-98808569D01*
X112050758Y-99068709D01*
X112394080Y-99137000D01*
X112625920Y-99137000D01*
X112969242Y-99068709D01*
X113358569Y-98808569D01*
X113618709Y-98419242D01*
X113629977Y-98362594D01*
X113854817Y-98841358D01*
X114283076Y-99231645D01*
X114643291Y-99380842D01*
X114590758Y-99391291D01*
X114201431Y-99651431D01*
X113941291Y-100040758D01*
X113849942Y-100500000D01*
X113941291Y-100959242D01*
X114201431Y-101348569D01*
X114590758Y-101608709D01*
X114934080Y-101677000D01*
X115165920Y-101677000D01*
X115509242Y-101608709D01*
X115898569Y-101348569D01*
X116158709Y-100959242D01*
X116250058Y-100500000D01*
X116158709Y-100040758D01*
X115898569Y-99651431D01*
X115509242Y-99391291D01*
X115456709Y-99380842D01*
X115816924Y-99231645D01*
X116245183Y-98841358D01*
X116470023Y-98362594D01*
X116481291Y-98419242D01*
X116741431Y-98808569D01*
X117130758Y-99068709D01*
X117474080Y-99137000D01*
X117705920Y-99137000D01*
X118049242Y-99068709D01*
X118438569Y-98808569D01*
X118698709Y-98419242D01*
X118790058Y-97960000D01*
X118698709Y-97500758D01*
X118438569Y-97111431D01*
X118049242Y-96851291D01*
X117705920Y-96783000D01*
X117474080Y-96783000D01*
X117130758Y-96851291D01*
X116741431Y-97111431D01*
X116481291Y-97500758D01*
X116470023Y-97557406D01*
X116245183Y-97078642D01*
X115816924Y-96688355D01*
X115406890Y-96518524D01*
X115177000Y-96639845D01*
X115177000Y-97833000D01*
X115197000Y-97833000D01*
X115197000Y-98087000D01*
X115177000Y-98087000D01*
X115177000Y-98107000D01*
X114923000Y-98107000D01*
X114923000Y-98087000D01*
X114903000Y-98087000D01*
X114903000Y-97833000D01*
X114923000Y-97833000D01*
X114923000Y-96639845D01*
X114693110Y-96518524D01*
X114283076Y-96688355D01*
X113854817Y-97078642D01*
X113629977Y-97557406D01*
X113618709Y-97500758D01*
X113358569Y-97111431D01*
X112969242Y-96851291D01*
X112625920Y-96783000D01*
X112394080Y-96783000D01*
X112050758Y-96851291D01*
X111661431Y-97111431D01*
X111446565Y-97433000D01*
X111033435Y-97433000D01*
X110818569Y-97111431D01*
X110429242Y-96851291D01*
X110085920Y-96783000D01*
X109854080Y-96783000D01*
X109510758Y-96851291D01*
X109121431Y-97111431D01*
X108861291Y-97500758D01*
X108769942Y-97960000D01*
X108861291Y-98419242D01*
X109064255Y-98722999D01*
X108851896Y-98722999D01*
X108799998Y-98712676D01*
X108748101Y-98722999D01*
X108748096Y-98722999D01*
X108594374Y-98753576D01*
X108527000Y-98798594D01*
X108527000Y-98548327D01*
X108005270Y-97288760D01*
X107041240Y-96324730D01*
X106396090Y-96057500D01*
X161803910Y-96057500D01*
X161158760Y-96324730D01*
X161158760Y-96324730D01*
G37*
X161158760Y-96324730D02*
X160194730Y-97288760D01*
X159673000Y-98548327D01*
X159673000Y-99911673D01*
X160194730Y-101171240D01*
X161158760Y-102135270D01*
X162418327Y-102657000D01*
X163781673Y-102657000D01*
X165041240Y-102135270D01*
X166005270Y-101171240D01*
X166272501Y-100526088D01*
X166272500Y-120933910D01*
X166005270Y-120288760D01*
X165041240Y-119324730D01*
X163781673Y-118803000D01*
X162418327Y-118803000D01*
X161158760Y-119324730D01*
X160194730Y-120288760D01*
X159673000Y-121548327D01*
X159673000Y-122911673D01*
X160194730Y-124171240D01*
X161158760Y-125135270D01*
X161803910Y-125402500D01*
X106396090Y-125402500D01*
X107041240Y-125135270D01*
X108005270Y-124171240D01*
X108389953Y-123242532D01*
X109577073Y-123242532D01*
X109675736Y-123509387D01*
X110285461Y-123735908D01*
X110935460Y-123711856D01*
X111424264Y-123509387D01*
X111522927Y-123242532D01*
X110550000Y-122269605D01*
X109577073Y-123242532D01*
X108389953Y-123242532D01*
X108527000Y-122911673D01*
X108527000Y-121825461D01*
X108904092Y-121825461D01*
X108928144Y-122475460D01*
X109130613Y-122964264D01*
X109397468Y-123062927D01*
X110370395Y-122090000D01*
X109397468Y-121117073D01*
X109130613Y-121215736D01*
X108904092Y-121825461D01*
X108527000Y-121825461D01*
X108527000Y-121548327D01*
X108005270Y-120288760D01*
X107041240Y-119324730D01*
X105781673Y-118803000D01*
X104418327Y-118803000D01*
X103158760Y-119324730D01*
X102194730Y-120288760D01*
X101927500Y-120933910D01*
X101927500Y-100526090D01*
X102194730Y-101171240D01*
X103158760Y-102135270D01*
X104418327Y-102657000D01*
X105781673Y-102657000D01*
X106030973Y-102553737D01*
X103304054Y-105280656D01*
X103260054Y-105310056D01*
X103143576Y-105484377D01*
X103112999Y-105638099D01*
X103112999Y-105638103D01*
X103102676Y-105690001D01*
X103112999Y-105741899D01*
X103113000Y-116218096D01*
X103102676Y-116269999D01*
X103143577Y-116475624D01*
X103230653Y-116605943D01*
X103230657Y-116605947D01*
X103260055Y-116649944D01*
X103304052Y-116679342D01*
X104190654Y-117565944D01*
X104220055Y-117609945D01*
X104394375Y-117726423D01*
X104548097Y-117757000D01*
X104548101Y-117757000D01*
X104599999Y-117767323D01*
X104651897Y-117757000D01*
X107881710Y-117757000D01*
X110577571Y-120452861D01*
X110164540Y-120468144D01*
X109675736Y-120670613D01*
X109577073Y-120937468D01*
X110550000Y-121910395D01*
X110564143Y-121896253D01*
X110743748Y-122075858D01*
X110729605Y-122090000D01*
X111702532Y-123062927D01*
X111969387Y-122964264D01*
X112195908Y-122354539D01*
X112185021Y-122060311D01*
X114285655Y-124160945D01*
X114315055Y-124204945D01*
X114489375Y-124321423D01*
X114643097Y-124352000D01*
X114643101Y-124352000D01*
X114694999Y-124362323D01*
X114746897Y-124352000D01*
X152953102Y-124352000D01*
X153005000Y-124362323D01*
X153056898Y-124352000D01*
X153056903Y-124352000D01*
X153210625Y-124321423D01*
X153384945Y-124204945D01*
X153414345Y-124160945D01*
X162126594Y-115448696D01*
X162126594Y-116590000D01*
X162151973Y-116717589D01*
X162224246Y-116825754D01*
X162332411Y-116898027D01*
X162460000Y-116923406D01*
X164160000Y-116923406D01*
X164287589Y-116898027D01*
X164395754Y-116825754D01*
X164468027Y-116717589D01*
X164493406Y-116590000D01*
X164493406Y-114890000D01*
X164468027Y-114762411D01*
X164417901Y-114687391D01*
X164895949Y-114209344D01*
X164939946Y-114179946D01*
X164969344Y-114135949D01*
X164969347Y-114135946D01*
X165056424Y-114005627D01*
X165074912Y-113912678D01*
X165087001Y-113851904D01*
X165087001Y-113851900D01*
X165097324Y-113800001D01*
X165087001Y-113748102D01*
X165087001Y-107571898D01*
X165097324Y-107519999D01*
X165087001Y-107468100D01*
X165087001Y-107468096D01*
X165056424Y-107314374D01*
X165056424Y-107314373D01*
X164969347Y-107184054D01*
X164969344Y-107184051D01*
X164939946Y-107140054D01*
X164895948Y-107110655D01*
X164319346Y-106534054D01*
X164289946Y-106490054D01*
X164115626Y-106373576D01*
X163961904Y-106342999D01*
X163961899Y-106342999D01*
X163910001Y-106332676D01*
X163858103Y-106342999D01*
X162761897Y-106342999D01*
X162709999Y-106332676D01*
X162658101Y-106342999D01*
X162658096Y-106342999D01*
X162504374Y-106373576D01*
X162504372Y-106373577D01*
X162504373Y-106373577D01*
X162374054Y-106460653D01*
X162374051Y-106460656D01*
X162330054Y-106490054D01*
X162300656Y-106534051D01*
X159144054Y-109690654D01*
X159100057Y-109720052D01*
X159070659Y-109764049D01*
X159070655Y-109764053D01*
X159051212Y-109793152D01*
X158689242Y-109551291D01*
X158345920Y-109483000D01*
X158114080Y-109483000D01*
X157770758Y-109551291D01*
X157381431Y-109811431D01*
X157121291Y-110200758D01*
X157029942Y-110660000D01*
X157121291Y-111119242D01*
X157381431Y-111508569D01*
X157770758Y-111768709D01*
X158114080Y-111837000D01*
X158345920Y-111837000D01*
X158689242Y-111768709D01*
X158953001Y-111592471D01*
X158953001Y-112016594D01*
X157380000Y-112016594D01*
X157252411Y-112041973D01*
X157144246Y-112114246D01*
X157071973Y-112222411D01*
X157046594Y-112350000D01*
X157046594Y-114050000D01*
X157071973Y-114177589D01*
X157144246Y-114285754D01*
X157252411Y-114358027D01*
X157380000Y-114383406D01*
X157668174Y-114383406D01*
X157463076Y-114468355D01*
X157034817Y-114858642D01*
X156960000Y-115017954D01*
X156885183Y-114858642D01*
X156456924Y-114468355D01*
X156096709Y-114319158D01*
X156149242Y-114308709D01*
X156538569Y-114048569D01*
X156798709Y-113659242D01*
X156890058Y-113200000D01*
X156798709Y-112740758D01*
X156538569Y-112351431D01*
X156149242Y-112091291D01*
X155805920Y-112023000D01*
X155574080Y-112023000D01*
X155230758Y-112091291D01*
X154841431Y-112351431D01*
X154581291Y-112740758D01*
X154489942Y-113200000D01*
X154581291Y-113659242D01*
X154841431Y-114048569D01*
X155230758Y-114308709D01*
X155283291Y-114319158D01*
X154923076Y-114468355D01*
X154494817Y-114858642D01*
X154420000Y-115017954D01*
X154345183Y-114858642D01*
X153916924Y-114468355D01*
X153556709Y-114319158D01*
X153609242Y-114308709D01*
X153998569Y-114048569D01*
X154258709Y-113659242D01*
X154350058Y-113200000D01*
X154258709Y-112740758D01*
X153998569Y-112351431D01*
X153609242Y-112091291D01*
X153265920Y-112023000D01*
X153034080Y-112023000D01*
X152690758Y-112091291D01*
X152301431Y-112351431D01*
X152041291Y-112740758D01*
X151949942Y-113200000D01*
X152041291Y-113659242D01*
X152301431Y-114048569D01*
X152690758Y-114308709D01*
X152743291Y-114319158D01*
X152383076Y-114468355D01*
X151954817Y-114858642D01*
X151880000Y-115017954D01*
X151805183Y-114858642D01*
X151376924Y-114468355D01*
X151016709Y-114319158D01*
X151069242Y-114308709D01*
X151458569Y-114048569D01*
X151718709Y-113659242D01*
X151810058Y-113200000D01*
X151718709Y-112740758D01*
X151458569Y-112351431D01*
X151069242Y-112091291D01*
X150725920Y-112023000D01*
X150494080Y-112023000D01*
X150150758Y-112091291D01*
X149761431Y-112351431D01*
X149501291Y-112740758D01*
X149409942Y-113200000D01*
X149501291Y-113659242D01*
X149761431Y-114048569D01*
X150150758Y-114308709D01*
X150203291Y-114319158D01*
X149843076Y-114468355D01*
X149414817Y-114858642D01*
X149340000Y-115017954D01*
X149265183Y-114858642D01*
X148836924Y-114468355D01*
X148476709Y-114319158D01*
X148529242Y-114308709D01*
X148918569Y-114048569D01*
X149178709Y-113659242D01*
X149270058Y-113200000D01*
X149178709Y-112740758D01*
X148918569Y-112351431D01*
X148529242Y-112091291D01*
X148185920Y-112023000D01*
X147954080Y-112023000D01*
X147610758Y-112091291D01*
X147221431Y-112351431D01*
X146961291Y-112740758D01*
X146869942Y-113200000D01*
X146961291Y-113659242D01*
X147221431Y-114048569D01*
X147610758Y-114308709D01*
X147663291Y-114319158D01*
X147303076Y-114468355D01*
X146874817Y-114858642D01*
X146800000Y-115017954D01*
X146725183Y-114858642D01*
X146296924Y-114468355D01*
X145936709Y-114319158D01*
X145989242Y-114308709D01*
X146378569Y-114048569D01*
X146638709Y-113659242D01*
X146730058Y-113200000D01*
X146638709Y-112740758D01*
X146378569Y-112351431D01*
X145989242Y-112091291D01*
X145645920Y-112023000D01*
X145414080Y-112023000D01*
X145070758Y-112091291D01*
X144681431Y-112351431D01*
X144421291Y-112740758D01*
X144329942Y-113200000D01*
X144421291Y-113659242D01*
X144681431Y-114048569D01*
X145070758Y-114308709D01*
X145123291Y-114319158D01*
X144763076Y-114468355D01*
X144334817Y-114858642D01*
X144088514Y-115383108D01*
X144209181Y-115613000D01*
X145403000Y-115613000D01*
X145403000Y-115593000D01*
X145657000Y-115593000D01*
X145657000Y-115613000D01*
X147943000Y-115613000D01*
X147943000Y-115593000D01*
X148197000Y-115593000D01*
X148197000Y-115613000D01*
X150483000Y-115613000D01*
X150483000Y-115593000D01*
X150737000Y-115593000D01*
X150737000Y-115613000D01*
X153023000Y-115613000D01*
X153023000Y-115593000D01*
X153277000Y-115593000D01*
X153277000Y-115613000D01*
X155563000Y-115613000D01*
X155563000Y-115593000D01*
X155817000Y-115593000D01*
X155817000Y-115613000D01*
X158103000Y-115613000D01*
X158103000Y-115593000D01*
X158357000Y-115593000D01*
X158357000Y-115613000D01*
X159550819Y-115613000D01*
X159671486Y-115383108D01*
X159425183Y-114858642D01*
X158996924Y-114468355D01*
X158791826Y-114383406D01*
X159080000Y-114383406D01*
X159207589Y-114358027D01*
X159315754Y-114285754D01*
X159388027Y-114177589D01*
X159413406Y-114050000D01*
X159413406Y-113727000D01*
X159428102Y-113727000D01*
X159480000Y-113737323D01*
X159531899Y-113727000D01*
X159531903Y-113727000D01*
X159685625Y-113696423D01*
X159859945Y-113579945D01*
X159976423Y-113405625D01*
X160017324Y-113200000D01*
X160006999Y-113148093D01*
X160007001Y-110318287D01*
X161891013Y-108434275D01*
X161868524Y-108476890D01*
X162038355Y-108886924D01*
X162428642Y-109315183D01*
X162907406Y-109540023D01*
X162850758Y-109551291D01*
X162461431Y-109811431D01*
X162201291Y-110200758D01*
X162109942Y-110660000D01*
X162201291Y-111119242D01*
X162461431Y-111508569D01*
X162850758Y-111768709D01*
X162907406Y-111779977D01*
X162428642Y-112004817D01*
X162038355Y-112433076D01*
X161868524Y-112843110D01*
X161989845Y-113073000D01*
X163183000Y-113073000D01*
X163183000Y-113053000D01*
X163437000Y-113053000D01*
X163437000Y-113073000D01*
X163457000Y-113073000D01*
X163457000Y-113327000D01*
X163437000Y-113327000D01*
X163437000Y-113347000D01*
X163183000Y-113347000D01*
X163183000Y-113327000D01*
X161989845Y-113327000D01*
X161868524Y-113556890D01*
X162038355Y-113966924D01*
X162042960Y-113971977D01*
X161934374Y-113993576D01*
X161760054Y-114110054D01*
X161730654Y-114154054D01*
X161724052Y-114160656D01*
X161680055Y-114190054D01*
X161650656Y-114234052D01*
X161650653Y-114234055D01*
X161631313Y-114263000D01*
X161563576Y-114364374D01*
X161532999Y-114518096D01*
X161532999Y-114518101D01*
X161524654Y-114560056D01*
X152786710Y-123298000D01*
X130841248Y-123298000D01*
X131041685Y-123214976D01*
X131414976Y-122841685D01*
X131617000Y-122353957D01*
X131617000Y-121826043D01*
X131414976Y-121338315D01*
X131041685Y-120965024D01*
X130553957Y-120763000D01*
X130026043Y-120763000D01*
X129538315Y-120965024D01*
X129165024Y-121338315D01*
X128963000Y-121826043D01*
X128963000Y-122353957D01*
X129165024Y-122841685D01*
X129538315Y-123214976D01*
X129738752Y-123298000D01*
X126742419Y-123298000D01*
X126762927Y-123242532D01*
X125790000Y-122269605D01*
X124817073Y-123242532D01*
X124837581Y-123298000D01*
X123221248Y-123298000D01*
X123421685Y-123214976D01*
X123794976Y-122841685D01*
X123997000Y-122353957D01*
X123997000Y-121826043D01*
X123996759Y-121825461D01*
X124144092Y-121825461D01*
X124168144Y-122475460D01*
X124370613Y-122964264D01*
X124637468Y-123062927D01*
X125610395Y-122090000D01*
X125969605Y-122090000D01*
X126942532Y-123062927D01*
X127209387Y-122964264D01*
X127435908Y-122354539D01*
X127411856Y-121704540D01*
X127209387Y-121215736D01*
X126942532Y-121117073D01*
X125969605Y-122090000D01*
X125610395Y-122090000D01*
X124637468Y-121117073D01*
X124370613Y-121215736D01*
X124144092Y-121825461D01*
X123996759Y-121825461D01*
X123794976Y-121338315D01*
X123421685Y-120965024D01*
X123355160Y-120937468D01*
X124817073Y-120937468D01*
X125790000Y-121910395D01*
X126762927Y-120937468D01*
X126664264Y-120670613D01*
X126054539Y-120444092D01*
X125404540Y-120468144D01*
X124915736Y-120670613D01*
X124817073Y-120937468D01*
X123355160Y-120937468D01*
X122933957Y-120763000D01*
X122406043Y-120763000D01*
X121918315Y-120965024D01*
X121545024Y-121338315D01*
X121343000Y-121826043D01*
X121343000Y-122353957D01*
X121545024Y-122841685D01*
X121918315Y-123214976D01*
X122118752Y-123298000D01*
X119122419Y-123298000D01*
X119142927Y-123242532D01*
X118170000Y-122269605D01*
X117197073Y-123242532D01*
X117217581Y-123298000D01*
X115601248Y-123298000D01*
X115801685Y-123214976D01*
X116174976Y-122841685D01*
X116377000Y-122353957D01*
X116377000Y-121826043D01*
X116376759Y-121825461D01*
X116524092Y-121825461D01*
X116548144Y-122475460D01*
X116750613Y-122964264D01*
X117017468Y-123062927D01*
X117990395Y-122090000D01*
X118349605Y-122090000D01*
X119322532Y-123062927D01*
X119589387Y-122964264D01*
X119815908Y-122354539D01*
X119791856Y-121704540D01*
X119589387Y-121215736D01*
X119322532Y-121117073D01*
X118349605Y-122090000D01*
X117990395Y-122090000D01*
X117017468Y-121117073D01*
X116750613Y-121215736D01*
X116524092Y-121825461D01*
X116376759Y-121825461D01*
X116174976Y-121338315D01*
X115801685Y-120965024D01*
X115735160Y-120937468D01*
X117197073Y-120937468D01*
X118170000Y-121910395D01*
X119142927Y-120937468D01*
X119044264Y-120670613D01*
X118434539Y-120444092D01*
X117784540Y-120468144D01*
X117295736Y-120670613D01*
X117197073Y-120937468D01*
X115735160Y-120937468D01*
X115313957Y-120763000D01*
X114786043Y-120763000D01*
X114298315Y-120965024D01*
X113925024Y-121338315D01*
X113723000Y-121826043D01*
X113723000Y-122107710D01*
X108509345Y-116894055D01*
X108479945Y-116850055D01*
X108319027Y-116742532D01*
X109577073Y-116742532D01*
X109675736Y-117009387D01*
X110285461Y-117235908D01*
X110935460Y-117211856D01*
X111424264Y-117009387D01*
X111522927Y-116742532D01*
X110550000Y-115769605D01*
X109577073Y-116742532D01*
X108319027Y-116742532D01*
X108305625Y-116733577D01*
X108151903Y-116703000D01*
X108151898Y-116703000D01*
X108100000Y-116692677D01*
X108048102Y-116703000D01*
X105982954Y-116703000D01*
X106161645Y-116506924D01*
X106331476Y-116096890D01*
X106210155Y-115867000D01*
X105017000Y-115867000D01*
X105017000Y-115887000D01*
X104763000Y-115887000D01*
X104763000Y-115867000D01*
X104743000Y-115867000D01*
X104743000Y-115613000D01*
X104763000Y-115613000D01*
X104763000Y-115593000D01*
X105017000Y-115593000D01*
X105017000Y-115613000D01*
X106210155Y-115613000D01*
X106331476Y-115383110D01*
X106307599Y-115325461D01*
X108904092Y-115325461D01*
X108928144Y-115975460D01*
X109130613Y-116464264D01*
X109397468Y-116562927D01*
X110370395Y-115590000D01*
X110729605Y-115590000D01*
X111702532Y-116562927D01*
X111969387Y-116464264D01*
X112195908Y-115854539D01*
X112176352Y-115326043D01*
X113723000Y-115326043D01*
X113723000Y-115853957D01*
X113925024Y-116341685D01*
X114298315Y-116714976D01*
X114786043Y-116917000D01*
X115313957Y-116917000D01*
X115735159Y-116742532D01*
X117197073Y-116742532D01*
X117295736Y-117009387D01*
X117905461Y-117235908D01*
X118555460Y-117211856D01*
X119044264Y-117009387D01*
X119142927Y-116742532D01*
X118170000Y-115769605D01*
X117197073Y-116742532D01*
X115735159Y-116742532D01*
X115801685Y-116714976D01*
X116174976Y-116341685D01*
X116377000Y-115853957D01*
X116377000Y-115326043D01*
X116376759Y-115325461D01*
X116524092Y-115325461D01*
X116548144Y-115975460D01*
X116750613Y-116464264D01*
X117017468Y-116562927D01*
X117990395Y-115590000D01*
X118349605Y-115590000D01*
X119322532Y-116562927D01*
X119589387Y-116464264D01*
X119815908Y-115854539D01*
X119796352Y-115326043D01*
X121343000Y-115326043D01*
X121343000Y-115853957D01*
X121545024Y-116341685D01*
X121918315Y-116714976D01*
X122406043Y-116917000D01*
X122933957Y-116917000D01*
X123355159Y-116742532D01*
X124817073Y-116742532D01*
X124915736Y-117009387D01*
X125525461Y-117235908D01*
X126175460Y-117211856D01*
X126664264Y-117009387D01*
X126762927Y-116742532D01*
X125790000Y-115769605D01*
X124817073Y-116742532D01*
X123355159Y-116742532D01*
X123421685Y-116714976D01*
X123794976Y-116341685D01*
X123997000Y-115853957D01*
X123997000Y-115326043D01*
X123996759Y-115325461D01*
X124144092Y-115325461D01*
X124168144Y-115975460D01*
X124370613Y-116464264D01*
X124637468Y-116562927D01*
X125610395Y-115590000D01*
X125969605Y-115590000D01*
X126942532Y-116562927D01*
X127209387Y-116464264D01*
X127435908Y-115854539D01*
X127416352Y-115326043D01*
X128963000Y-115326043D01*
X128963000Y-115853957D01*
X129165024Y-116341685D01*
X129538315Y-116714976D01*
X130026043Y-116917000D01*
X130553957Y-116917000D01*
X131041685Y-116714976D01*
X131414976Y-116341685D01*
X131461075Y-116230391D01*
X132103000Y-116230391D01*
X132103000Y-116519609D01*
X132213679Y-116786813D01*
X132418187Y-116991321D01*
X132685391Y-117102000D01*
X132974609Y-117102000D01*
X133241813Y-116991321D01*
X133406134Y-116827000D01*
X136825870Y-116827000D01*
X136990191Y-116991321D01*
X137257395Y-117102000D01*
X137546613Y-117102000D01*
X137813817Y-116991321D01*
X138018325Y-116786813D01*
X138129004Y-116519609D01*
X138129004Y-116230391D01*
X138073708Y-116096892D01*
X144088514Y-116096892D01*
X144334817Y-116621358D01*
X144763076Y-117011645D01*
X145173110Y-117181476D01*
X145403000Y-117060155D01*
X145403000Y-115867000D01*
X145657000Y-115867000D01*
X145657000Y-117060155D01*
X145886890Y-117181476D01*
X146296924Y-117011645D01*
X146725183Y-116621358D01*
X146800000Y-116462046D01*
X146874817Y-116621358D01*
X147303076Y-117011645D01*
X147713110Y-117181476D01*
X147943000Y-117060155D01*
X147943000Y-115867000D01*
X148197000Y-115867000D01*
X148197000Y-117060155D01*
X148426890Y-117181476D01*
X148836924Y-117011645D01*
X149265183Y-116621358D01*
X149340000Y-116462046D01*
X149414817Y-116621358D01*
X149843076Y-117011645D01*
X150253110Y-117181476D01*
X150483000Y-117060155D01*
X150483000Y-115867000D01*
X150737000Y-115867000D01*
X150737000Y-117060155D01*
X150966890Y-117181476D01*
X151376924Y-117011645D01*
X151805183Y-116621358D01*
X151880000Y-116462046D01*
X151954817Y-116621358D01*
X152383076Y-117011645D01*
X152793110Y-117181476D01*
X153023000Y-117060155D01*
X153023000Y-115867000D01*
X153277000Y-115867000D01*
X153277000Y-117060155D01*
X153506890Y-117181476D01*
X153916924Y-117011645D01*
X154345183Y-116621358D01*
X154420000Y-116462046D01*
X154494817Y-116621358D01*
X154923076Y-117011645D01*
X155333110Y-117181476D01*
X155563000Y-117060155D01*
X155563000Y-115867000D01*
X155817000Y-115867000D01*
X155817000Y-117060155D01*
X156046890Y-117181476D01*
X156456924Y-117011645D01*
X156885183Y-116621358D01*
X156960000Y-116462046D01*
X157034817Y-116621358D01*
X157463076Y-117011645D01*
X157873110Y-117181476D01*
X158103000Y-117060155D01*
X158103000Y-115867000D01*
X158357000Y-115867000D01*
X158357000Y-117060155D01*
X158586890Y-117181476D01*
X158996924Y-117011645D01*
X159425183Y-116621358D01*
X159671486Y-116096892D01*
X159550819Y-115867000D01*
X158357000Y-115867000D01*
X158103000Y-115867000D01*
X155817000Y-115867000D01*
X155563000Y-115867000D01*
X153277000Y-115867000D01*
X153023000Y-115867000D01*
X150737000Y-115867000D01*
X150483000Y-115867000D01*
X148197000Y-115867000D01*
X147943000Y-115867000D01*
X145657000Y-115867000D01*
X145403000Y-115867000D01*
X144209181Y-115867000D01*
X144088514Y-116096892D01*
X138073708Y-116096892D01*
X138018325Y-115963187D01*
X137813817Y-115758679D01*
X137546613Y-115648000D01*
X137257395Y-115648000D01*
X136990191Y-115758679D01*
X136825870Y-115923000D01*
X133406134Y-115923000D01*
X133241813Y-115758679D01*
X132974609Y-115648000D01*
X132685391Y-115648000D01*
X132418187Y-115758679D01*
X132213679Y-115963187D01*
X132103000Y-116230391D01*
X131461075Y-116230391D01*
X131617000Y-115853957D01*
X131617000Y-115326043D01*
X131414976Y-114838315D01*
X131041685Y-114465024D01*
X130553957Y-114263000D01*
X130026043Y-114263000D01*
X129538315Y-114465024D01*
X129165024Y-114838315D01*
X128963000Y-115326043D01*
X127416352Y-115326043D01*
X127411856Y-115204540D01*
X127209387Y-114715736D01*
X126942532Y-114617073D01*
X125969605Y-115590000D01*
X125610395Y-115590000D01*
X124637468Y-114617073D01*
X124370613Y-114715736D01*
X124144092Y-115325461D01*
X123996759Y-115325461D01*
X123794976Y-114838315D01*
X123421685Y-114465024D01*
X123355160Y-114437468D01*
X124817073Y-114437468D01*
X125790000Y-115410395D01*
X126762927Y-114437468D01*
X126664264Y-114170613D01*
X126054539Y-113944092D01*
X125404540Y-113968144D01*
X124915736Y-114170613D01*
X124817073Y-114437468D01*
X123355160Y-114437468D01*
X122933957Y-114263000D01*
X122406043Y-114263000D01*
X121918315Y-114465024D01*
X121545024Y-114838315D01*
X121343000Y-115326043D01*
X119796352Y-115326043D01*
X119791856Y-115204540D01*
X119589387Y-114715736D01*
X119322532Y-114617073D01*
X118349605Y-115590000D01*
X117990395Y-115590000D01*
X117017468Y-114617073D01*
X116750613Y-114715736D01*
X116524092Y-115325461D01*
X116376759Y-115325461D01*
X116174976Y-114838315D01*
X115801685Y-114465024D01*
X115735160Y-114437468D01*
X117197073Y-114437468D01*
X118170000Y-115410395D01*
X119142927Y-114437468D01*
X119044264Y-114170613D01*
X118434539Y-113944092D01*
X117784540Y-113968144D01*
X117295736Y-114170613D01*
X117197073Y-114437468D01*
X115735160Y-114437468D01*
X115313957Y-114263000D01*
X114786043Y-114263000D01*
X114298315Y-114465024D01*
X113925024Y-114838315D01*
X113723000Y-115326043D01*
X112176352Y-115326043D01*
X112171856Y-115204540D01*
X111969387Y-114715736D01*
X111702532Y-114617073D01*
X110729605Y-115590000D01*
X110370395Y-115590000D01*
X109397468Y-114617073D01*
X109130613Y-114715736D01*
X108904092Y-115325461D01*
X106307599Y-115325461D01*
X106161645Y-114973076D01*
X105771358Y-114544817D01*
X105542774Y-114437468D01*
X109577073Y-114437468D01*
X110550000Y-115410395D01*
X111522927Y-114437468D01*
X111424264Y-114170613D01*
X110814539Y-113944092D01*
X110164540Y-113968144D01*
X109675736Y-114170613D01*
X109577073Y-114437468D01*
X105542774Y-114437468D01*
X105292594Y-114319977D01*
X105349242Y-114308709D01*
X105738569Y-114048569D01*
X105998709Y-113659242D01*
X106090058Y-113200000D01*
X105998709Y-112740758D01*
X105738569Y-112351431D01*
X105349242Y-112091291D01*
X105005920Y-112023000D01*
X104774080Y-112023000D01*
X104430758Y-112091291D01*
X104166999Y-112267529D01*
X104166999Y-111592471D01*
X104430758Y-111768709D01*
X104774080Y-111837000D01*
X105005920Y-111837000D01*
X105349242Y-111768709D01*
X105738569Y-111508569D01*
X105998709Y-111119242D01*
X106090058Y-110660000D01*
X144329942Y-110660000D01*
X144421291Y-111119242D01*
X144681431Y-111508569D01*
X145070758Y-111768709D01*
X145414080Y-111837000D01*
X145645920Y-111837000D01*
X145989242Y-111768709D01*
X146378569Y-111508569D01*
X146638709Y-111119242D01*
X146730058Y-110660000D01*
X146869942Y-110660000D01*
X146961291Y-111119242D01*
X147221431Y-111508569D01*
X147610758Y-111768709D01*
X147954080Y-111837000D01*
X148185920Y-111837000D01*
X148529242Y-111768709D01*
X148918569Y-111508569D01*
X149178709Y-111119242D01*
X149270058Y-110660000D01*
X149409942Y-110660000D01*
X149501291Y-111119242D01*
X149761431Y-111508569D01*
X150150758Y-111768709D01*
X150494080Y-111837000D01*
X150725920Y-111837000D01*
X151069242Y-111768709D01*
X151458569Y-111508569D01*
X151718709Y-111119242D01*
X151810058Y-110660000D01*
X151949942Y-110660000D01*
X152041291Y-111119242D01*
X152301431Y-111508569D01*
X152690758Y-111768709D01*
X153034080Y-111837000D01*
X153265920Y-111837000D01*
X153609242Y-111768709D01*
X153998569Y-111508569D01*
X154258709Y-111119242D01*
X154350058Y-110660000D01*
X154489942Y-110660000D01*
X154581291Y-111119242D01*
X154841431Y-111508569D01*
X155230758Y-111768709D01*
X155574080Y-111837000D01*
X155805920Y-111837000D01*
X156149242Y-111768709D01*
X156538569Y-111508569D01*
X156798709Y-111119242D01*
X156890058Y-110660000D01*
X156798709Y-110200758D01*
X156538569Y-109811431D01*
X156149242Y-109551291D01*
X155805920Y-109483000D01*
X155574080Y-109483000D01*
X155230758Y-109551291D01*
X154841431Y-109811431D01*
X154581291Y-110200758D01*
X154489942Y-110660000D01*
X154350058Y-110660000D01*
X154258709Y-110200758D01*
X153998569Y-109811431D01*
X153609242Y-109551291D01*
X153265920Y-109483000D01*
X153034080Y-109483000D01*
X152690758Y-109551291D01*
X152301431Y-109811431D01*
X152041291Y-110200758D01*
X151949942Y-110660000D01*
X151810058Y-110660000D01*
X151718709Y-110200758D01*
X151458569Y-109811431D01*
X151069242Y-109551291D01*
X150725920Y-109483000D01*
X150494080Y-109483000D01*
X150150758Y-109551291D01*
X149761431Y-109811431D01*
X149501291Y-110200758D01*
X149409942Y-110660000D01*
X149270058Y-110660000D01*
X149178709Y-110200758D01*
X148918569Y-109811431D01*
X148529242Y-109551291D01*
X148185920Y-109483000D01*
X147954080Y-109483000D01*
X147610758Y-109551291D01*
X147221431Y-109811431D01*
X146961291Y-110200758D01*
X146869942Y-110660000D01*
X146730058Y-110660000D01*
X146638709Y-110200758D01*
X146378569Y-109811431D01*
X145989242Y-109551291D01*
X145645920Y-109483000D01*
X145414080Y-109483000D01*
X145070758Y-109551291D01*
X144681431Y-109811431D01*
X144421291Y-110200758D01*
X144329942Y-110660000D01*
X106090058Y-110660000D01*
X105998709Y-110200758D01*
X105738569Y-109811431D01*
X105349242Y-109551291D01*
X105005920Y-109483000D01*
X104774080Y-109483000D01*
X104430758Y-109551291D01*
X104166999Y-109727529D01*
X104166999Y-109303406D01*
X105740000Y-109303406D01*
X105867589Y-109278027D01*
X105975754Y-109205754D01*
X106048027Y-109097589D01*
X106073406Y-108970000D01*
X106073406Y-107270000D01*
X106048027Y-107142411D01*
X105975754Y-107034246D01*
X105867589Y-106961973D01*
X105740000Y-106936594D01*
X104166999Y-106936594D01*
X104166999Y-106541088D01*
X112293000Y-106541088D01*
X112293000Y-107158911D01*
X112342434Y-107407433D01*
X112530743Y-107689257D01*
X112812566Y-107877566D01*
X113145000Y-107943691D01*
X113477433Y-107877566D01*
X113759257Y-107689257D01*
X113780000Y-107658213D01*
X113800743Y-107689257D01*
X114082566Y-107877566D01*
X114415000Y-107943691D01*
X114599815Y-107906929D01*
X114621673Y-107959699D01*
X114800302Y-108138327D01*
X115033691Y-108235000D01*
X115399250Y-108235000D01*
X115558000Y-108076250D01*
X115558000Y-106977000D01*
X115812000Y-106977000D01*
X115812000Y-108076250D01*
X115970750Y-108235000D01*
X116336309Y-108235000D01*
X116569698Y-108138327D01*
X116588025Y-108120000D01*
X144329942Y-108120000D01*
X144421291Y-108579242D01*
X144681431Y-108968569D01*
X145070758Y-109228709D01*
X145414080Y-109297000D01*
X145645920Y-109297000D01*
X145989242Y-109228709D01*
X146378569Y-108968569D01*
X146638709Y-108579242D01*
X146730058Y-108120000D01*
X146869942Y-108120000D01*
X146961291Y-108579242D01*
X147221431Y-108968569D01*
X147610758Y-109228709D01*
X147954080Y-109297000D01*
X148185920Y-109297000D01*
X148529242Y-109228709D01*
X148918569Y-108968569D01*
X149178709Y-108579242D01*
X149270058Y-108120000D01*
X149409942Y-108120000D01*
X149501291Y-108579242D01*
X149761431Y-108968569D01*
X150150758Y-109228709D01*
X150494080Y-109297000D01*
X150725920Y-109297000D01*
X151069242Y-109228709D01*
X151458569Y-108968569D01*
X151718709Y-108579242D01*
X151810058Y-108120000D01*
X151949942Y-108120000D01*
X152041291Y-108579242D01*
X152301431Y-108968569D01*
X152690758Y-109228709D01*
X153034080Y-109297000D01*
X153265920Y-109297000D01*
X153609242Y-109228709D01*
X153998569Y-108968569D01*
X154258709Y-108579242D01*
X154350058Y-108120000D01*
X154489942Y-108120000D01*
X154581291Y-108579242D01*
X154841431Y-108968569D01*
X155230758Y-109228709D01*
X155574080Y-109297000D01*
X155805920Y-109297000D01*
X156149242Y-109228709D01*
X156538569Y-108968569D01*
X156798709Y-108579242D01*
X156890058Y-108120000D01*
X156798709Y-107660758D01*
X156538569Y-107271431D01*
X156536428Y-107270000D01*
X157046594Y-107270000D01*
X157046594Y-108970000D01*
X157071973Y-109097589D01*
X157144246Y-109205754D01*
X157252411Y-109278027D01*
X157380000Y-109303406D01*
X159080000Y-109303406D01*
X159207589Y-109278027D01*
X159315754Y-109205754D01*
X159388027Y-109097589D01*
X159413406Y-108970000D01*
X159413406Y-107270000D01*
X159388027Y-107142411D01*
X159315754Y-107034246D01*
X159207589Y-106961973D01*
X159080000Y-106936594D01*
X157380000Y-106936594D01*
X157252411Y-106961973D01*
X157144246Y-107034246D01*
X157071973Y-107142411D01*
X157046594Y-107270000D01*
X156536428Y-107270000D01*
X156149242Y-107011291D01*
X155805920Y-106943000D01*
X155574080Y-106943000D01*
X155230758Y-107011291D01*
X154841431Y-107271431D01*
X154581291Y-107660758D01*
X154489942Y-108120000D01*
X154350058Y-108120000D01*
X154258709Y-107660758D01*
X153998569Y-107271431D01*
X153609242Y-107011291D01*
X153265920Y-106943000D01*
X153034080Y-106943000D01*
X152690758Y-107011291D01*
X152301431Y-107271431D01*
X152041291Y-107660758D01*
X151949942Y-108120000D01*
X151810058Y-108120000D01*
X151718709Y-107660758D01*
X151458569Y-107271431D01*
X151069242Y-107011291D01*
X150725920Y-106943000D01*
X150494080Y-106943000D01*
X150150758Y-107011291D01*
X149761431Y-107271431D01*
X149501291Y-107660758D01*
X149409942Y-108120000D01*
X149270058Y-108120000D01*
X149178709Y-107660758D01*
X148918569Y-107271431D01*
X148529242Y-107011291D01*
X148185920Y-106943000D01*
X147954080Y-106943000D01*
X147610758Y-107011291D01*
X147221431Y-107271431D01*
X146961291Y-107660758D01*
X146869942Y-108120000D01*
X146730058Y-108120000D01*
X146638709Y-107660758D01*
X146378569Y-107271431D01*
X145989242Y-107011291D01*
X145645920Y-106943000D01*
X145414080Y-106943000D01*
X145070758Y-107011291D01*
X144681431Y-107271431D01*
X144421291Y-107660758D01*
X144329942Y-108120000D01*
X116588025Y-108120000D01*
X116748327Y-107959699D01*
X116845000Y-107726310D01*
X116845000Y-107135750D01*
X116686250Y-106977000D01*
X115812000Y-106977000D01*
X115558000Y-106977000D01*
X115538000Y-106977000D01*
X115538000Y-106723000D01*
X115558000Y-106723000D01*
X115558000Y-105623750D01*
X115812000Y-105623750D01*
X115812000Y-106723000D01*
X116686250Y-106723000D01*
X116845000Y-106564250D01*
X116845000Y-105973690D01*
X116748327Y-105740301D01*
X116569698Y-105561673D01*
X116336309Y-105465000D01*
X115970750Y-105465000D01*
X115812000Y-105623750D01*
X115558000Y-105623750D01*
X115399250Y-105465000D01*
X115033691Y-105465000D01*
X114800302Y-105561673D01*
X114621673Y-105740301D01*
X114599815Y-105793071D01*
X114415000Y-105756309D01*
X114082567Y-105822434D01*
X113800744Y-106010743D01*
X113780000Y-106041788D01*
X113759257Y-106010743D01*
X113477434Y-105822434D01*
X113145000Y-105756309D01*
X112812567Y-105822434D01*
X112530744Y-106010743D01*
X112342434Y-106292566D01*
X112293000Y-106541088D01*
X104166999Y-106541088D01*
X104166999Y-105908291D01*
X105401899Y-104673391D01*
X129817000Y-104673391D01*
X129817000Y-104962609D01*
X129927679Y-105229813D01*
X130132187Y-105434321D01*
X130399391Y-105545000D01*
X130688609Y-105545000D01*
X130955813Y-105434321D01*
X131045134Y-105345000D01*
X133090866Y-105345000D01*
X133180187Y-105434321D01*
X133447391Y-105545000D01*
X133736609Y-105545000D01*
X134003813Y-105434321D01*
X134208321Y-105229813D01*
X134319000Y-104962609D01*
X134319000Y-104673391D01*
X134208321Y-104406187D01*
X134003813Y-104201679D01*
X133736609Y-104091000D01*
X133447391Y-104091000D01*
X133180187Y-104201679D01*
X133090866Y-104291000D01*
X131045134Y-104291000D01*
X130955813Y-104201679D01*
X130688609Y-104091000D01*
X130399391Y-104091000D01*
X130132187Y-104201679D01*
X129927679Y-104406187D01*
X129817000Y-104673391D01*
X105401899Y-104673391D01*
X107715346Y-102359945D01*
X107715348Y-102359942D01*
X108786594Y-101288697D01*
X108786594Y-101350000D01*
X108811973Y-101477589D01*
X108884246Y-101585754D01*
X108992411Y-101658027D01*
X109120000Y-101683406D01*
X110687370Y-101683406D01*
X110208702Y-102162074D01*
X109929463Y-102162074D01*
X109662259Y-102272753D01*
X109457751Y-102477261D01*
X109347072Y-102744465D01*
X109347072Y-103033683D01*
X109457751Y-103300887D01*
X109662259Y-103505395D01*
X109929463Y-103616074D01*
X110218681Y-103616074D01*
X110485885Y-103505395D01*
X110690393Y-103300887D01*
X110801072Y-103033683D01*
X110801072Y-102848152D01*
X111326594Y-102322630D01*
X111326594Y-103890000D01*
X111351973Y-104017589D01*
X111424246Y-104125754D01*
X111532411Y-104198027D01*
X111660000Y-104223406D01*
X113360000Y-104223406D01*
X113487589Y-104198027D01*
X113595754Y-104125754D01*
X113668027Y-104017589D01*
X113693406Y-103890000D01*
X113693406Y-103040000D01*
X113849942Y-103040000D01*
X113941291Y-103499242D01*
X114201431Y-103888569D01*
X114590758Y-104148709D01*
X114934080Y-104217000D01*
X115165920Y-104217000D01*
X115509242Y-104148709D01*
X115898569Y-103888569D01*
X116158709Y-103499242D01*
X116169977Y-103442594D01*
X116394817Y-103921358D01*
X116823076Y-104311645D01*
X117233110Y-104481476D01*
X117463000Y-104360155D01*
X117463000Y-103167000D01*
X117717000Y-103167000D01*
X117717000Y-104360155D01*
X117946890Y-104481476D01*
X118356924Y-104311645D01*
X118785183Y-103921358D01*
X119031486Y-103396892D01*
X118910819Y-103167000D01*
X117717000Y-103167000D01*
X117463000Y-103167000D01*
X117443000Y-103167000D01*
X117443000Y-102913000D01*
X117463000Y-102913000D01*
X117463000Y-102893000D01*
X117717000Y-102893000D01*
X117717000Y-102913000D01*
X118910819Y-102913000D01*
X119031486Y-102683108D01*
X118785183Y-102158642D01*
X118356924Y-101768355D01*
X117996709Y-101619158D01*
X118049242Y-101608709D01*
X118438569Y-101348569D01*
X118698709Y-100959242D01*
X118709977Y-100902594D01*
X118934817Y-101381358D01*
X119363076Y-101771645D01*
X119773110Y-101941476D01*
X120003000Y-101820155D01*
X120003000Y-100627000D01*
X119983000Y-100627000D01*
X119983000Y-100373000D01*
X120003000Y-100373000D01*
X120003000Y-100353000D01*
X120257000Y-100353000D01*
X120257000Y-100373000D01*
X120277000Y-100373000D01*
X120277000Y-100627000D01*
X120257000Y-100627000D01*
X120257000Y-101820155D01*
X120486890Y-101941476D01*
X120896924Y-101771645D01*
X121325183Y-101381358D01*
X121550023Y-100902594D01*
X121561291Y-100959242D01*
X121821431Y-101348569D01*
X122210758Y-101608709D01*
X122554080Y-101677000D01*
X122785920Y-101677000D01*
X123129242Y-101608709D01*
X123518569Y-101348569D01*
X123778709Y-100959242D01*
X123870058Y-100500000D01*
X123778709Y-100040758D01*
X123518569Y-99651431D01*
X123129242Y-99391291D01*
X122785920Y-99323000D01*
X122554080Y-99323000D01*
X122210758Y-99391291D01*
X121821431Y-99651431D01*
X121561291Y-100040758D01*
X121550023Y-100097406D01*
X121325183Y-99618642D01*
X120896924Y-99228355D01*
X120536709Y-99079158D01*
X120589242Y-99068709D01*
X120978569Y-98808569D01*
X121238709Y-98419242D01*
X121330058Y-97960000D01*
X121469942Y-97960000D01*
X121561291Y-98419242D01*
X121821431Y-98808569D01*
X122210758Y-99068709D01*
X122554080Y-99137000D01*
X122785920Y-99137000D01*
X123129242Y-99068709D01*
X123518569Y-98808569D01*
X123778709Y-98419242D01*
X123789977Y-98362594D01*
X124014817Y-98841358D01*
X124443076Y-99231645D01*
X124803291Y-99380842D01*
X124750758Y-99391291D01*
X124361431Y-99651431D01*
X124101291Y-100040758D01*
X124009942Y-100500000D01*
X124101291Y-100959242D01*
X124361431Y-101348569D01*
X124750758Y-101608709D01*
X125094080Y-101677000D01*
X125325920Y-101677000D01*
X125669242Y-101608709D01*
X126058569Y-101348569D01*
X126318709Y-100959242D01*
X126410058Y-100500000D01*
X126549942Y-100500000D01*
X126641291Y-100959242D01*
X126901431Y-101348569D01*
X127290758Y-101608709D01*
X127634080Y-101677000D01*
X127865920Y-101677000D01*
X128209242Y-101608709D01*
X128598569Y-101348569D01*
X128858709Y-100959242D01*
X128950058Y-100500000D01*
X129089942Y-100500000D01*
X129181291Y-100959242D01*
X129441431Y-101348569D01*
X129830758Y-101608709D01*
X130174080Y-101677000D01*
X130405920Y-101677000D01*
X130749242Y-101608709D01*
X131138569Y-101348569D01*
X131398709Y-100959242D01*
X131490058Y-100500000D01*
X131398709Y-100040758D01*
X131138569Y-99651431D01*
X130749242Y-99391291D01*
X130405920Y-99323000D01*
X130174080Y-99323000D01*
X129830758Y-99391291D01*
X129441431Y-99651431D01*
X129181291Y-100040758D01*
X129089942Y-100500000D01*
X128950058Y-100500000D01*
X128858709Y-100040758D01*
X128598569Y-99651431D01*
X128209242Y-99391291D01*
X127865920Y-99323000D01*
X127634080Y-99323000D01*
X127290758Y-99391291D01*
X126901431Y-99651431D01*
X126641291Y-100040758D01*
X126549942Y-100500000D01*
X126410058Y-100500000D01*
X126318709Y-100040758D01*
X126058569Y-99651431D01*
X125669242Y-99391291D01*
X125616709Y-99380842D01*
X125976924Y-99231645D01*
X126405183Y-98841358D01*
X126630023Y-98362594D01*
X126641291Y-98419242D01*
X126901431Y-98808569D01*
X127290758Y-99068709D01*
X127634080Y-99137000D01*
X127865920Y-99137000D01*
X128209242Y-99068709D01*
X128598569Y-98808569D01*
X128858709Y-98419242D01*
X128950058Y-97960000D01*
X129089942Y-97960000D01*
X129181291Y-98419242D01*
X129441431Y-98808569D01*
X129830758Y-99068709D01*
X130174080Y-99137000D01*
X130405920Y-99137000D01*
X130749242Y-99068709D01*
X131138569Y-98808569D01*
X131398709Y-98419242D01*
X131409977Y-98362594D01*
X131634817Y-98841358D01*
X132063076Y-99231645D01*
X132423291Y-99380842D01*
X132370758Y-99391291D01*
X131981431Y-99651431D01*
X131721291Y-100040758D01*
X131629942Y-100500000D01*
X131721291Y-100959242D01*
X131981431Y-101348569D01*
X132370758Y-101608709D01*
X132714080Y-101677000D01*
X132945920Y-101677000D01*
X133289242Y-101608709D01*
X133678569Y-101348569D01*
X133938709Y-100959242D01*
X134030058Y-100500000D01*
X134169942Y-100500000D01*
X134261291Y-100959242D01*
X134521431Y-101348569D01*
X134910758Y-101608709D01*
X135254080Y-101677000D01*
X135485920Y-101677000D01*
X135829242Y-101608709D01*
X136218569Y-101348569D01*
X136478709Y-100959242D01*
X136570058Y-100500000D01*
X136709942Y-100500000D01*
X136801291Y-100959242D01*
X137061431Y-101348569D01*
X137450758Y-101608709D01*
X137794080Y-101677000D01*
X138025920Y-101677000D01*
X138369242Y-101608709D01*
X138758569Y-101348569D01*
X139018709Y-100959242D01*
X139029977Y-100902594D01*
X139254817Y-101381358D01*
X139683076Y-101771645D01*
X140093110Y-101941476D01*
X140323000Y-101820155D01*
X140323000Y-100627000D01*
X140303000Y-100627000D01*
X140303000Y-100373000D01*
X140323000Y-100373000D01*
X140323000Y-100353000D01*
X140577000Y-100353000D01*
X140577000Y-100373000D01*
X140597000Y-100373000D01*
X140597000Y-100627000D01*
X140577000Y-100627000D01*
X140577000Y-101820155D01*
X140806890Y-101941476D01*
X141216924Y-101771645D01*
X141645183Y-101381358D01*
X141870023Y-100902594D01*
X141881291Y-100959242D01*
X142141431Y-101348569D01*
X142530758Y-101608709D01*
X142874080Y-101677000D01*
X143105920Y-101677000D01*
X143449242Y-101608709D01*
X143838569Y-101348569D01*
X144098709Y-100959242D01*
X144190058Y-100500000D01*
X144098709Y-100040758D01*
X143838569Y-99651431D01*
X143449242Y-99391291D01*
X143105920Y-99323000D01*
X142874080Y-99323000D01*
X142530758Y-99391291D01*
X142141431Y-99651431D01*
X141881291Y-100040758D01*
X141870023Y-100097406D01*
X141645183Y-99618642D01*
X141216924Y-99228355D01*
X140856709Y-99079158D01*
X140909242Y-99068709D01*
X141298569Y-98808569D01*
X141558709Y-98419242D01*
X141650058Y-97960000D01*
X141789942Y-97960000D01*
X141881291Y-98419242D01*
X142141431Y-98808569D01*
X142530758Y-99068709D01*
X142874080Y-99137000D01*
X143105920Y-99137000D01*
X143449242Y-99068709D01*
X143838569Y-98808569D01*
X144098709Y-98419242D01*
X144109977Y-98362594D01*
X144334817Y-98841358D01*
X144763076Y-99231645D01*
X145123291Y-99380842D01*
X145070758Y-99391291D01*
X144681431Y-99651431D01*
X144421291Y-100040758D01*
X144329942Y-100500000D01*
X144421291Y-100959242D01*
X144681431Y-101348569D01*
X145070758Y-101608709D01*
X145414080Y-101677000D01*
X145645920Y-101677000D01*
X145989242Y-101608709D01*
X146378569Y-101348569D01*
X146638709Y-100959242D01*
X146730058Y-100500000D01*
X146869942Y-100500000D01*
X146961291Y-100959242D01*
X147221431Y-101348569D01*
X147610758Y-101608709D01*
X147954080Y-101677000D01*
X148185920Y-101677000D01*
X148529242Y-101608709D01*
X148918569Y-101348569D01*
X149178709Y-100959242D01*
X149270058Y-100500000D01*
X149178709Y-100040758D01*
X148918569Y-99651431D01*
X148529242Y-99391291D01*
X148185920Y-99323000D01*
X147954080Y-99323000D01*
X147610758Y-99391291D01*
X147221431Y-99651431D01*
X146961291Y-100040758D01*
X146869942Y-100500000D01*
X146730058Y-100500000D01*
X146638709Y-100040758D01*
X146378569Y-99651431D01*
X145989242Y-99391291D01*
X145936709Y-99380842D01*
X146296924Y-99231645D01*
X146725183Y-98841358D01*
X146950023Y-98362594D01*
X146961291Y-98419242D01*
X147221431Y-98808569D01*
X147610758Y-99068709D01*
X147954080Y-99137000D01*
X148185920Y-99137000D01*
X148529242Y-99068709D01*
X148918569Y-98808569D01*
X149178709Y-98419242D01*
X149189977Y-98362594D01*
X149414817Y-98841358D01*
X149843076Y-99231645D01*
X150203291Y-99380842D01*
X150150758Y-99391291D01*
X149761431Y-99651431D01*
X149501291Y-100040758D01*
X149409942Y-100500000D01*
X149501291Y-100959242D01*
X149761431Y-101348569D01*
X150150758Y-101608709D01*
X150494080Y-101677000D01*
X150725920Y-101677000D01*
X151069242Y-101608709D01*
X151458569Y-101348569D01*
X151718709Y-100959242D01*
X151810058Y-100500000D01*
X151949942Y-100500000D01*
X152041291Y-100959242D01*
X152301431Y-101348569D01*
X152690758Y-101608709D01*
X153034080Y-101677000D01*
X153265920Y-101677000D01*
X153609242Y-101608709D01*
X153998569Y-101348569D01*
X154258709Y-100959242D01*
X154350058Y-100500000D01*
X154489942Y-100500000D01*
X154581291Y-100959242D01*
X154841431Y-101348569D01*
X155230758Y-101608709D01*
X155574080Y-101677000D01*
X155805920Y-101677000D01*
X156149242Y-101608709D01*
X156538569Y-101348569D01*
X156798709Y-100959242D01*
X156809977Y-100902594D01*
X157034817Y-101381358D01*
X157463076Y-101771645D01*
X157873110Y-101941476D01*
X158103000Y-101820155D01*
X158103000Y-100627000D01*
X158357000Y-100627000D01*
X158357000Y-101820155D01*
X158586890Y-101941476D01*
X158996924Y-101771645D01*
X159425183Y-101381358D01*
X159671486Y-100856892D01*
X159550819Y-100627000D01*
X158357000Y-100627000D01*
X158103000Y-100627000D01*
X158083000Y-100627000D01*
X158083000Y-100373000D01*
X158103000Y-100373000D01*
X158103000Y-100353000D01*
X158357000Y-100353000D01*
X158357000Y-100373000D01*
X159550819Y-100373000D01*
X159671486Y-100143108D01*
X159425183Y-99618642D01*
X158996924Y-99228355D01*
X158636709Y-99079158D01*
X158689242Y-99068709D01*
X159078569Y-98808569D01*
X159338709Y-98419242D01*
X159430058Y-97960000D01*
X159338709Y-97500758D01*
X159078569Y-97111431D01*
X158689242Y-96851291D01*
X158345920Y-96783000D01*
X158114080Y-96783000D01*
X157770758Y-96851291D01*
X157381431Y-97111431D01*
X157121291Y-97500758D01*
X157029942Y-97960000D01*
X157121291Y-98419242D01*
X157381431Y-98808569D01*
X157770758Y-99068709D01*
X157823291Y-99079158D01*
X157463076Y-99228355D01*
X157034817Y-99618642D01*
X156809977Y-100097406D01*
X156798709Y-100040758D01*
X156538569Y-99651431D01*
X156149242Y-99391291D01*
X155805920Y-99323000D01*
X155574080Y-99323000D01*
X155230758Y-99391291D01*
X154841431Y-99651431D01*
X154581291Y-100040758D01*
X154489942Y-100500000D01*
X154350058Y-100500000D01*
X154258709Y-100040758D01*
X153998569Y-99651431D01*
X153609242Y-99391291D01*
X153265920Y-99323000D01*
X153034080Y-99323000D01*
X152690758Y-99391291D01*
X152301431Y-99651431D01*
X152041291Y-100040758D01*
X151949942Y-100500000D01*
X151810058Y-100500000D01*
X151718709Y-100040758D01*
X151458569Y-99651431D01*
X151069242Y-99391291D01*
X151016709Y-99380842D01*
X151376924Y-99231645D01*
X151805183Y-98841358D01*
X152030023Y-98362594D01*
X152041291Y-98419242D01*
X152301431Y-98808569D01*
X152690758Y-99068709D01*
X153034080Y-99137000D01*
X153265920Y-99137000D01*
X153609242Y-99068709D01*
X153998569Y-98808569D01*
X154258709Y-98419242D01*
X154350058Y-97960000D01*
X154489942Y-97960000D01*
X154581291Y-98419242D01*
X154841431Y-98808569D01*
X155230758Y-99068709D01*
X155574080Y-99137000D01*
X155805920Y-99137000D01*
X156149242Y-99068709D01*
X156538569Y-98808569D01*
X156798709Y-98419242D01*
X156890058Y-97960000D01*
X156798709Y-97500758D01*
X156538569Y-97111431D01*
X156149242Y-96851291D01*
X155805920Y-96783000D01*
X155574080Y-96783000D01*
X155230758Y-96851291D01*
X154841431Y-97111431D01*
X154581291Y-97500758D01*
X154489942Y-97960000D01*
X154350058Y-97960000D01*
X154258709Y-97500758D01*
X153998569Y-97111431D01*
X153609242Y-96851291D01*
X153265920Y-96783000D01*
X153034080Y-96783000D01*
X152690758Y-96851291D01*
X152301431Y-97111431D01*
X152041291Y-97500758D01*
X152030023Y-97557406D01*
X151805183Y-97078642D01*
X151376924Y-96688355D01*
X150966890Y-96518524D01*
X150737000Y-96639845D01*
X150737000Y-97833000D01*
X150757000Y-97833000D01*
X150757000Y-98087000D01*
X150737000Y-98087000D01*
X150737000Y-98107000D01*
X150483000Y-98107000D01*
X150483000Y-98087000D01*
X150463000Y-98087000D01*
X150463000Y-97833000D01*
X150483000Y-97833000D01*
X150483000Y-96639845D01*
X150253110Y-96518524D01*
X149843076Y-96688355D01*
X149414817Y-97078642D01*
X149189977Y-97557406D01*
X149178709Y-97500758D01*
X148918569Y-97111431D01*
X148529242Y-96851291D01*
X148185920Y-96783000D01*
X147954080Y-96783000D01*
X147610758Y-96851291D01*
X147221431Y-97111431D01*
X146961291Y-97500758D01*
X146950023Y-97557406D01*
X146725183Y-97078642D01*
X146296924Y-96688355D01*
X145886890Y-96518524D01*
X145657000Y-96639845D01*
X145657000Y-97833000D01*
X145677000Y-97833000D01*
X145677000Y-98087000D01*
X145657000Y-98087000D01*
X145657000Y-98107000D01*
X145403000Y-98107000D01*
X145403000Y-98087000D01*
X145383000Y-98087000D01*
X145383000Y-97833000D01*
X145403000Y-97833000D01*
X145403000Y-96639845D01*
X145173110Y-96518524D01*
X144763076Y-96688355D01*
X144334817Y-97078642D01*
X144109977Y-97557406D01*
X144098709Y-97500758D01*
X143838569Y-97111431D01*
X143449242Y-96851291D01*
X143105920Y-96783000D01*
X142874080Y-96783000D01*
X142530758Y-96851291D01*
X142141431Y-97111431D01*
X141881291Y-97500758D01*
X141789942Y-97960000D01*
X141650058Y-97960000D01*
X141558709Y-97500758D01*
X141298569Y-97111431D01*
X140909242Y-96851291D01*
X140565920Y-96783000D01*
X140334080Y-96783000D01*
X139990758Y-96851291D01*
X139601431Y-97111431D01*
X139341291Y-97500758D01*
X139249942Y-97960000D01*
X139341291Y-98419242D01*
X139601431Y-98808569D01*
X139990758Y-99068709D01*
X140043291Y-99079158D01*
X139683076Y-99228355D01*
X139254817Y-99618642D01*
X139029977Y-100097406D01*
X139018709Y-100040758D01*
X138758569Y-99651431D01*
X138369242Y-99391291D01*
X138025920Y-99323000D01*
X137794080Y-99323000D01*
X137450758Y-99391291D01*
X137061431Y-99651431D01*
X136801291Y-100040758D01*
X136709942Y-100500000D01*
X136570058Y-100500000D01*
X136478709Y-100040758D01*
X136218569Y-99651431D01*
X135829242Y-99391291D01*
X135485920Y-99323000D01*
X135254080Y-99323000D01*
X134910758Y-99391291D01*
X134521431Y-99651431D01*
X134261291Y-100040758D01*
X134169942Y-100500000D01*
X134030058Y-100500000D01*
X133938709Y-100040758D01*
X133678569Y-99651431D01*
X133289242Y-99391291D01*
X133236709Y-99380842D01*
X133596924Y-99231645D01*
X134025183Y-98841358D01*
X134250023Y-98362594D01*
X134261291Y-98419242D01*
X134521431Y-98808569D01*
X134910758Y-99068709D01*
X135254080Y-99137000D01*
X135485920Y-99137000D01*
X135829242Y-99068709D01*
X136218569Y-98808569D01*
X136478709Y-98419242D01*
X136570058Y-97960000D01*
X136709942Y-97960000D01*
X136801291Y-98419242D01*
X137061431Y-98808569D01*
X137450758Y-99068709D01*
X137794080Y-99137000D01*
X138025920Y-99137000D01*
X138369242Y-99068709D01*
X138758569Y-98808569D01*
X139018709Y-98419242D01*
X139110058Y-97960000D01*
X139018709Y-97500758D01*
X138758569Y-97111431D01*
X138369242Y-96851291D01*
X138025920Y-96783000D01*
X137794080Y-96783000D01*
X137450758Y-96851291D01*
X137061431Y-97111431D01*
X136801291Y-97500758D01*
X136709942Y-97960000D01*
X136570058Y-97960000D01*
X136478709Y-97500758D01*
X136218569Y-97111431D01*
X135829242Y-96851291D01*
X135485920Y-96783000D01*
X135254080Y-96783000D01*
X134910758Y-96851291D01*
X134521431Y-97111431D01*
X134261291Y-97500758D01*
X134250023Y-97557406D01*
X134025183Y-97078642D01*
X133596924Y-96688355D01*
X133186890Y-96518524D01*
X132957000Y-96639845D01*
X132957000Y-97833000D01*
X132977000Y-97833000D01*
X132977000Y-98087000D01*
X132957000Y-98087000D01*
X132957000Y-98107000D01*
X132703000Y-98107000D01*
X132703000Y-98087000D01*
X132683000Y-98087000D01*
X132683000Y-97833000D01*
X132703000Y-97833000D01*
X132703000Y-96639845D01*
X132473110Y-96518524D01*
X132063076Y-96688355D01*
X131634817Y-97078642D01*
X131409977Y-97557406D01*
X131398709Y-97500758D01*
X131138569Y-97111431D01*
X130749242Y-96851291D01*
X130405920Y-96783000D01*
X130174080Y-96783000D01*
X129830758Y-96851291D01*
X129441431Y-97111431D01*
X129181291Y-97500758D01*
X129089942Y-97960000D01*
X128950058Y-97960000D01*
X128858709Y-97500758D01*
X128598569Y-97111431D01*
X128209242Y-96851291D01*
X127865920Y-96783000D01*
X127634080Y-96783000D01*
X127290758Y-96851291D01*
X126901431Y-97111431D01*
X126641291Y-97500758D01*
X126630023Y-97557406D01*
X126405183Y-97078642D01*
X125976924Y-96688355D01*
X125566890Y-96518524D01*
X125337000Y-96639845D01*
X125337000Y-97833000D01*
X125357000Y-97833000D01*
X125357000Y-98087000D01*
X125337000Y-98087000D01*
X125337000Y-98107000D01*
X125083000Y-98107000D01*
X125083000Y-98087000D01*
X125063000Y-98087000D01*
X125063000Y-97833000D01*
X125083000Y-97833000D01*
X125083000Y-96639845D01*
X124853110Y-96518524D01*
X124443076Y-96688355D01*
X124014817Y-97078642D01*
X123789977Y-97557406D01*
X123778709Y-97500758D01*
X123518569Y-97111431D01*
X123129242Y-96851291D01*
X122785920Y-96783000D01*
X122554080Y-96783000D01*
X122210758Y-96851291D01*
X121821431Y-97111431D01*
X121561291Y-97500758D01*
X121469942Y-97960000D01*
X121330058Y-97960000D01*
X121238709Y-97500758D01*
X120978569Y-97111431D01*
X120589242Y-96851291D01*
X120245920Y-96783000D01*
X120014080Y-96783000D01*
X119670758Y-96851291D01*
X119281431Y-97111431D01*
X119021291Y-97500758D01*
X118929942Y-97960000D01*
X119021291Y-98419242D01*
X119281431Y-98808569D01*
X119670758Y-99068709D01*
X119723291Y-99079158D01*
X119363076Y-99228355D01*
X118934817Y-99618642D01*
X118709977Y-100097406D01*
X118698709Y-100040758D01*
X118438569Y-99651431D01*
X118049242Y-99391291D01*
X117705920Y-99323000D01*
X117474080Y-99323000D01*
X117130758Y-99391291D01*
X116741431Y-99651431D01*
X116481291Y-100040758D01*
X116389942Y-100500000D01*
X116481291Y-100959242D01*
X116741431Y-101348569D01*
X117130758Y-101608709D01*
X117183291Y-101619158D01*
X116823076Y-101768355D01*
X116394817Y-102158642D01*
X116169977Y-102637406D01*
X116158709Y-102580758D01*
X115898569Y-102191431D01*
X115509242Y-101931291D01*
X115165920Y-101863000D01*
X114934080Y-101863000D01*
X114590758Y-101931291D01*
X114201431Y-102191431D01*
X113941291Y-102580758D01*
X113849942Y-103040000D01*
X113693406Y-103040000D01*
X113693406Y-102190000D01*
X113668027Y-102062411D01*
X113595754Y-101954246D01*
X113487589Y-101881973D01*
X113360000Y-101856594D01*
X111792631Y-101856594D01*
X112044618Y-101604606D01*
X112050758Y-101608709D01*
X112394080Y-101677000D01*
X112625920Y-101677000D01*
X112969242Y-101608709D01*
X113358569Y-101348569D01*
X113618709Y-100959242D01*
X113710058Y-100500000D01*
X113618709Y-100040758D01*
X113358569Y-99651431D01*
X112969242Y-99391291D01*
X112625920Y-99323000D01*
X112394080Y-99323000D01*
X112050758Y-99391291D01*
X111661431Y-99651431D01*
X111401291Y-100040758D01*
X111309942Y-100500000D01*
X111401291Y-100959242D01*
X111405394Y-100965382D01*
X111153406Y-101217369D01*
X111153406Y-99650000D01*
X111128027Y-99522411D01*
X111055754Y-99414246D01*
X110947589Y-99341973D01*
X110820000Y-99316594D01*
X110494078Y-99316594D01*
X110497000Y-99301902D01*
X110507324Y-99249999D01*
X110497000Y-99198096D01*
X110497000Y-99023435D01*
X110818569Y-98808569D01*
X111033435Y-98487000D01*
X111446565Y-98487000D01*
X111661431Y-98808569D01*
X112050758Y-99068709D01*
X112394080Y-99137000D01*
X112625920Y-99137000D01*
X112969242Y-99068709D01*
X113358569Y-98808569D01*
X113618709Y-98419242D01*
X113629977Y-98362594D01*
X113854817Y-98841358D01*
X114283076Y-99231645D01*
X114643291Y-99380842D01*
X114590758Y-99391291D01*
X114201431Y-99651431D01*
X113941291Y-100040758D01*
X113849942Y-100500000D01*
X113941291Y-100959242D01*
X114201431Y-101348569D01*
X114590758Y-101608709D01*
X114934080Y-101677000D01*
X115165920Y-101677000D01*
X115509242Y-101608709D01*
X115898569Y-101348569D01*
X116158709Y-100959242D01*
X116250058Y-100500000D01*
X116158709Y-100040758D01*
X115898569Y-99651431D01*
X115509242Y-99391291D01*
X115456709Y-99380842D01*
X115816924Y-99231645D01*
X116245183Y-98841358D01*
X116470023Y-98362594D01*
X116481291Y-98419242D01*
X116741431Y-98808569D01*
X117130758Y-99068709D01*
X117474080Y-99137000D01*
X117705920Y-99137000D01*
X118049242Y-99068709D01*
X118438569Y-98808569D01*
X118698709Y-98419242D01*
X118790058Y-97960000D01*
X118698709Y-97500758D01*
X118438569Y-97111431D01*
X118049242Y-96851291D01*
X117705920Y-96783000D01*
X117474080Y-96783000D01*
X117130758Y-96851291D01*
X116741431Y-97111431D01*
X116481291Y-97500758D01*
X116470023Y-97557406D01*
X116245183Y-97078642D01*
X115816924Y-96688355D01*
X115406890Y-96518524D01*
X115177000Y-96639845D01*
X115177000Y-97833000D01*
X115197000Y-97833000D01*
X115197000Y-98087000D01*
X115177000Y-98087000D01*
X115177000Y-98107000D01*
X114923000Y-98107000D01*
X114923000Y-98087000D01*
X114903000Y-98087000D01*
X114903000Y-97833000D01*
X114923000Y-97833000D01*
X114923000Y-96639845D01*
X114693110Y-96518524D01*
X114283076Y-96688355D01*
X113854817Y-97078642D01*
X113629977Y-97557406D01*
X113618709Y-97500758D01*
X113358569Y-97111431D01*
X112969242Y-96851291D01*
X112625920Y-96783000D01*
X112394080Y-96783000D01*
X112050758Y-96851291D01*
X111661431Y-97111431D01*
X111446565Y-97433000D01*
X111033435Y-97433000D01*
X110818569Y-97111431D01*
X110429242Y-96851291D01*
X110085920Y-96783000D01*
X109854080Y-96783000D01*
X109510758Y-96851291D01*
X109121431Y-97111431D01*
X108861291Y-97500758D01*
X108769942Y-97960000D01*
X108861291Y-98419242D01*
X109064255Y-98722999D01*
X108851896Y-98722999D01*
X108799998Y-98712676D01*
X108748101Y-98722999D01*
X108748096Y-98722999D01*
X108594374Y-98753576D01*
X108527000Y-98798594D01*
X108527000Y-98548327D01*
X108005270Y-97288760D01*
X107041240Y-96324730D01*
X106396090Y-96057500D01*
X161803910Y-96057500D01*
X161158760Y-96324730D01*
G36*
X163437000Y-107993000D02*
X163457000Y-107993000D01*
X163457000Y-108247000D01*
X163437000Y-108247000D01*
X163437000Y-108267000D01*
X163183000Y-108267000D01*
X163183000Y-108247000D01*
X163163000Y-108247000D01*
X163163000Y-107993000D01*
X163183000Y-107993000D01*
X163183000Y-107973000D01*
X163437000Y-107973000D01*
X163437000Y-107993000D01*
X163437000Y-107993000D01*
G37*
X163437000Y-107993000D02*
X163457000Y-107993000D01*
X163457000Y-108247000D01*
X163437000Y-108247000D01*
X163437000Y-108267000D01*
X163183000Y-108267000D01*
X163183000Y-108247000D01*
X163163000Y-108247000D01*
X163163000Y-107993000D01*
X163183000Y-107993000D01*
X163183000Y-107973000D01*
X163437000Y-107973000D01*
X163437000Y-107993000D01*
G04 #@! TD*
M02*
