solid OpenSCAD_Model
  facet normal 0.996917 0.078459 0
    outer loop
      vertex 3.1 0 11
      vertex 3.06183 0.484946 0
      vertex 3.06183 0.484946 11
    endloop
  endfacet
  facet normal 0.996917 0.078459 0
    outer loop
      vertex 3.06183 0.484946 0
      vertex 3.1 0 11
      vertex 3.1 0 0
    endloop
  endfacet
  facet normal -0.996917 0.078459 0
    outer loop
      vertex -3.1 0 0
      vertex -3.06183 0.484946 11
      vertex -3.06183 0.484946 0
    endloop
  endfacet
  facet normal -0.996917 0.078459 0
    outer loop
      vertex -3.06183 0.484946 11
      vertex -3.1 0 0
      vertex -3.1 0 11
    endloop
  endfacet
  facet normal -0.078459 0.996917 0
    outer loop
      vertex 0 3.1 0
      vertex -0.484946 3.06183 11
      vertex 0 3.1 11
    endloop
  endfacet
  facet normal -0.078459 0.996917 0
    outer loop
      vertex -0.484946 3.06183 11
      vertex 0 3.1 0
      vertex -0.484946 3.06183 0
    endloop
  endfacet
  facet normal 0.078459 -0.996917 0
    outer loop
      vertex 0 -3.1 0
      vertex 0.484946 -3.06183 11
      vertex 0 -3.1 11
    endloop
  endfacet
  facet normal 0.078459 -0.996917 0
    outer loop
      vertex 0.484946 -3.06183 11
      vertex 0 -3.1 0
      vertex 0.484946 -3.06183 0
    endloop
  endfacet
  facet normal 0.852641 -0.522498 0
    outer loop
      vertex 2.50795 -1.82213 11
      vertex 2.76212 -1.40737 0
      vertex 2.76212 -1.40737 11
    endloop
  endfacet
  facet normal 0.852641 -0.522498 0
    outer loop
      vertex 2.76212 -1.40737 0
      vertex 2.50795 -1.82213 11
      vertex 2.50795 -1.82213 0
    endloop
  endfacet
  facet normal 0.649447 0.760407 -0
    outer loop
      vertex 2.19203 2.19203 0
      vertex 1.82213 2.50795 11
      vertex 2.19203 2.19203 11
    endloop
  endfacet
  facet normal 0.649447 0.760407 0
    outer loop
      vertex 1.82213 2.50795 11
      vertex 2.19203 2.19203 0
      vertex 1.82213 2.50795 0
    endloop
  endfacet
  facet normal -0.649447 0.760407 0
    outer loop
      vertex -1.82213 2.50795 0
      vertex -2.19203 2.19203 11
      vertex -1.82213 2.50795 11
    endloop
  endfacet
  facet normal -0.649447 0.760407 0
    outer loop
      vertex -2.19203 2.19203 11
      vertex -1.82213 2.50795 0
      vertex -2.19203 2.19203 0
    endloop
  endfacet
  facet normal -0.382685 0.923879 0
    outer loop
      vertex -0.957952 2.94827 0
      vertex -1.40737 2.76212 11
      vertex -0.957952 2.94827 11
    endloop
  endfacet
  facet normal -0.382685 0.923879 0
    outer loop
      vertex -1.40737 2.76212 11
      vertex -0.957952 2.94827 0
      vertex -1.40737 2.76212 0
    endloop
  endfacet
  facet normal 0.852641 0.522498 0
    outer loop
      vertex 2.76212 1.40737 11
      vertex 2.50795 1.82213 0
      vertex 2.50795 1.82213 11
    endloop
  endfacet
  facet normal 0.852641 0.522498 0
    outer loop
      vertex 2.50795 1.82213 0
      vertex 2.76212 1.40737 11
      vertex 2.76212 1.40737 0
    endloop
  endfacet
  facet normal 0.97237 0.233445 0
    outer loop
      vertex 3.06183 0.484946 11
      vertex 2.94827 0.957952 0
      vertex 2.94827 0.957952 11
    endloop
  endfacet
  facet normal 0.97237 0.233445 0
    outer loop
      vertex 2.94827 0.957952 0
      vertex 3.06183 0.484946 11
      vertex 3.06183 0.484946 0
    endloop
  endfacet
  facet normal 0.760407 0.649447 0
    outer loop
      vertex 2.50795 1.82213 11
      vertex 2.19203 2.19203 0
      vertex 2.19203 2.19203 11
    endloop
  endfacet
  facet normal 0.760407 0.649447 0
    outer loop
      vertex 2.19203 2.19203 0
      vertex 2.50795 1.82213 11
      vertex 2.50795 1.82213 0
    endloop
  endfacet
  facet normal 0.382685 0.923879 -0
    outer loop
      vertex 1.40737 2.76212 0
      vertex 0.957952 2.94827 11
      vertex 1.40737 2.76212 11
    endloop
  endfacet
  facet normal 0.382685 0.923879 0
    outer loop
      vertex 0.957952 2.94827 11
      vertex 1.40737 2.76212 0
      vertex 0.957952 2.94827 0
    endloop
  endfacet
  facet normal 0.233445 0.97237 -0
    outer loop
      vertex 0.957952 2.94827 0
      vertex 0.484946 3.06183 11
      vertex 0.957952 2.94827 11
    endloop
  endfacet
  facet normal 0.233445 0.97237 0
    outer loop
      vertex 0.484946 3.06183 11
      vertex 0.957952 2.94827 0
      vertex 0.484946 3.06183 0
    endloop
  endfacet
  facet normal 0.522498 0.852641 -0
    outer loop
      vertex 1.82213 2.50795 0
      vertex 1.40737 2.76212 11
      vertex 1.82213 2.50795 11
    endloop
  endfacet
  facet normal 0.522498 0.852641 0
    outer loop
      vertex 1.40737 2.76212 11
      vertex 1.82213 2.50795 0
      vertex 1.40737 2.76212 0
    endloop
  endfacet
  facet normal -0.923879 0.382685 0
    outer loop
      vertex -2.94827 0.957952 0
      vertex -2.76212 1.40737 11
      vertex -2.76212 1.40737 0
    endloop
  endfacet
  facet normal -0.923879 0.382685 0
    outer loop
      vertex -2.76212 1.40737 11
      vertex -2.94827 0.957952 0
      vertex -2.94827 0.957952 11
    endloop
  endfacet
  facet normal -0.760407 0.649447 0
    outer loop
      vertex -2.50795 1.82213 0
      vertex -2.19203 2.19203 11
      vertex -2.19203 2.19203 0
    endloop
  endfacet
  facet normal -0.760407 0.649447 0
    outer loop
      vertex -2.19203 2.19203 11
      vertex -2.50795 1.82213 0
      vertex -2.50795 1.82213 11
    endloop
  endfacet
  facet normal -0.97237 0.233445 0
    outer loop
      vertex -3.06183 0.484946 0
      vertex -2.94827 0.957952 11
      vertex -2.94827 0.957952 0
    endloop
  endfacet
  facet normal -0.97237 0.233445 0
    outer loop
      vertex -2.94827 0.957952 11
      vertex -3.06183 0.484946 0
      vertex -3.06183 0.484946 11
    endloop
  endfacet
  facet normal 0 0 1
    outer loop
      vertex 1.45 0 11
      vertex 3.1 0 11
      vertex 3.06183 0.484946 11
    endloop
  endfacet
  facet normal 0 0 1
    outer loop
      vertex 1.43215 0.22683 11
      vertex 3.06183 0.484946 11
      vertex 2.94827 0.957952 11
    endloop
  endfacet
  facet normal 0 0 1
    outer loop
      vertex 3.1 0 11
      vertex 1.45 0 11
      vertex 3.06183 -0.484946 11
    endloop
  endfacet
  facet normal 0 0 1
    outer loop
      vertex 1.37903 0.448074 11
      vertex 2.94827 0.957952 11
      vertex 2.76212 1.40737 11
    endloop
  endfacet
  facet normal -0 0 1
    outer loop
      vertex 1.43215 -0.22683 11
      vertex 3.06183 -0.484946 11
      vertex 1.45 0 11
    endloop
  endfacet
  facet normal 0 0 1
    outer loop
      vertex 1.29196 0.658286 11
      vertex 2.76212 1.40737 11
      vertex 2.50795 1.82213 11
    endloop
  endfacet
  facet normal 0 0 1
    outer loop
      vertex 3.06183 -0.484946 11
      vertex 1.43215 -0.22683 11
      vertex 2.94827 -0.957952 11
    endloop
  endfacet
  facet normal 0 0 1
    outer loop
      vertex 1.17307 0.852288 11
      vertex 2.50795 1.82213 11
      vertex 2.19203 2.19203 11
    endloop
  endfacet
  facet normal -0 0 1
    outer loop
      vertex 1.37903 -0.448074 11
      vertex 2.94827 -0.957952 11
      vertex 1.43215 -0.22683 11
    endloop
  endfacet
  facet normal 0 0 1
    outer loop
      vertex 1.0253 1.0253 11
      vertex 2.19203 2.19203 11
      vertex 1.82213 2.50795 11
    endloop
  endfacet
  facet normal 0 0 1
    outer loop
      vertex 2.94827 -0.957952 11
      vertex 1.37903 -0.448074 11
      vertex 2.76212 -1.40737 11
    endloop
  endfacet
  facet normal -0 0 1
    outer loop
      vertex 1.29196 -0.658286 11
      vertex 2.76212 -1.40737 11
      vertex 1.37903 -0.448074 11
    endloop
  endfacet
  facet normal 0 0 1
    outer loop
      vertex 3.06183 0.484946 11
      vertex 1.43215 0.22683 11
      vertex 1.45 0 11
    endloop
  endfacet
  facet normal 0 0 1
    outer loop
      vertex 0.852288 1.17307 11
      vertex 1.82213 2.50795 11
      vertex 1.40737 2.76212 11
    endloop
  endfacet
  facet normal 0 0 1
    outer loop
      vertex 2.94827 0.957952 11
      vertex 1.37903 0.448074 11
      vertex 1.43215 0.22683 11
    endloop
  endfacet
  facet normal 0 0 1
    outer loop
      vertex 2.76212 1.40737 11
      vertex 1.29196 0.658286 11
      vertex 1.37903 0.448074 11
    endloop
  endfacet
  facet normal 0 0 1
    outer loop
      vertex 2.50795 1.82213 11
      vertex 1.17307 0.852288 11
      vertex 1.29196 0.658286 11
    endloop
  endfacet
  facet normal 0 0 1
    outer loop
      vertex 2.19203 2.19203 11
      vertex 1.0253 1.0253 11
      vertex 1.17307 0.852288 11
    endloop
  endfacet
  facet normal 0 0 1
    outer loop
      vertex 0.658286 1.29196 11
      vertex 1.40737 2.76212 11
      vertex 0.957952 2.94827 11
    endloop
  endfacet
  facet normal 0 0 1
    outer loop
      vertex 1.82213 2.50795 11
      vertex 0.852288 1.17307 11
      vertex 1.0253 1.0253 11
    endloop
  endfacet
  facet normal 0 0 1
    outer loop
      vertex 1.40737 2.76212 11
      vertex 0.658286 1.29196 11
      vertex 0.852288 1.17307 11
    endloop
  endfacet
  facet normal 0 0 1
    outer loop
      vertex 0.448074 1.37903 11
      vertex 0.957952 2.94827 11
      vertex 0.484946 3.06183 11
    endloop
  endfacet
  facet normal 0 0 1
    outer loop
      vertex 0.957952 2.94827 11
      vertex 0.448074 1.37903 11
      vertex 0.658286 1.29196 11
    endloop
  endfacet
  facet normal 0 0 1
    outer loop
      vertex 0.484946 3.06183 11
      vertex 0.22683 1.43215 11
      vertex 0.448074 1.37903 11
    endloop
  endfacet
  facet normal 0 0 1
    outer loop
      vertex 0 3.1 11
      vertex 0.22683 1.43215 11
      vertex 0.484946 3.06183 11
    endloop
  endfacet
  facet normal 0 0 1
    outer loop
      vertex 0 3.1 11
      vertex 0 1.45 11
      vertex 0.22683 1.43215 11
    endloop
  endfacet
  facet normal 0 0 1
    outer loop
      vertex 0 3.1 11
      vertex -0.22683 1.43215 11
      vertex 0 1.45 11
    endloop
  endfacet
  facet normal -0 0 1
    outer loop
      vertex -0.484946 3.06183 11
      vertex -0.22683 1.43215 11
      vertex 0 3.1 11
    endloop
  endfacet
  facet normal 0 0 1
    outer loop
      vertex -0.22683 1.43215 11
      vertex -0.484946 3.06183 11
      vertex -0.448074 1.37903 11
    endloop
  endfacet
  facet normal -0 0 1
    outer loop
      vertex -0.957952 2.94827 11
      vertex -0.448074 1.37903 11
      vertex -0.484946 3.06183 11
    endloop
  endfacet
  facet normal 0 0 1
    outer loop
      vertex -0.448074 1.37903 11
      vertex -0.957952 2.94827 11
      vertex -0.658286 1.29196 11
    endloop
  endfacet
  facet normal -0 0 1
    outer loop
      vertex -1.40737 2.76212 11
      vertex -0.658286 1.29196 11
      vertex -0.957952 2.94827 11
    endloop
  endfacet
  facet normal 0 0 1
    outer loop
      vertex -0.658286 1.29196 11
      vertex -1.40737 2.76212 11
      vertex -0.852288 1.17307 11
    endloop
  endfacet
  facet normal -0 0 1
    outer loop
      vertex -1.82213 2.50795 11
      vertex -0.852288 1.17307 11
      vertex -1.40737 2.76212 11
    endloop
  endfacet
  facet normal 0 0 1
    outer loop
      vertex -0.852288 1.17307 11
      vertex -1.82213 2.50795 11
      vertex -1.0253 1.0253 11
    endloop
  endfacet
  facet normal -0 0 1
    outer loop
      vertex -2.19203 2.19203 11
      vertex -1.0253 1.0253 11
      vertex -1.82213 2.50795 11
    endloop
  endfacet
  facet normal 0 0 1
    outer loop
      vertex -1.0253 1.0253 11
      vertex -2.19203 2.19203 11
      vertex -1.17307 0.852288 11
    endloop
  endfacet
  facet normal -0 0 1
    outer loop
      vertex -2.50795 1.82213 11
      vertex -1.17307 0.852288 11
      vertex -2.19203 2.19203 11
    endloop
  endfacet
  facet normal 0 0 1
    outer loop
      vertex -1.17307 0.852288 11
      vertex -2.50795 1.82213 11
      vertex -1.29196 0.658286 11
    endloop
  endfacet
  facet normal -0 0 1
    outer loop
      vertex -2.76212 1.40737 11
      vertex -1.29196 0.658286 11
      vertex -2.50795 1.82213 11
    endloop
  endfacet
  facet normal 0 0 1
    outer loop
      vertex 2.76212 -1.40737 11
      vertex 1.29196 -0.658286 11
      vertex 2.50795 -1.82213 11
    endloop
  endfacet
  facet normal -0 0 1
    outer loop
      vertex 1.17307 -0.852288 11
      vertex 2.50795 -1.82213 11
      vertex 1.29196 -0.658286 11
    endloop
  endfacet
  facet normal 0 0 1
    outer loop
      vertex 2.50795 -1.82213 11
      vertex 1.17307 -0.852288 11
      vertex 2.19203 -2.19203 11
    endloop
  endfacet
  facet normal -0 0 1
    outer loop
      vertex 1.0253 -1.0253 11
      vertex 2.19203 -2.19203 11
      vertex 1.17307 -0.852288 11
    endloop
  endfacet
  facet normal 0 0 1
    outer loop
      vertex 2.19203 -2.19203 11
      vertex 1.0253 -1.0253 11
      vertex 1.82213 -2.50795 11
    endloop
  endfacet
  facet normal -0 0 1
    outer loop
      vertex 0.852288 -1.17307 11
      vertex 1.82213 -2.50795 11
      vertex 1.0253 -1.0253 11
    endloop
  endfacet
  facet normal 0 0 1
    outer loop
      vertex 1.82213 -2.50795 11
      vertex 0.852288 -1.17307 11
      vertex 1.40737 -2.76212 11
    endloop
  endfacet
  facet normal -0 0 1
    outer loop
      vertex 0.658286 -1.29196 11
      vertex 1.40737 -2.76212 11
      vertex 0.852288 -1.17307 11
    endloop
  endfacet
  facet normal 0 0 1
    outer loop
      vertex 1.40737 -2.76212 11
      vertex 0.658286 -1.29196 11
      vertex 0.957952 -2.94827 11
    endloop
  endfacet
  facet normal -0 0 1
    outer loop
      vertex 0.448074 -1.37903 11
      vertex 0.957952 -2.94827 11
      vertex 0.658286 -1.29196 11
    endloop
  endfacet
  facet normal 0 0 1
    outer loop
      vertex 0.957952 -2.94827 11
      vertex 0.448074 -1.37903 11
      vertex 0.484946 -3.06183 11
    endloop
  endfacet
  facet normal -0 0 1
    outer loop
      vertex 0.22683 -1.43215 11
      vertex 0.484946 -3.06183 11
      vertex 0.448074 -1.37903 11
    endloop
  endfacet
  facet normal -0 0 1
    outer loop
      vertex 0 -1.45 11
      vertex 0.484946 -3.06183 11
      vertex 0.22683 -1.43215 11
    endloop
  endfacet
  facet normal 0 0 1
    outer loop
      vertex 0 -1.45 11
      vertex 0 -3.1 11
      vertex 0.484946 -3.06183 11
    endloop
  endfacet
  facet normal 0 0 1
    outer loop
      vertex -0.22683 -1.43215 11
      vertex 0 -3.1 11
      vertex 0 -1.45 11
    endloop
  endfacet
  facet normal 0 0 1
    outer loop
      vertex -0.484946 -3.06183 11
      vertex -0.22683 -1.43215 11
      vertex -0.448074 -1.37903 11
    endloop
  endfacet
  facet normal 0 0 1
    outer loop
      vertex -0.22683 -1.43215 11
      vertex -0.484946 -3.06183 11
      vertex 0 -3.1 11
    endloop
  endfacet
  facet normal 0 0 1
    outer loop
      vertex -0.957952 -2.94827 11
      vertex -0.448074 -1.37903 11
      vertex -0.658286 -1.29196 11
    endloop
  endfacet
  facet normal 0 0 1
    outer loop
      vertex -1.40737 -2.76212 11
      vertex -0.658286 -1.29196 11
      vertex -0.852288 -1.17307 11
    endloop
  endfacet
  facet normal 0 0 1
    outer loop
      vertex -0.448074 -1.37903 11
      vertex -0.957952 -2.94827 11
      vertex -0.484946 -3.06183 11
    endloop
  endfacet
  facet normal 0 0 1
    outer loop
      vertex -1.82213 -2.50795 11
      vertex -0.852288 -1.17307 11
      vertex -1.0253 -1.0253 11
    endloop
  endfacet
  facet normal 0 0 1
    outer loop
      vertex -2.19203 -2.19203 11
      vertex -1.0253 -1.0253 11
      vertex -1.17307 -0.852288 11
    endloop
  endfacet
  facet normal 0 0 1
    outer loop
      vertex -2.50795 -1.82213 11
      vertex -1.17307 -0.852288 11
      vertex -1.29196 -0.658286 11
    endloop
  endfacet
  facet normal 0 0 1
    outer loop
      vertex -2.76212 -1.40737 11
      vertex -1.29196 -0.658286 11
      vertex -1.37903 -0.448074 11
    endloop
  endfacet
  facet normal 0 0 1
    outer loop
      vertex -0.658286 -1.29196 11
      vertex -1.40737 -2.76212 11
      vertex -0.957952 -2.94827 11
    endloop
  endfacet
  facet normal 0 0 1
    outer loop
      vertex -2.94827 -0.957952 11
      vertex -1.37903 -0.448074 11
      vertex -1.43215 -0.22683 11
    endloop
  endfacet
  facet normal 0 0 1
    outer loop
      vertex -3.06183 -0.484946 11
      vertex -1.43215 -0.22683 11
      vertex -1.45 0 11
    endloop
  endfacet
  facet normal 0 0 1
    outer loop
      vertex -1.29196 0.658286 11
      vertex -2.76212 1.40737 11
      vertex -1.37903 0.448074 11
    endloop
  endfacet
  facet normal 0 0 1
    outer loop
      vertex -0.852288 -1.17307 11
      vertex -1.82213 -2.50795 11
      vertex -1.40737 -2.76212 11
    endloop
  endfacet
  facet normal -0 0 1
    outer loop
      vertex -2.94827 0.957952 11
      vertex -1.37903 0.448074 11
      vertex -2.76212 1.40737 11
    endloop
  endfacet
  facet normal 0 0 1
    outer loop
      vertex -1.0253 -1.0253 11
      vertex -2.19203 -2.19203 11
      vertex -1.82213 -2.50795 11
    endloop
  endfacet
  facet normal 0 0 1
    outer loop
      vertex -1.37903 0.448074 11
      vertex -2.94827 0.957952 11
      vertex -1.43215 0.22683 11
    endloop
  endfacet
  facet normal 0 0 1
    outer loop
      vertex -1.17307 -0.852288 11
      vertex -2.50795 -1.82213 11
      vertex -2.19203 -2.19203 11
    endloop
  endfacet
  facet normal -0 0 1
    outer loop
      vertex -3.06183 0.484946 11
      vertex -1.43215 0.22683 11
      vertex -2.94827 0.957952 11
    endloop
  endfacet
  facet normal 0 0 1
    outer loop
      vertex -1.29196 -0.658286 11
      vertex -2.76212 -1.40737 11
      vertex -2.50795 -1.82213 11
    endloop
  endfacet
  facet normal 0 0 1
    outer loop
      vertex -1.43215 0.22683 11
      vertex -3.06183 0.484946 11
      vertex -1.45 0 11
    endloop
  endfacet
  facet normal 0 0 1
    outer loop
      vertex -1.37903 -0.448074 11
      vertex -2.94827 -0.957952 11
      vertex -2.76212 -1.40737 11
    endloop
  endfacet
  facet normal 0 0 1
    outer loop
      vertex -3.1 0 11
      vertex -1.45 0 11
      vertex -3.06183 0.484946 11
    endloop
  endfacet
  facet normal 0 0 1
    outer loop
      vertex -1.43215 -0.22683 11
      vertex -3.06183 -0.484946 11
      vertex -2.94827 -0.957952 11
    endloop
  endfacet
  facet normal 0 0 1
    outer loop
      vertex -1.45 0 11
      vertex -3.1 0 11
      vertex -3.06183 -0.484946 11
    endloop
  endfacet
  facet normal -0.522498 0.852641 0
    outer loop
      vertex -1.40737 2.76212 0
      vertex -1.82213 2.50795 11
      vertex -1.40737 2.76212 11
    endloop
  endfacet
  facet normal -0.522498 0.852641 0
    outer loop
      vertex -1.82213 2.50795 11
      vertex -1.40737 2.76212 0
      vertex -1.82213 2.50795 0
    endloop
  endfacet
  facet normal -0.233445 0.97237 0
    outer loop
      vertex -0.484946 3.06183 0
      vertex -0.957952 2.94827 11
      vertex -0.484946 3.06183 11
    endloop
  endfacet
  facet normal -0.233445 0.97237 0
    outer loop
      vertex -0.957952 2.94827 11
      vertex -0.484946 3.06183 0
      vertex -0.957952 2.94827 0
    endloop
  endfacet
  facet normal 0 0 -1
    outer loop
      vertex 1.45 0 0
      vertex 3.1 0 0
      vertex 3.06183 -0.484946 0
    endloop
  endfacet
  facet normal 0 0 -1
    outer loop
      vertex 1.43215 -0.22683 0
      vertex 3.06183 -0.484946 0
      vertex 2.94827 -0.957952 0
    endloop
  endfacet
  facet normal 0 0 -1
    outer loop
      vertex 3.1 0 0
      vertex 1.45 0 0
      vertex 3.06183 0.484946 0
    endloop
  endfacet
  facet normal 0 0 -1
    outer loop
      vertex 1.37903 -0.448074 0
      vertex 2.94827 -0.957952 0
      vertex 2.76212 -1.40737 0
    endloop
  endfacet
  facet normal 0 0 -1
    outer loop
      vertex 1.43215 0.22683 0
      vertex 3.06183 0.484946 0
      vertex 1.45 0 0
    endloop
  endfacet
  facet normal 0 0 -1
    outer loop
      vertex 1.29196 -0.658286 0
      vertex 2.76212 -1.40737 0
      vertex 2.50795 -1.82213 0
    endloop
  endfacet
  facet normal -0 0 -1
    outer loop
      vertex 3.06183 0.484946 0
      vertex 1.43215 0.22683 0
      vertex 2.94827 0.957952 0
    endloop
  endfacet
  facet normal 0 0 -1
    outer loop
      vertex 1.17307 -0.852288 0
      vertex 2.50795 -1.82213 0
      vertex 2.19203 -2.19203 0
    endloop
  endfacet
  facet normal 0 0 -1
    outer loop
      vertex 1.37903 0.448074 0
      vertex 2.94827 0.957952 0
      vertex 1.43215 0.22683 0
    endloop
  endfacet
  facet normal 0 0 -1
    outer loop
      vertex 1.0253 -1.0253 0
      vertex 2.19203 -2.19203 0
      vertex 1.82213 -2.50795 0
    endloop
  endfacet
  facet normal -0 0 -1
    outer loop
      vertex 2.94827 0.957952 0
      vertex 1.37903 0.448074 0
      vertex 2.76212 1.40737 0
    endloop
  endfacet
  facet normal 0 0 -1
    outer loop
      vertex 1.29196 0.658286 0
      vertex 2.76212 1.40737 0
      vertex 1.37903 0.448074 0
    endloop
  endfacet
  facet normal 0 0 -1
    outer loop
      vertex 3.06183 -0.484946 0
      vertex 1.43215 -0.22683 0
      vertex 1.45 0 0
    endloop
  endfacet
  facet normal 0 0 -1
    outer loop
      vertex 0.852288 -1.17307 0
      vertex 1.82213 -2.50795 0
      vertex 1.40737 -2.76212 0
    endloop
  endfacet
  facet normal 0 0 -1
    outer loop
      vertex 2.94827 -0.957952 0
      vertex 1.37903 -0.448074 0
      vertex 1.43215 -0.22683 0
    endloop
  endfacet
  facet normal 0 0 -1
    outer loop
      vertex 2.76212 -1.40737 0
      vertex 1.29196 -0.658286 0
      vertex 1.37903 -0.448074 0
    endloop
  endfacet
  facet normal 0 0 -1
    outer loop
      vertex 2.50795 -1.82213 0
      vertex 1.17307 -0.852288 0
      vertex 1.29196 -0.658286 0
    endloop
  endfacet
  facet normal 0 0 -1
    outer loop
      vertex 2.19203 -2.19203 0
      vertex 1.0253 -1.0253 0
      vertex 1.17307 -0.852288 0
    endloop
  endfacet
  facet normal 0 0 -1
    outer loop
      vertex 0.658286 -1.29196 0
      vertex 1.40737 -2.76212 0
      vertex 0.957952 -2.94827 0
    endloop
  endfacet
  facet normal 0 0 -1
    outer loop
      vertex 1.82213 -2.50795 0
      vertex 0.852288 -1.17307 0
      vertex 1.0253 -1.0253 0
    endloop
  endfacet
  facet normal 0 0 -1
    outer loop
      vertex 1.40737 -2.76212 0
      vertex 0.658286 -1.29196 0
      vertex 0.852288 -1.17307 0
    endloop
  endfacet
  facet normal 0 0 -1
    outer loop
      vertex 0.448074 -1.37903 0
      vertex 0.957952 -2.94827 0
      vertex 0.484946 -3.06183 0
    endloop
  endfacet
  facet normal 0 0 -1
    outer loop
      vertex 0.957952 -2.94827 0
      vertex 0.448074 -1.37903 0
      vertex 0.658286 -1.29196 0
    endloop
  endfacet
  facet normal 0 0 -1
    outer loop
      vertex 0.484946 -3.06183 0
      vertex 0.22683 -1.43215 0
      vertex 0.448074 -1.37903 0
    endloop
  endfacet
  facet normal 0 0 -1
    outer loop
      vertex 0 -3.1 0
      vertex 0.22683 -1.43215 0
      vertex 0.484946 -3.06183 0
    endloop
  endfacet
  facet normal 0 0 -1
    outer loop
      vertex 0 -3.1 0
      vertex 0 -1.45 0
      vertex 0.22683 -1.43215 0
    endloop
  endfacet
  facet normal 0 0 -1
    outer loop
      vertex 0 -3.1 0
      vertex -0.22683 -1.43215 0
      vertex 0 -1.45 0
    endloop
  endfacet
  facet normal 0 0 -1
    outer loop
      vertex -0.484946 -3.06183 0
      vertex -0.22683 -1.43215 0
      vertex 0 -3.1 0
    endloop
  endfacet
  facet normal -0 0 -1
    outer loop
      vertex -0.22683 -1.43215 0
      vertex -0.484946 -3.06183 0
      vertex -0.448074 -1.37903 0
    endloop
  endfacet
  facet normal 0 0 -1
    outer loop
      vertex -0.957952 -2.94827 0
      vertex -0.448074 -1.37903 0
      vertex -0.484946 -3.06183 0
    endloop
  endfacet
  facet normal -0 0 -1
    outer loop
      vertex -0.448074 -1.37903 0
      vertex -0.957952 -2.94827 0
      vertex -0.658286 -1.29196 0
    endloop
  endfacet
  facet normal 0 0 -1
    outer loop
      vertex -1.40737 -2.76212 0
      vertex -0.658286 -1.29196 0
      vertex -0.957952 -2.94827 0
    endloop
  endfacet
  facet normal -0 0 -1
    outer loop
      vertex -0.658286 -1.29196 0
      vertex -1.40737 -2.76212 0
      vertex -0.852288 -1.17307 0
    endloop
  endfacet
  facet normal 0 0 -1
    outer loop
      vertex -1.82213 -2.50795 0
      vertex -0.852288 -1.17307 0
      vertex -1.40737 -2.76212 0
    endloop
  endfacet
  facet normal -0 0 -1
    outer loop
      vertex -0.852288 -1.17307 0
      vertex -1.82213 -2.50795 0
      vertex -1.0253 -1.0253 0
    endloop
  endfacet
  facet normal 0 0 -1
    outer loop
      vertex -2.19203 -2.19203 0
      vertex -1.0253 -1.0253 0
      vertex -1.82213 -2.50795 0
    endloop
  endfacet
  facet normal -0 0 -1
    outer loop
      vertex -1.0253 -1.0253 0
      vertex -2.19203 -2.19203 0
      vertex -1.17307 -0.852288 0
    endloop
  endfacet
  facet normal 0 0 -1
    outer loop
      vertex -2.50795 -1.82213 0
      vertex -1.17307 -0.852288 0
      vertex -2.19203 -2.19203 0
    endloop
  endfacet
  facet normal -0 0 -1
    outer loop
      vertex -1.17307 -0.852288 0
      vertex -2.50795 -1.82213 0
      vertex -1.29196 -0.658286 0
    endloop
  endfacet
  facet normal 0 0 -1
    outer loop
      vertex -2.76212 -1.40737 0
      vertex -1.29196 -0.658286 0
      vertex -2.50795 -1.82213 0
    endloop
  endfacet
  facet normal -0 0 -1
    outer loop
      vertex 2.76212 1.40737 0
      vertex 1.29196 0.658286 0
      vertex 2.50795 1.82213 0
    endloop
  endfacet
  facet normal 0 0 -1
    outer loop
      vertex 1.17307 0.852288 0
      vertex 2.50795 1.82213 0
      vertex 1.29196 0.658286 0
    endloop
  endfacet
  facet normal -0 0 -1
    outer loop
      vertex 2.50795 1.82213 0
      vertex 1.17307 0.852288 0
      vertex 2.19203 2.19203 0
    endloop
  endfacet
  facet normal 0 0 -1
    outer loop
      vertex 1.0253 1.0253 0
      vertex 2.19203 2.19203 0
      vertex 1.17307 0.852288 0
    endloop
  endfacet
  facet normal -0 0 -1
    outer loop
      vertex 2.19203 2.19203 0
      vertex 1.0253 1.0253 0
      vertex 1.82213 2.50795 0
    endloop
  endfacet
  facet normal 0 0 -1
    outer loop
      vertex 0.852288 1.17307 0
      vertex 1.82213 2.50795 0
      vertex 1.0253 1.0253 0
    endloop
  endfacet
  facet normal -0 0 -1
    outer loop
      vertex 1.82213 2.50795 0
      vertex 0.852288 1.17307 0
      vertex 1.40737 2.76212 0
    endloop
  endfacet
  facet normal 0 0 -1
    outer loop
      vertex 0.658286 1.29196 0
      vertex 1.40737 2.76212 0
      vertex 0.852288 1.17307 0
    endloop
  endfacet
  facet normal -0 0 -1
    outer loop
      vertex 1.40737 2.76212 0
      vertex 0.658286 1.29196 0
      vertex 0.957952 2.94827 0
    endloop
  endfacet
  facet normal 0 0 -1
    outer loop
      vertex 0.448074 1.37903 0
      vertex 0.957952 2.94827 0
      vertex 0.658286 1.29196 0
    endloop
  endfacet
  facet normal -0 0 -1
    outer loop
      vertex 0.957952 2.94827 0
      vertex 0.448074 1.37903 0
      vertex 0.484946 3.06183 0
    endloop
  endfacet
  facet normal 0 0 -1
    outer loop
      vertex 0.22683 1.43215 0
      vertex 0.484946 3.06183 0
      vertex 0.448074 1.37903 0
    endloop
  endfacet
  facet normal 0 0 -1
    outer loop
      vertex 0 1.45 0
      vertex 0.484946 3.06183 0
      vertex 0.22683 1.43215 0
    endloop
  endfacet
  facet normal 0 0 -1
    outer loop
      vertex 0 1.45 0
      vertex 0 3.1 0
      vertex 0.484946 3.06183 0
    endloop
  endfacet
  facet normal 0 0 -1
    outer loop
      vertex -0.22683 1.43215 0
      vertex 0 3.1 0
      vertex 0 1.45 0
    endloop
  endfacet
  facet normal 0 0 -1
    outer loop
      vertex -0.484946 3.06183 0
      vertex -0.22683 1.43215 0
      vertex -0.448074 1.37903 0
    endloop
  endfacet
  facet normal 0 0 -1
    outer loop
      vertex -0.22683 1.43215 0
      vertex -0.484946 3.06183 0
      vertex 0 3.1 0
    endloop
  endfacet
  facet normal 0 0 -1
    outer loop
      vertex -0.957952 2.94827 0
      vertex -0.448074 1.37903 0
      vertex -0.658286 1.29196 0
    endloop
  endfacet
  facet normal 0 0 -1
    outer loop
      vertex -1.40737 2.76212 0
      vertex -0.658286 1.29196 0
      vertex -0.852288 1.17307 0
    endloop
  endfacet
  facet normal 0 0 -1
    outer loop
      vertex -0.448074 1.37903 0
      vertex -0.957952 2.94827 0
      vertex -0.484946 3.06183 0
    endloop
  endfacet
  facet normal 0 0 -1
    outer loop
      vertex -1.82213 2.50795 0
      vertex -0.852288 1.17307 0
      vertex -1.0253 1.0253 0
    endloop
  endfacet
  facet normal 0 0 -1
    outer loop
      vertex -2.19203 2.19203 0
      vertex -1.0253 1.0253 0
      vertex -1.17307 0.852288 0
    endloop
  endfacet
  facet normal 0 0 -1
    outer loop
      vertex -2.50795 1.82213 0
      vertex -1.17307 0.852288 0
      vertex -1.29196 0.658286 0
    endloop
  endfacet
  facet normal 0 0 -1
    outer loop
      vertex -2.76212 1.40737 0
      vertex -1.29196 0.658286 0
      vertex -1.37903 0.448074 0
    endloop
  endfacet
  facet normal 0 0 -1
    outer loop
      vertex -0.658286 1.29196 0
      vertex -1.40737 2.76212 0
      vertex -0.957952 2.94827 0
    endloop
  endfacet
  facet normal 0 0 -1
    outer loop
      vertex -2.94827 0.957952 0
      vertex -1.37903 0.448074 0
      vertex -1.43215 0.22683 0
    endloop
  endfacet
  facet normal 0 0 -1
    outer loop
      vertex -3.06183 0.484946 0
      vertex -1.43215 0.22683 0
      vertex -1.45 0 0
    endloop
  endfacet
  facet normal -0 0 -1
    outer loop
      vertex -1.29196 -0.658286 0
      vertex -2.76212 -1.40737 0
      vertex -1.37903 -0.448074 0
    endloop
  endfacet
  facet normal 0 0 -1
    outer loop
      vertex -0.852288 1.17307 0
      vertex -1.82213 2.50795 0
      vertex -1.40737 2.76212 0
    endloop
  endfacet
  facet normal 0 0 -1
    outer loop
      vertex -2.94827 -0.957952 0
      vertex -1.37903 -0.448074 0
      vertex -2.76212 -1.40737 0
    endloop
  endfacet
  facet normal 0 0 -1
    outer loop
      vertex -1.0253 1.0253 0
      vertex -2.19203 2.19203 0
      vertex -1.82213 2.50795 0
    endloop
  endfacet
  facet normal -0 0 -1
    outer loop
      vertex -1.37903 -0.448074 0
      vertex -2.94827 -0.957952 0
      vertex -1.43215 -0.22683 0
    endloop
  endfacet
  facet normal 0 0 -1
    outer loop
      vertex -1.17307 0.852288 0
      vertex -2.50795 1.82213 0
      vertex -2.19203 2.19203 0
    endloop
  endfacet
  facet normal 0 0 -1
    outer loop
      vertex -3.06183 -0.484946 0
      vertex -1.43215 -0.22683 0
      vertex -2.94827 -0.957952 0
    endloop
  endfacet
  facet normal 0 0 -1
    outer loop
      vertex -1.29196 0.658286 0
      vertex -2.76212 1.40737 0
      vertex -2.50795 1.82213 0
    endloop
  endfacet
  facet normal -0 0 -1
    outer loop
      vertex -1.43215 -0.22683 0
      vertex -3.06183 -0.484946 0
      vertex -1.45 0 0
    endloop
  endfacet
  facet normal 0 0 -1
    outer loop
      vertex -1.37903 0.448074 0
      vertex -2.94827 0.957952 0
      vertex -2.76212 1.40737 0
    endloop
  endfacet
  facet normal 0 0 -1
    outer loop
      vertex -3.1 0 0
      vertex -1.45 0 0
      vertex -3.06183 -0.484946 0
    endloop
  endfacet
  facet normal 0 0 -1
    outer loop
      vertex -1.43215 0.22683 0
      vertex -3.06183 0.484946 0
      vertex -2.94827 0.957952 0
    endloop
  endfacet
  facet normal 0 0 -1
    outer loop
      vertex -1.45 0 0
      vertex -3.1 0 0
      vertex -3.06183 0.484946 0
    endloop
  endfacet
  facet normal 0.233445 -0.97237 0
    outer loop
      vertex 0.484946 -3.06183 0
      vertex 0.957952 -2.94827 11
      vertex 0.484946 -3.06183 11
    endloop
  endfacet
  facet normal 0.233445 -0.97237 0
    outer loop
      vertex 0.957952 -2.94827 11
      vertex 0.484946 -3.06183 0
      vertex 0.957952 -2.94827 0
    endloop
  endfacet
  facet normal 0.522498 -0.852641 0
    outer loop
      vertex 1.40737 -2.76212 0
      vertex 1.82213 -2.50795 11
      vertex 1.40737 -2.76212 11
    endloop
  endfacet
  facet normal 0.522498 -0.852641 0
    outer loop
      vertex 1.82213 -2.50795 11
      vertex 1.40737 -2.76212 0
      vertex 1.82213 -2.50795 0
    endloop
  endfacet
  facet normal 0.97237 -0.233445 0
    outer loop
      vertex 2.94827 -0.957952 11
      vertex 3.06183 -0.484946 0
      vertex 3.06183 -0.484946 11
    endloop
  endfacet
  facet normal 0.97237 -0.233445 0
    outer loop
      vertex 3.06183 -0.484946 0
      vertex 2.94827 -0.957952 11
      vertex 2.94827 -0.957952 0
    endloop
  endfacet
  facet normal 0.923879 0.382685 0
    outer loop
      vertex 2.94827 0.957952 11
      vertex 2.76212 1.40737 0
      vertex 2.76212 1.40737 11
    endloop
  endfacet
  facet normal 0.923879 0.382685 0
    outer loop
      vertex 2.76212 1.40737 0
      vertex 2.94827 0.957952 11
      vertex 2.94827 0.957952 0
    endloop
  endfacet
  facet normal 0.078459 0.996917 -0
    outer loop
      vertex 0.484946 3.06183 0
      vertex 0 3.1 11
      vertex 0.484946 3.06183 11
    endloop
  endfacet
  facet normal 0.078459 0.996917 0
    outer loop
      vertex 0 3.1 11
      vertex 0.484946 3.06183 0
      vertex 0 3.1 0
    endloop
  endfacet
  facet normal -0.852641 0.522498 0
    outer loop
      vertex -2.76212 1.40737 0
      vertex -2.50795 1.82213 11
      vertex -2.50795 1.82213 0
    endloop
  endfacet
  facet normal -0.852641 0.522498 0
    outer loop
      vertex -2.50795 1.82213 11
      vertex -2.76212 1.40737 0
      vertex -2.76212 1.40737 11
    endloop
  endfacet
  facet normal 0.996917 -0.078459 0
    outer loop
      vertex 3.06183 -0.484946 11
      vertex 3.1 0 0
      vertex 3.1 0 11
    endloop
  endfacet
  facet normal 0.996917 -0.078459 0
    outer loop
      vertex 3.1 0 0
      vertex 3.06183 -0.484946 11
      vertex 3.06183 -0.484946 0
    endloop
  endfacet
  facet normal -0.649447 -0.760407 0
    outer loop
      vertex -2.19203 -2.19203 0
      vertex -1.82213 -2.50795 11
      vertex -2.19203 -2.19203 11
    endloop
  endfacet
  facet normal -0.649447 -0.760407 -0
    outer loop
      vertex -1.82213 -2.50795 11
      vertex -2.19203 -2.19203 0
      vertex -1.82213 -2.50795 0
    endloop
  endfacet
  facet normal -0.760407 -0.649447 0
    outer loop
      vertex -2.19203 -2.19203 0
      vertex -2.50795 -1.82213 11
      vertex -2.50795 -1.82213 0
    endloop
  endfacet
  facet normal -0.760407 -0.649447 0
    outer loop
      vertex -2.50795 -1.82213 11
      vertex -2.19203 -2.19203 0
      vertex -2.19203 -2.19203 11
    endloop
  endfacet
  facet normal 0.649447 -0.760407 0
    outer loop
      vertex 1.82213 -2.50795 0
      vertex 2.19203 -2.19203 11
      vertex 1.82213 -2.50795 11
    endloop
  endfacet
  facet normal 0.649447 -0.760407 0
    outer loop
      vertex 2.19203 -2.19203 11
      vertex 1.82213 -2.50795 0
      vertex 2.19203 -2.19203 0
    endloop
  endfacet
  facet normal 0.923879 -0.382685 0
    outer loop
      vertex 2.76212 -1.40737 11
      vertex 2.94827 -0.957952 0
      vertex 2.94827 -0.957952 11
    endloop
  endfacet
  facet normal 0.923879 -0.382685 0
    outer loop
      vertex 2.94827 -0.957952 0
      vertex 2.76212 -1.40737 11
      vertex 2.76212 -1.40737 0
    endloop
  endfacet
  facet normal -0.233445 -0.97237 0
    outer loop
      vertex -0.957952 -2.94827 0
      vertex -0.484946 -3.06183 11
      vertex -0.957952 -2.94827 11
    endloop
  endfacet
  facet normal -0.233445 -0.97237 -0
    outer loop
      vertex -0.484946 -3.06183 11
      vertex -0.957952 -2.94827 0
      vertex -0.484946 -3.06183 0
    endloop
  endfacet
  facet normal -0.382685 -0.923879 0
    outer loop
      vertex -1.40737 -2.76212 0
      vertex -0.957952 -2.94827 11
      vertex -1.40737 -2.76212 11
    endloop
  endfacet
  facet normal -0.382685 -0.923879 -0
    outer loop
      vertex -0.957952 -2.94827 11
      vertex -1.40737 -2.76212 0
      vertex -0.957952 -2.94827 0
    endloop
  endfacet
  facet normal -0.97237 -0.233445 0
    outer loop
      vertex -2.94827 -0.957952 0
      vertex -3.06183 -0.484946 11
      vertex -3.06183 -0.484946 0
    endloop
  endfacet
  facet normal -0.97237 -0.233445 0
    outer loop
      vertex -3.06183 -0.484946 11
      vertex -2.94827 -0.957952 0
      vertex -2.94827 -0.957952 11
    endloop
  endfacet
  facet normal -0.996917 -0.078459 0
    outer loop
      vertex -3.06183 -0.484946 0
      vertex -3.1 0 11
      vertex -3.1 0 0
    endloop
  endfacet
  facet normal -0.996917 -0.078459 0
    outer loop
      vertex -3.1 0 11
      vertex -3.06183 -0.484946 0
      vertex -3.06183 -0.484946 11
    endloop
  endfacet
  facet normal 0.760407 -0.649447 0
    outer loop
      vertex 2.19203 -2.19203 11
      vertex 2.50795 -1.82213 0
      vertex 2.50795 -1.82213 11
    endloop
  endfacet
  facet normal 0.760407 -0.649447 0
    outer loop
      vertex 2.50795 -1.82213 0
      vertex 2.19203 -2.19203 11
      vertex 2.19203 -2.19203 0
    endloop
  endfacet
  facet normal 0.382685 -0.923879 0
    outer loop
      vertex 0.957952 -2.94827 0
      vertex 1.40737 -2.76212 11
      vertex 0.957952 -2.94827 11
    endloop
  endfacet
  facet normal 0.382685 -0.923879 0
    outer loop
      vertex 1.40737 -2.76212 11
      vertex 0.957952 -2.94827 0
      vertex 1.40737 -2.76212 0
    endloop
  endfacet
  facet normal -0.078459 -0.996917 0
    outer loop
      vertex -0.484946 -3.06183 0
      vertex 0 -3.1 11
      vertex -0.484946 -3.06183 11
    endloop
  endfacet
  facet normal -0.078459 -0.996917 -0
    outer loop
      vertex 0 -3.1 11
      vertex -0.484946 -3.06183 0
      vertex 0 -3.1 0
    endloop
  endfacet
  facet normal -0.522498 -0.852641 0
    outer loop
      vertex -1.82213 -2.50795 0
      vertex -1.40737 -2.76212 11
      vertex -1.82213 -2.50795 11
    endloop
  endfacet
  facet normal -0.522498 -0.852641 -0
    outer loop
      vertex -1.40737 -2.76212 11
      vertex -1.82213 -2.50795 0
      vertex -1.40737 -2.76212 0
    endloop
  endfacet
  facet normal -0.852641 -0.522498 0
    outer loop
      vertex -2.50795 -1.82213 0
      vertex -2.76212 -1.40737 11
      vertex -2.76212 -1.40737 0
    endloop
  endfacet
  facet normal -0.852641 -0.522498 0
    outer loop
      vertex -2.76212 -1.40737 11
      vertex -2.50795 -1.82213 0
      vertex -2.50795 -1.82213 11
    endloop
  endfacet
  facet normal -0.923879 -0.382685 0
    outer loop
      vertex -2.76212 -1.40737 0
      vertex -2.94827 -0.957952 11
      vertex -2.94827 -0.957952 0
    endloop
  endfacet
  facet normal -0.923879 -0.382685 0
    outer loop
      vertex -2.94827 -0.957952 11
      vertex -2.76212 -1.40737 0
      vertex -2.76212 -1.40737 11
    endloop
  endfacet
  facet normal -0.92388 -0.382683 0
    outer loop
      vertex 1.37903 0.448074 0
      vertex 1.29196 0.658286 11
      vertex 1.29196 0.658286 0
    endloop
  endfacet
  facet normal -0.92388 -0.382683 0
    outer loop
      vertex 1.29196 0.658286 11
      vertex 1.37903 0.448074 0
      vertex 1.37903 0.448074 11
    endloop
  endfacet
  facet normal -0.852639 -0.5225 0
    outer loop
      vertex 1.29196 0.658286 0
      vertex 1.17307 0.852288 11
      vertex 1.17307 0.852288 0
    endloop
  endfacet
  facet normal -0.852639 -0.5225 0
    outer loop
      vertex 1.17307 0.852288 11
      vertex 1.29196 0.658286 0
      vertex 1.29196 0.658286 11
    endloop
  endfacet
  facet normal -0.233448 -0.972369 0
    outer loop
      vertex 0.22683 1.43215 0
      vertex 0.448074 1.37903 11
      vertex 0.22683 1.43215 11
    endloop
  endfacet
  facet normal -0.233448 -0.972369 -0
    outer loop
      vertex 0.448074 1.37903 11
      vertex 0.22683 1.43215 0
      vertex 0.448074 1.37903 0
    endloop
  endfacet
  facet normal 0.382683 -0.92388 0
    outer loop
      vertex -0.658286 1.29196 0
      vertex -0.448074 1.37903 11
      vertex -0.658286 1.29196 11
    endloop
  endfacet
  facet normal 0.382683 -0.92388 0
    outer loop
      vertex -0.448074 1.37903 11
      vertex -0.658286 1.29196 0
      vertex -0.448074 1.37903 0
    endloop
  endfacet
  facet normal 0.852639 -0.5225 0
    outer loop
      vertex -1.29196 0.658286 11
      vertex -1.17307 0.852288 0
      vertex -1.17307 0.852288 11
    endloop
  endfacet
  facet normal 0.852639 -0.5225 0
    outer loop
      vertex -1.17307 0.852288 0
      vertex -1.29196 0.658286 11
      vertex -1.29196 0.658286 0
    endloop
  endfacet
  facet normal -0.996917 0.0784589 0
    outer loop
      vertex 1.43215 -0.22683 0
      vertex 1.45 0 11
      vertex 1.45 0 0
    endloop
  endfacet
  facet normal -0.996917 0.0784589 0
    outer loop
      vertex 1.45 0 11
      vertex 1.43215 -0.22683 0
      vertex 1.43215 -0.22683 11
    endloop
  endfacet
  facet normal -0.233448 0.972369 0
    outer loop
      vertex 0.448074 -1.37903 0
      vertex 0.22683 -1.43215 11
      vertex 0.448074 -1.37903 11
    endloop
  endfacet
  facet normal -0.233448 0.972369 0
    outer loop
      vertex 0.22683 -1.43215 11
      vertex 0.448074 -1.37903 0
      vertex 0.22683 -1.43215 0
    endloop
  endfacet
  facet normal -0.972369 -0.233448 0
    outer loop
      vertex 1.43215 0.22683 0
      vertex 1.37903 0.448074 11
      vertex 1.37903 0.448074 0
    endloop
  endfacet
  facet normal -0.972369 -0.233448 0
    outer loop
      vertex 1.37903 0.448074 11
      vertex 1.43215 0.22683 0
      vertex 1.43215 0.22683 11
    endloop
  endfacet
  facet normal -0.649445 -0.760408 0
    outer loop
      vertex 0.852288 1.17307 0
      vertex 1.0253 1.0253 11
      vertex 0.852288 1.17307 11
    endloop
  endfacet
  facet normal -0.649445 -0.760408 -0
    outer loop
      vertex 1.0253 1.0253 11
      vertex 0.852288 1.17307 0
      vertex 1.0253 1.0253 0
    endloop
  endfacet
  facet normal 0.0784589 -0.996917 0
    outer loop
      vertex -0.22683 1.43215 0
      vertex 0 1.45 11
      vertex -0.22683 1.43215 11
    endloop
  endfacet
  facet normal 0.0784589 -0.996917 0
    outer loop
      vertex 0 1.45 11
      vertex -0.22683 1.43215 0
      vertex 0 1.45 0
    endloop
  endfacet
  facet normal -0.5225 -0.852639 0
    outer loop
      vertex 0.658286 1.29196 0
      vertex 0.852288 1.17307 11
      vertex 0.658286 1.29196 11
    endloop
  endfacet
  facet normal -0.5225 -0.852639 -0
    outer loop
      vertex 0.852288 1.17307 11
      vertex 0.658286 1.29196 0
      vertex 0.852288 1.17307 0
    endloop
  endfacet
  facet normal 0.996917 -0.0784589 0
    outer loop
      vertex -1.45 0 11
      vertex -1.43215 0.22683 0
      vertex -1.43215 0.22683 11
    endloop
  endfacet
  facet normal 0.996917 -0.0784589 0
    outer loop
      vertex -1.43215 0.22683 0
      vertex -1.45 0 11
      vertex -1.45 0 0
    endloop
  endfacet
  facet normal 0.760408 -0.649445 0
    outer loop
      vertex -1.17307 0.852288 11
      vertex -1.0253 1.0253 0
      vertex -1.0253 1.0253 11
    endloop
  endfacet
  facet normal 0.760408 -0.649445 0
    outer loop
      vertex -1.0253 1.0253 0
      vertex -1.17307 0.852288 11
      vertex -1.17307 0.852288 0
    endloop
  endfacet
  facet normal 0.5225 -0.852639 0
    outer loop
      vertex -0.852288 1.17307 0
      vertex -0.658286 1.29196 11
      vertex -0.852288 1.17307 11
    endloop
  endfacet
  facet normal 0.5225 -0.852639 0
    outer loop
      vertex -0.658286 1.29196 11
      vertex -0.852288 1.17307 0
      vertex -0.658286 1.29196 0
    endloop
  endfacet
  facet normal 0.233448 -0.972369 0
    outer loop
      vertex -0.448074 1.37903 0
      vertex -0.22683 1.43215 11
      vertex -0.448074 1.37903 11
    endloop
  endfacet
  facet normal 0.233448 -0.972369 0
    outer loop
      vertex -0.22683 1.43215 11
      vertex -0.448074 1.37903 0
      vertex -0.22683 1.43215 0
    endloop
  endfacet
  facet normal 0.649445 -0.760408 0
    outer loop
      vertex -1.0253 1.0253 0
      vertex -0.852288 1.17307 11
      vertex -1.0253 1.0253 11
    endloop
  endfacet
  facet normal 0.649445 -0.760408 0
    outer loop
      vertex -0.852288 1.17307 11
      vertex -1.0253 1.0253 0
      vertex -0.852288 1.17307 0
    endloop
  endfacet
  facet normal -0.996917 -0.0784589 0
    outer loop
      vertex 1.45 0 0
      vertex 1.43215 0.22683 11
      vertex 1.43215 0.22683 0
    endloop
  endfacet
  facet normal -0.996917 -0.0784589 0
    outer loop
      vertex 1.43215 0.22683 11
      vertex 1.45 0 0
      vertex 1.45 0 11
    endloop
  endfacet
  facet normal 0.649445 0.760408 -0
    outer loop
      vertex -0.852288 -1.17307 0
      vertex -1.0253 -1.0253 11
      vertex -0.852288 -1.17307 11
    endloop
  endfacet
  facet normal 0.649445 0.760408 0
    outer loop
      vertex -1.0253 -1.0253 11
      vertex -0.852288 -1.17307 0
      vertex -1.0253 -1.0253 0
    endloop
  endfacet
  facet normal 0.852639 0.5225 0
    outer loop
      vertex -1.17307 -0.852288 11
      vertex -1.29196 -0.658286 0
      vertex -1.29196 -0.658286 11
    endloop
  endfacet
  facet normal 0.852639 0.5225 0
    outer loop
      vertex -1.29196 -0.658286 0
      vertex -1.17307 -0.852288 11
      vertex -1.17307 -0.852288 0
    endloop
  endfacet
  facet normal -0.760408 -0.649445 0
    outer loop
      vertex 1.17307 0.852288 0
      vertex 1.0253 1.0253 11
      vertex 1.0253 1.0253 0
    endloop
  endfacet
  facet normal -0.760408 -0.649445 0
    outer loop
      vertex 1.0253 1.0253 11
      vertex 1.17307 0.852288 0
      vertex 1.17307 0.852288 11
    endloop
  endfacet
  facet normal -0.0784589 -0.996917 0
    outer loop
      vertex 0 1.45 0
      vertex 0.22683 1.43215 11
      vertex 0 1.45 11
    endloop
  endfacet
  facet normal -0.0784589 -0.996917 -0
    outer loop
      vertex 0.22683 1.43215 11
      vertex 0 1.45 0
      vertex 0.22683 1.43215 0
    endloop
  endfacet
  facet normal -0.382683 -0.92388 0
    outer loop
      vertex 0.448074 1.37903 0
      vertex 0.658286 1.29196 11
      vertex 0.448074 1.37903 11
    endloop
  endfacet
  facet normal -0.382683 -0.92388 -0
    outer loop
      vertex 0.658286 1.29196 11
      vertex 0.448074 1.37903 0
      vertex 0.658286 1.29196 0
    endloop
  endfacet
  facet normal 0.92388 -0.382683 0
    outer loop
      vertex -1.37903 0.448074 11
      vertex -1.29196 0.658286 0
      vertex -1.29196 0.658286 11
    endloop
  endfacet
  facet normal 0.92388 -0.382683 0
    outer loop
      vertex -1.29196 0.658286 0
      vertex -1.37903 0.448074 11
      vertex -1.37903 0.448074 0
    endloop
  endfacet
  facet normal 0.972369 -0.233448 0
    outer loop
      vertex -1.43215 0.22683 11
      vertex -1.37903 0.448074 0
      vertex -1.37903 0.448074 11
    endloop
  endfacet
  facet normal 0.972369 -0.233448 0
    outer loop
      vertex -1.37903 0.448074 0
      vertex -1.43215 0.22683 11
      vertex -1.43215 0.22683 0
    endloop
  endfacet
  facet normal 0.996917 0.0784589 0
    outer loop
      vertex -1.43215 -0.22683 11
      vertex -1.45 0 0
      vertex -1.45 0 11
    endloop
  endfacet
  facet normal 0.996917 0.0784589 0
    outer loop
      vertex -1.45 0 0
      vertex -1.43215 -0.22683 11
      vertex -1.43215 -0.22683 0
    endloop
  endfacet
  facet normal 0.760408 0.649445 0
    outer loop
      vertex -1.0253 -1.0253 11
      vertex -1.17307 -0.852288 0
      vertex -1.17307 -0.852288 11
    endloop
  endfacet
  facet normal 0.760408 0.649445 0
    outer loop
      vertex -1.17307 -0.852288 0
      vertex -1.0253 -1.0253 11
      vertex -1.0253 -1.0253 0
    endloop
  endfacet
  facet normal -0.382683 0.92388 0
    outer loop
      vertex 0.658286 -1.29196 0
      vertex 0.448074 -1.37903 11
      vertex 0.658286 -1.29196 11
    endloop
  endfacet
  facet normal -0.382683 0.92388 0
    outer loop
      vertex 0.448074 -1.37903 11
      vertex 0.658286 -1.29196 0
      vertex 0.448074 -1.37903 0
    endloop
  endfacet
  facet normal -0.92388 0.382683 0
    outer loop
      vertex 1.29196 -0.658286 0
      vertex 1.37903 -0.448074 11
      vertex 1.37903 -0.448074 0
    endloop
  endfacet
  facet normal -0.92388 0.382683 0
    outer loop
      vertex 1.37903 -0.448074 11
      vertex 1.29196 -0.658286 0
      vertex 1.29196 -0.658286 11
    endloop
  endfacet
  facet normal -0.972369 0.233448 0
    outer loop
      vertex 1.37903 -0.448074 0
      vertex 1.43215 -0.22683 11
      vertex 1.43215 -0.22683 0
    endloop
  endfacet
  facet normal -0.972369 0.233448 0
    outer loop
      vertex 1.43215 -0.22683 11
      vertex 1.37903 -0.448074 0
      vertex 1.37903 -0.448074 11
    endloop
  endfacet
  facet normal -0.760408 0.649445 0
    outer loop
      vertex 1.0253 -1.0253 0
      vertex 1.17307 -0.852288 11
      vertex 1.17307 -0.852288 0
    endloop
  endfacet
  facet normal -0.760408 0.649445 0
    outer loop
      vertex 1.17307 -0.852288 11
      vertex 1.0253 -1.0253 0
      vertex 1.0253 -1.0253 11
    endloop
  endfacet
  facet normal -0.852639 0.5225 0
    outer loop
      vertex 1.17307 -0.852288 0
      vertex 1.29196 -0.658286 11
      vertex 1.29196 -0.658286 0
    endloop
  endfacet
  facet normal -0.852639 0.5225 0
    outer loop
      vertex 1.29196 -0.658286 11
      vertex 1.17307 -0.852288 0
      vertex 1.17307 -0.852288 11
    endloop
  endfacet
  facet normal 0.382683 0.92388 -0
    outer loop
      vertex -0.448074 -1.37903 0
      vertex -0.658286 -1.29196 11
      vertex -0.448074 -1.37903 11
    endloop
  endfacet
  facet normal 0.382683 0.92388 0
    outer loop
      vertex -0.658286 -1.29196 11
      vertex -0.448074 -1.37903 0
      vertex -0.658286 -1.29196 0
    endloop
  endfacet
  facet normal 0.92388 0.382683 0
    outer loop
      vertex -1.29196 -0.658286 11
      vertex -1.37903 -0.448074 0
      vertex -1.37903 -0.448074 11
    endloop
  endfacet
  facet normal 0.92388 0.382683 0
    outer loop
      vertex -1.37903 -0.448074 0
      vertex -1.29196 -0.658286 11
      vertex -1.29196 -0.658286 0
    endloop
  endfacet
  facet normal 0.972369 0.233448 0
    outer loop
      vertex -1.37903 -0.448074 11
      vertex -1.43215 -0.22683 0
      vertex -1.43215 -0.22683 11
    endloop
  endfacet
  facet normal 0.972369 0.233448 0
    outer loop
      vertex -1.43215 -0.22683 0
      vertex -1.37903 -0.448074 11
      vertex -1.37903 -0.448074 0
    endloop
  endfacet
  facet normal -0.649445 0.760408 0
    outer loop
      vertex 1.0253 -1.0253 0
      vertex 0.852288 -1.17307 11
      vertex 1.0253 -1.0253 11
    endloop
  endfacet
  facet normal -0.649445 0.760408 0
    outer loop
      vertex 0.852288 -1.17307 11
      vertex 1.0253 -1.0253 0
      vertex 0.852288 -1.17307 0
    endloop
  endfacet
  facet normal -0.5225 0.852639 0
    outer loop
      vertex 0.852288 -1.17307 0
      vertex 0.658286 -1.29196 11
      vertex 0.852288 -1.17307 11
    endloop
  endfacet
  facet normal -0.5225 0.852639 0
    outer loop
      vertex 0.658286 -1.29196 11
      vertex 0.852288 -1.17307 0
      vertex 0.658286 -1.29196 0
    endloop
  endfacet
  facet normal 0.233448 0.972369 -0
    outer loop
      vertex -0.22683 -1.43215 0
      vertex -0.448074 -1.37903 11
      vertex -0.22683 -1.43215 11
    endloop
  endfacet
  facet normal 0.233448 0.972369 0
    outer loop
      vertex -0.448074 -1.37903 11
      vertex -0.22683 -1.43215 0
      vertex -0.448074 -1.37903 0
    endloop
  endfacet
  facet normal 0.0784589 0.996917 -0
    outer loop
      vertex 0 -1.45 0
      vertex -0.22683 -1.43215 11
      vertex 0 -1.45 11
    endloop
  endfacet
  facet normal 0.0784589 0.996917 0
    outer loop
      vertex -0.22683 -1.43215 11
      vertex 0 -1.45 0
      vertex -0.22683 -1.43215 0
    endloop
  endfacet
  facet normal -0.0784589 0.996917 0
    outer loop
      vertex 0.22683 -1.43215 0
      vertex 0 -1.45 11
      vertex 0.22683 -1.43215 11
    endloop
  endfacet
  facet normal -0.0784589 0.996917 0
    outer loop
      vertex 0 -1.45 11
      vertex 0.22683 -1.43215 0
      vertex 0 -1.45 0
    endloop
  endfacet
  facet normal 0.5225 0.852639 -0
    outer loop
      vertex -0.658286 -1.29196 0
      vertex -0.852288 -1.17307 11
      vertex -0.658286 -1.29196 11
    endloop
  endfacet
  facet normal 0.5225 0.852639 0
    outer loop
      vertex -0.852288 -1.17307 11
      vertex -0.658286 -1.29196 0
      vertex -0.852288 -1.17307 0
    endloop
  endfacet
endsolid OpenSCAD_Model
